SplineFontDB: 3.0
FontName: PaytoneOne
FullName: Paytone One
FamilyName: Paytone One
Weight: Normal
Copyright: Copyright (c) 2011 by vernon adams. All rights reserved.
Version: 001.001
ItalicAngle: 0
UnderlinePosition: -104
UnderlineWidth: 102
Ascent: 1638
Descent: 410
sfntRevision: 0x00010000
LayerCount: 2
Layer: 0 1 "Back"  1
Layer: 1 1 "Fore"  0
XUID: [1021 288 713564382 9413208]
FSType: 0
OS2Version: 2
OS2_WeightWidthSlopeOnly: 0
OS2_UseTypoMetrics: 1
CreationTime: 1303459756
ModificationTime: 1303486012
PfmFamily: 81
TTFWeight: 400
TTFWidth: 5
LineGap: 0
VLineGap: 0
Panose: 0 0 0 0 0 0 0 0 0 0
OS2TypoAscent: 2360
OS2TypoAOffset: 0
OS2TypoDescent: -856
OS2TypoDOffset: 0
OS2TypoLinegap: 0
OS2WinAscent: 2360
OS2WinAOffset: 0
OS2WinDescent: 856
OS2WinDOffset: 0
HheadAscent: 2360
HheadAOffset: 0
HheadDescent: -856
HheadDOffset: 0
OS2SubXSize: 1434
OS2SubYSize: 1331
OS2SubXOff: 0
OS2SubYOff: 287
OS2SupXSize: 1434
OS2SupYSize: 1331
OS2SupXOff: 0
OS2SupYOff: 977
OS2StrikeYSize: 102
OS2StrikeYPos: 512
OS2Vendor: 'pyrs'
OS2CodePages: 00000001.00000000
OS2UnicodeRanges: 00000003.08000000.14000000.00000000
Lookup: 258 0 0 "'kern' Horizontal Kerning in Latin lookup 0"  {"'kern' Horizontal Kerning in Latin lookup 0 per glyph data 0"  "'kern' Horizontal Kerning in Latin lookup 0 kerning class 1"  } ['kern' ('latn' <'dflt' > ) ]
MarkAttachClasses: 1
DEI: 91125
KernClass2: 80+ 63 "'kern' Horizontal Kerning in Latin lookup 0 kerning class 1" 
 20 quotedbl quotesingle
 8 asterisk
 5 comma
 20 hyphen endash emdash
 6 period
 5 slash
 4 zero
 3 one
 4 four
 4 five
 5 seven
 5 eight
 4 nine
 9 backslash
 10 registered
 12 questiondown
 22 quoteleft quotedblleft
 24 quoteright quotedblright
 27 quotesinglbase quotedblbase
 27 guillemotleft guilsinglleft
 29 guillemotright guilsinglright
 9 trademark
 9 ampersand
 73 A Agrave Aacute Acircumflex Atilde Adieresis Aring Amacron Abreve Aogonek
 1 B
 47 C Ccedilla Cacute Ccircumflex Cdotaccent Ccaron
 19 D Eth Dcaron Dcroat

StartChar: exclam
Encoding: 33 33 4
Width: 625
Flags: MW
HStem: -32 414<255 379> 1394 20G<94 526 526 526>
VStem: 86 462<119.5 233.5>
LayerCount: 2
Fore
SplineSet
154.5 29.5 m 128,-1,1
 86 91 86 91 86 176.5 c 128,-1,2
 86 262 86 262 154.5 322 c 128,-1,3
 223 382 223 382 317 382 c 128,-1,4
 411 382 411 382 479.5 321.5 c 128,-1,5
 548 261 548 261 548 176.5 c 128,-1,6
 548 92 548 92 479 30 c 128,-1,7
 410 -32 410 -32 316.5 -32 c 128,-1,0
 223 -32 223 -32 154.5 29.5 c 128,-1,1
176 516 m 1,8,-1
 94 1096 l 1,9,-1
 94 1414 l 1,10,-1
 526 1414 l 1,11,-1
 526 1096 l 1,12,-1
 446 516 l 1,13,-1
 176 516 l 1,8,-1
EndSplineSet
EndChar

StartChar: quotedbl
Encoding: 34 34 5
Width: 792
Flags: MW
HStem: 1026 508<100 100 100 296 488 488 488 684>
LayerCount: 2
Fore
SplineSet
100 1026 m 1,0,-1
 60 1534 l 1,1,-1
 354 1534 l 1,2,-1
 296 1026 l 1,3,-1
 100 1026 l 1,0,-1
488 1026 m 1,4,-1
 446 1534 l 1,5,-1
 742 1534 l 1,6,-1
 684 1026 l 1,7,-1
 488 1026 l 1,4,-1
EndSplineSet
EndChar

StartChar: numbersign
Encoding: 35 35 6
Width: 1068
Flags: MW
HStem: 0 21G<90 90 90 268 464 464 464 642> 502 122<72 212 56 240 420 586 796 958> 776 126<110 278 94 308 490 652 866 996> 1356 20G<426 608 608 608 800 982 982 982>
LayerCount: 2
Fore
SplineSet
420 624 m 1,0,-1
 616 624 l 1,1,-1
 652 776 l 1,2,-1
 458 776 l 1,3,-1
 420 624 l 1,0,-1
90 0 m 1,4,-1
 212 502 l 1,5,-1
 56 502 l 1,6,-1
 72 624 l 1,7,-1
 240 624 l 1,8,-1
 278 776 l 1,9,-1
 94 776 l 1,10,-1
 110 902 l 1,11,-1
 308 902 l 1,12,-1
 426 1376 l 1,13,-1
 608 1376 l 1,14,-1
 490 902 l 1,15,-1
 684 902 l 1,16,-1
 800 1376 l 1,17,-1
 982 1376 l 1,18,-1
 866 902 l 1,19,-1
 1012 902 l 1,20,-1
 996 776 l 1,21,-1
 832 776 l 1,22,-1
 796 624 l 1,23,-1
 974 624 l 1,24,-1
 958 502 l 1,25,-1
 764 502 l 1,26,-1
 642 0 l 1,27,-1
 464 0 l 1,28,-1
 586 502 l 1,29,-1
 390 502 l 1,30,-1
 268 0 l 1,31,-1
 90 0 l 1,4,-1
EndSplineSet
EndChar

StartChar: dollar
Encoding: 36 36 7
Width: 1159
Flags: MW
HStem: -186 21G<470 676 470 470> 1556 20G<470 676 676 676>
VStem: 64 326<977.5 1023.5 977.5 1120> 470 206<-186 -30 -30 -30 290 474 894 1102 1102 1102 1410 1576> 768 340<359.5 402>
LayerCount: 2
Fore
SplineSet
676 474 m 1,0,-1
 676 290 l 1,1,2
 723 308 723 308 745.5 328.5 c 128,-1,3
 768 349 768 349 768 380.5 c 128,-1,4
 768 412 768 412 743.5 437.5 c 128,-1,5
 719 463 719 463 676 474 c 1,0,-1
470 894 m 1,6,-1
 470 1102 l 1,7,8
 390 1062 390 1062 390 998 c 0,9,10
 390 963 390 963 406.5 938 c 128,-1,11
 423 913 423 913 470 894 c 1,6,-1
84 88 m 1,12,-1
 186 334 l 1,13,14
 362 275 362 275 470 270 c 1,15,-1
 470 540 l 1,16,17
 210.17352614 599.959955506 210.17352614 599.959955506 118.5 756 c 0,18,19
 64 848.765957447 64 848.765957447 64 954.382978723 c 128,-1,20
 64 1060 64 1060 86 1128.5 c 128,-1,21
 108 1197 108 1197 145 1243.5 c 128,-1,22
 182 1290 182 1290 235 1324 c 0,23,24
 334.482200647 1387.81877023 334.482200647 1387.81877023 470 1404 c 1,25,-1
 470 1576 l 1,26,-1
 676 1576 l 1,27,-1
 676 1410 l 1,28,29
 860 1393 860 1393 1028 1290 c 1,30,-1
 924 1056 l 1,31,-1
 812 1092 l 2,32,33
 747 1113 747 1113 676 1124 c 1,34,-1
 676 836 l 1,35,36
 1049.70567686 710.267248908 1049.70567686 710.267248908 1098.5 474 c 0,37,38
 1108 428 1108 428 1108 374 c 0,39,40
 1108 225 1108 225 985.5 108.5 c 128,-1,41
 863 -8 863 -8 676 -20 c 1,42,-1
 676 -186 l 1,43,-1
 470 -186 l 1,44,-1
 470 -30 l 1,45,46
 230 -7 230 -7 84 88 c 1,12,-1
EndSplineSet
EndChar

StartChar: percent
Encoding: 37 37 8
Width: 1818
Flags: MW
HStem: -32 204<1357.5 1433.5 1357.5 1519.5> 0 21G<662 662 662 800> 562 208<1357.5 1433.5> 614 202<382 458.5 382 544> 1208 206<382 458.5> 1356 20G<998 1140 1140 1140>
VStem: 50 254<964.5 1063.5 964.5 1115.5> 540 254<964.5 1063.5> 1024 254<320 417.5 320 466.5> 1514 254<320 417.5>
LayerCount: 2
Fore
SplineSet
335 875 m 128,-1,1
 366 816 366 816 420.5 816 c 128,-1,2
 475 816 475 816 507.5 875.5 c 128,-1,3
 540 935 540 935 540 1014 c 128,-1,4
 540 1093 540 1093 507.5 1150.5 c 128,-1,5
 475 1208 475 1208 420.5 1208 c 128,-1,6
 366 1208 366 1208 335 1150.5 c 128,-1,7
 304 1093 304 1093 304 1013.5 c 128,-1,0
 304 934 304 934 335 875 c 128,-1,1
406 614 m 0,8,9
 302 614 302 614 216 672.5 c 0,10,11
 50 785.418604651 50 785.418604651 50 1014 c 0,12,13
 50 1171.61538462 50 1171.61538462 144.5 1290 c 0,14,15
 190 1347 190 1347 263 1380.5 c 128,-1,16
 336 1414 336 1414 424.5 1414 c 128,-1,17
 513 1414 513 1414 584.5 1379 c 128,-1,18
 656 1344 656 1344 701 1286.5 c 0,19,20
 794 1167.66666667 794 1167.66666667 794 1014 c 0,21,22
 794 855.131868132 794 855.131868132 700.5 738 c 0,23,24
 601.51754386 614 601.51754386 614 406 614 c 0,8,9
1309.5 231 m 128,-1,26
 1341 172 1341 172 1395 172 c 128,-1,27
 1449 172 1449 172 1481.5 231.5 c 128,-1,28
 1514 291 1514 291 1514 369 c 128,-1,29
 1514 447 1514 447 1482 504.5 c 128,-1,30
 1450 562 1450 562 1395.5 562 c 128,-1,31
 1341 562 1341 562 1309.5 504.5 c 128,-1,32
 1278 447 1278 447 1278 368.5 c 128,-1,25
 1278 290 1278 290 1309.5 231 c 128,-1,26
1557.5 2 m 128,-1,34
 1485 -32 1485 -32 1395.5 -32 c 128,-1,35
 1306 -32 1306 -32 1233.5 2 c 128,-1,36
 1161 36 1161 36 1116 93 c 0,37,38
 1024 209.533333333 1024 209.533333333 1024 368 c 0,39,40
 1024 523.666666667 1024 523.666666667 1117 642.5 c 0,41,42
 1162 700 1162 700 1234.5 735 c 128,-1,43
 1307 770 1307 770 1395.5 770 c 128,-1,44
 1484 770 1484 770 1556.5 735 c 128,-1,45
 1629 700 1629 700 1674 642.5 c 0,46,47
 1768 522.388888889 1768 522.388888889 1768 368 c 0,48,49
 1768 210.8 1768 210.8 1675 93 c 0,50,33
 1630 36 1630 36 1557.5 2 c 128,-1,34
662 0 m 1,51,-1
 998 1376 l 1,52,-1
 1140 1376 l 1,53,-1
 800 0 l 1,54,-1
 662 0 l 1,51,-1
EndSplineSet
EndChar

StartChar: ampersand
Encoding: 38 38 9
Width: 1375
Flags: MW
HStem: -32 302<504 575 504 588.5> 0 21G<963 963 963 1375> 1146 268<635 701>
VStem: 57 364<364 423.5 364 487> 199 364<1026 1084 1026 1160> 765 322<1018 1078>
LayerCount: 2
Fore
SplineSet
663 906 m 1,0,1
 721 932 721 932 743 965.5 c 128,-1,2
 765 999 765 999 765 1046 c 128,-1,3
 765 1093 765 1093 740 1119.5 c 128,-1,4
 715 1146 715 1146 669 1146 c 0,5,6
 563 1146 563 1146 563 1052 c 0,7,8
 563 986.392156863 563 986.392156863 663 906 c 1,0,1
667 314 m 1,9,-1
 499 528 l 1,10,11
 421 485 421 485 421 398 c 0,12,13
 421 344 421 344 454 307 c 128,-1,14
 487 270 487 270 555 270 c 128,-1,15
 623 270 623 270 667 314 c 1,9,-1
1305 504 m 1,16,17
 1234.28133705 365.777158774 1234.28133705 365.777158774 1133 278 c 1,18,-1
 1375 0 l 1,19,-1
 963 0 l 1,20,-1
 874 103 l 1,21,22
 803 45 803 45 709 6.5 c 128,-1,23
 615 -32 615 -32 503.5 -32 c 128,-1,24
 392 -32 392 -32 287.5 14 c 128,-1,25
 183 60 183 60 120 156 c 128,-1,26
 57 252 57 252 57 384 c 0,27,28
 57 533.926829268 57 533.926829268 140 623 c 0,29,30
 215.47336924 703.995810892 215.47336924 703.995810892 341 760 c 1,31,32
 199 917 199 917 199 1056 c 0,33,34
 199 1157 199 1157 264 1240 c 128,-1,35
 329 1323 329 1323 436 1368.5 c 128,-1,36
 543 1414 543 1414 655 1414 c 128,-1,37
 767 1414 767 1414 848.5 1384.5 c 128,-1,38
 930 1355 930 1355 981 1305 c 0,39,40
 1087 1201.07843137 1087 1201.07843137 1087 1075.53921569 c 128,-1,41
 1087 950 1087 950 1016.5 849 c 128,-1,42
 946 748 946 748 819 692 c 1,43,-1
 878.5 618.5 l 2,44,45
 921 566 921 566 957 524 c 1,46,-1
 1121 700 l 1,47,-1
 1305 504 l 1,16,17
EndSplineSet
EndChar

StartChar: quotesingle
Encoding: 39 39 10
Width: 406
Flags: MW
HStem: 1026 508<102 102 102 298>
LayerCount: 2
Fore
SplineSet
102 1026 m 1,0,-1
 60 1534 l 1,1,-1
 356 1534 l 1,2,-1
 298 1026 l 1,3,-1
 102 1026 l 1,0,-1
EndSplineSet
EndChar

StartChar: parenleft
Encoding: 40 40 11
Width: 855
Flags: MW
HStem: -264 21G<809 809> 1562 20G<809 809>
VStem: 41 456<425.5 894>
LayerCount: 2
Fore
SplineSet
809 -4 m 1,0,-1
 809 -264 l 1,1,2
 619 -246 619 -246 470.5 -166.5 c 128,-1,3
 322 -87 322 -87 229 39 c 0,4,5
 41 293.709677419 41 293.709677419 41 668 c 0,6,7
 41 1110 41 1110 306.5 1368 c 0,8,9
 495.941393897 1552.08994209 495.941393897 1552.08994209 809 1582 c 1,10,-1
 809 1322 l 1,11,12
 718.663900415 1306.9439834 718.663900415 1306.9439834 646 1228.5 c 0,13,14
 497 1067.64772727 497 1067.64772727 497 668 c 0,15,16
 497 260.022988506 497 260.022988506 643.5 95 c 0,17,18
 716.03297328 13.2961910176 716.03297328 13.2961910176 809 -4 c 1,0,-1
EndSplineSet
EndChar

StartChar: parenright
Encoding: 41 41 12
Width: 855
Flags: MW
HStem: -264 21G<46 46> 1562 20G<46 46>
VStem: 358 456<425.5 894 425.5 921>
LayerCount: 2
Fore
SplineSet
46 -264 m 1,0,-1
 46 -4 l 1,1,2
 136.246355251 11.4079143112 136.246355251 11.4079143112 208 90.5 c 0,3,4
 358 255.840909091 358 255.840909091 358 668 c 0,5,6
 358 1067.64772727 358 1067.64772727 209 1228.5 c 0,7,8
 136.336099585 1306.9439834 136.336099585 1306.9439834 46 1322 c 1,9,-1
 46 1582 l 1,10,11
 498.938675022 1538.7256043 498.938675022 1538.7256043 697.5 1169.5 c 0,12,13
 814 952.867768595 814 952.867768595 814 668 c 0,14,15
 814 293.709677419 814 293.709677419 626 39 c 0,16,17
 533 -87 533 -87 384.5 -166.5 c 128,-1,18
 236 -246 236 -246 46 -264 c 1,0,-1
EndSplineSet
EndChar

StartChar: asterisk
Encoding: 42 42 13
Width: 1096
Flags: MW
HStem: 474 21G<353 353 741 741> 1388 20G<429 677 677 677>
VStem: 440 224
LayerCount: 2
Fore
SplineSet
147 640 m 1,0,-1
 381 884 l 1,1,-1
 65 1022 l 1,2,-1
 175 1240 l 1,3,-1
 451 1074 l 1,4,-1
 429 1408 l 1,5,-1
 677 1408 l 1,6,-1
 651 1076 l 1,7,-1
 919 1244 l 1,8,-1
 1035 1022 l 1,9,-1
 715 884 l 1,10,-1
 949 638 l 1,11,-1
 741 474 l 1,12,-1
 545 770 l 1,13,-1
 353 474 l 1,14,-1
 147 640 l 1,0,-1
EndSplineSet
EndChar

StartChar: plus
Encoding: 43 43 14
Width: 1092
Flags: MW
HStem: 0 21G<488 488 488 608> 458 114<48 488 48 488 608 1044> 1006 20G<488 608 608 608>
VStem: 488 120<0 458 0 458 572 1026>
LayerCount: 2
Fore
SplineSet
488 0 m 1,0,-1
 488 458 l 1,1,-1
 48 458 l 1,2,-1
 48 572 l 1,3,-1
 488 572 l 1,4,-1
 488 1026 l 1,5,-1
 608 1026 l 1,6,-1
 608 572 l 1,7,-1
 1044 572 l 1,8,-1
 1044 458 l 1,9,-1
 608 458 l 1,10,-1
 608 0 l 1,11,-1
 488 0 l 1,0,-1
EndSplineSet
EndChar

StartChar: comma
Encoding: 44 44 15
Width: 604
Flags: MW
HStem: -346 240<94 190 94 303> 0 382<94 284 94 514>
VStem: 94 420<0 382 382 382> 284 230
LayerCount: 2
Fore
SplineSet
94 -346 m 1,0,-1
 94 -106 l 1,1,2
 157.5 -106 l 2,3,4
 181 -106 181 -106 204.5 -103 c 128,-1,5
 228 -100 228 -100 239 -99 c 128,-1,6
 250 -98 250 -98 261 -90 c 128,-1,7
 272 -82 272 -82 275 -78 c 128,-1,8
 278 -74 278 -74 281 -58.5 c 128,-1,9
 284 -43 284 -43 284 -33.5 c 2,10,-1
 284 0 l 1,11,-1
 94 0 l 1,12,-1
 94 382 l 1,13,-1
 514 382 l 1,14,15
 505.446713546 32.3844161885 505.446713546 32.3844161885 496.089026599 -55.7683833509 c 0,16,17
 479.36230127 -213.340192842 479.36230127 -213.340192842 424.24578468 -271.584660314 c 128,-1,18
 369.12926809 -329.829127785 369.12926809 -329.829127785 233.019001289 -341.406927132 c 0,19,20
 179.022179021 -346 179.022179021 -346 94 -346 c 1,0,-1
EndSplineSet
EndChar

StartChar: hyphen
Encoding: 45 45 16
Width: 740
Flags: MW
HStem: 408 242<95 645 95 645>
LayerCount: 2
Fore
SplineSet
95 408 m 1,0,-1
 95 650 l 1,1,-1
 645 650 l 1,2,-1
 645 408 l 1,3,-1
 95 408 l 1,0,-1
EndSplineSet
EndChar

StartChar: period
Encoding: 46 46 17
Width: 574
Flags: MW
HStem: -32 414<226 349>
VStem: 58 460<118 231>
LayerCount: 2
Fore
SplineSet
126 29 m 128,-1,1
 58 90 58 90 58 174.5 c 128,-1,2
 58 259 58 259 126.5 320.5 c 128,-1,3
 195 382 195 382 287.5 382 c 128,-1,4
 380 382 380 382 449 320 c 128,-1,5
 518 258 518 258 518 174 c 128,-1,6
 518 90 518 90 449.5 29 c 128,-1,7
 381 -32 381 -32 287.5 -32 c 128,-1,0
 194 -32 194 -32 126 29 c 128,-1,1
EndSplineSet
EndChar

StartChar: slash
Encoding: 47 47 18
Width: 658
Flags: MW
HStem: 0 21G<60 60 60 260> 1388 20G<396 600 600 600>
LayerCount: 2
Fore
SplineSet
60 0 m 1,0,-1
 396 1408 l 1,1,-1
 600 1408 l 1,2,-1
 260 0 l 1,3,-1
 60 0 l 1,0,-1
EndSplineSet
EndChar

StartChar: zero
Encoding: 48 48 19
Width: 1480
Flags: MW
HStem: -32 370<740 809.5 669.5 964> 1044 370<669.5 809.5>
VStem: 68 458<605.5 782 605.5 871> 952 460<605.5 782>
LayerCount: 2
Fore
SplineSet
623 391.5 m 128,-1,1
 673 338 673 338 739.5 338 c 128,-1,2
 806 338 806 338 856 391 c 0,3,4
 952 492.76 952 492.76 952 692 c 0,5,6
 952 836 952 836 895.5 940 c 128,-1,7
 839 1044 839 1044 739.5 1044 c 128,-1,8
 640 1044 640 1044 583 940.5 c 128,-1,9
 526 837 526 837 526 719.5 c 128,-1,10
 526 602 526 602 549.5 523.5 c 128,-1,0
 573 445 573 445 623 391.5 c 128,-1,1
981 8.5 m 0,11,12
 871.353658537 -31.506097561 871.353658537 -31.506097561 742.68002677 -31.506097561 c 0,13,14
 741.091463415 -31.506097561 741.091463415 -31.506097561 739.5 -31.5 c 0,15,16
 609 -31 609 -31 498.5 10 c 128,-1,17
 388 51 388 51 309.5 120 c 128,-1,18
 231 189 231 189 176 281.5 c 0,19,20
 68 463.136363636 68 463.136363636 68 692 c 0,21,22
 68 918 68 918 177.5 1100.5 c 0,23,24
 296.820069204 1299.36678201 296.820069204 1299.36678201 500 1373.5 c 0,25,26
 611 1414 611 1414 740 1414 c 128,-1,27
 869 1414 869 1414 980 1373.5 c 128,-1,28
 1091 1333 1091 1333 1169 1263.5 c 128,-1,29
 1247 1194 1247 1194 1302.5 1101.5 c 128,-1,30
 1358 1009 1358 1009 1385 905 c 128,-1,31
 1412 801 1412 801 1412 692 c 128,-1,32
 1412 583 1412 583 1385.5 478.5 c 128,-1,33
 1359 374 1359 374 1304 281.5 c 128,-1,34
 1249 189 1249 189 1170.5 119 c 128,-1,35
 1092 49 1092 49 981 8.5 c 0,11,12
EndSplineSet
EndChar

StartChar: one
Encoding: 49 49 20
Width: 926
Flags: MW
HStem: 0 302<88 260 88 260 700 872> 982 260 1356 20G<486 700 700 700>
VStem: 260 440<302 988 988 988>
LayerCount: 2
Fore
SplineSet
88 0 m 1,0,-1
 88 302 l 1,1,-1
 260 302 l 1,2,-1
 260 988 l 1,3,-1
 88 976 l 1,4,-1
 88 1242 l 1,5,6
 214 1242 214 1242 362 1308 c 0,7,8
 437 1342 437 1342 486 1376 c 1,9,-1
 700 1376 l 1,10,-1
 700 302 l 1,11,-1
 872 302 l 1,12,-1
 872 0 l 1,13,-1
 88 0 l 1,0,-1
EndSplineSet
EndChar

StartChar: two
Encoding: 50 50 21
Width: 1100
Flags: MW
HStem: 0 318<536 982 536 982> 1044 360<377.5 702>
VStem: 574 450<889.5 978>
LayerCount: 2
Fore
SplineSet
82 302 m 1,0,1
 574 764.830039526 574 764.830039526 574 940 c 0,2,3
 574 992 574 992 528 1018 c 128,-1,4
 482 1044 482 1044 439.5 1044 c 128,-1,5
 397 1044 397 1044 367.5 1038 c 128,-1,6
 338 1032 338 1032 306.5 1020.5 c 128,-1,7
 275 1009 275 1009 254 1000.5 c 128,-1,8
 233 992 233 992 202 978 c 128,-1,9
 171 964 171 964 166 962 c 1,10,-1
 56 1286 l 1,11,12
 346 1404 346 1404 558 1404 c 128,-1,13
 770 1404 770 1404 897 1277 c 128,-1,14
 1024 1150 1024 1150 1024 942 c 0,15,16
 1024 685.528735632 1024 685.528735632 735 453 c 0,17,18
 648 383 648 383 536 318 c 1,19,-1
 982 318 l 1,20,-1
 982 0 l 1,21,-1
 82 0 l 1,22,-1
 82 302 l 1,0,1
EndSplineSet
EndChar

StartChar: three
Encoding: 51 51 22
Width: 1071
Flags: MW
HStem: -32 324<431 491.5 381 634> 580 254<226 324.5> 1068 338<446.5 494>
VStem: 587 355<1002.5 1014> 587 417
LayerCount: 2
Fore
SplineSet
60 1296 m 1,0,1
 291 1406 291 1406 522 1406 c 0,2,3
 643 1406 643 1406 741 1356.5 c 128,-1,4
 839 1307 839 1307 890.5 1231 c 128,-1,5
 942 1155 942 1155 942 1072 c 0,6,7
 942 863 942 863 748 738 c 1,8,9
 819 708 819 708 871 662 c 128,-1,10
 923 616 923 616 947.5 575.5 c 128,-1,11
 972 535 972 535 986 486 c 0,12,13
 1004 423 1004 423 1004 347 c 128,-1,14
 1004 271 1004 271 963 194.5 c 128,-1,15
 922 118 922 118 852 69 c 0,16,17
 707.57895792 -32.094729456 707.57895792 -32.094729456 502.171589468 -32.094729456 c 0,18,19
 308.261032279 -32.094729456 308.261032279 -32.094729456 60 58 c 1,20,-1
 130 358 l 1,21,22
 294 292 294 292 407 292 c 128,-1,23
 520 292 520 292 559.5 320.5 c 128,-1,24
 599 349 599 349 599 404.5 c 128,-1,25
 599 460 599 460 569.5 495 c 128,-1,26
 540 530 540 530 485 548 c 0,27,28
 387.222222222 580 387.222222222 580 226 580 c 1,29,-1
 226 834 l 1,30,31
 415 834 415 834 501 874.5 c 128,-1,32
 587 915 587 915 587 972.5 c 128,-1,33
 587 1030 587 1030 554 1049 c 128,-1,34
 521 1068 521 1068 425 1068 c 128,-1,35
 329 1068 329 1068 130 1008 c 1,36,-1
 60 1296 l 1,0,1
EndSplineSet
EndChar

StartChar: four
Encoding: 52 52 23
Width: 1320
Flags: MW
HStem: 0 21G<614 1080 614 614> 328 294<36 36 354 614> 1356 20G<594 1080 1080 1080>
VStem: 614 466<0 326 0 328 0 328 622 1006 1006 1006>
LayerCount: 2
Fore
SplineSet
354 622 m 1,0,-1
 614 622 l 1,1,-1
 614 1006 l 1,2,-1
 354 622 l 1,0,-1
36 328 m 1,3,-1
 36 622 l 1,4,-1
 594 1376 l 1,5,-1
 1080 1376 l 1,6,-1
 1080 622 l 1,7,-1
 1256 622 l 1,8,-1
 1256 326 l 1,9,-1
 1080 326 l 1,10,-1
 1080 0 l 1,11,-1
 614 0 l 1,12,-1
 614 328 l 1,13,-1
 36 328 l 1,3,-1
EndSplineSet
EndChar

StartChar: five
Encoding: 53 53 24
Width: 1116
Flags: MW
HStem: -32 324<441.5 539.5 441.5 643.5> 600 318<485 785> 1072 304<428 922 428 428>
VStem: 643 417<413.5 490.5>
LayerCount: 2
Fore
SplineSet
124 358 m 1,0,1
 306.769230769 292 306.769230769 292 487 292 c 0,2,3
 561 292 561 292 602 340 c 128,-1,4
 643 388 643 388 643 450.5 c 128,-1,5
 643 513 643 513 608 556.5 c 128,-1,6
 573 600 573 600 502 600 c 128,-1,7
 431 600 431 600 308 516 c 1,8,-1
 88 612 l 1,9,-1
 142 1376 l 1,10,-1
 952 1376 l 1,11,-1
 922 1072 l 1,12,-1
 428 1072 l 1,13,-1
 404 872 l 1,14,15
 549 918 549 918 633.5 918 c 128,-1,16
 718 918 718 918 793 888.5 c 128,-1,17
 868 859 868 859 916.5 811.5 c 128,-1,18
 965 764 965 764 998.5 702 c 0,19,20
 1060 588.179104478 1060 588.179104478 1060 445.589552239 c 128,-1,21
 1060 303 1060 303 980 191 c 128,-1,22
 900 79 900 79 773 23.5 c 128,-1,23
 646 -32 646 -32 480.5 -32 c 128,-1,24
 315 -32 315 -32 96 58 c 1,25,-1
 124 358 l 1,0,1
EndSplineSet
EndChar

StartChar: six
Encoding: 54 54 25
Width: 1363
Flags: MW
HStem: -32 334<654 756.5 654 870> 574 308<762 772> 1056 358<731.5 822.5 552 844>
VStem: 872 428<410.5 476>
LayerCount: 2
Fore
SplineSet
536 544 m 1,0,1
 567 302 567 302 700 302 c 0,2,3
 780 302 780 302 826 345 c 128,-1,4
 872 388 872 388 872 442 c 128,-1,5
 872 496 872 496 832.5 535 c 128,-1,6
 793 574 793 574 702.5 574 c 128,-1,7
 612 574 612 574 536 544 c 1,0,1
1242 1266 m 1,8,-1
 1132 962 l 1,9,10
 922 1056 922 1056 807.5 1056 c 128,-1,11
 693 1056 693 1056 626.5 991 c 128,-1,12
 560 926 560 926 534 770 c 1,13,14
 662 882 662 882 824 882 c 0,15,16
 1174.83443709 882 1174.83443709 882 1273 607.5 c 0,17,18
 1300 532 1300 532 1300 435 c 128,-1,19
 1300 338 1300 338 1251 246.5 c 128,-1,20
 1202 155 1202 155 1121 95 c 0,21,22
 949.55 -32 949.55 -32 724 -32 c 1,23,24
 513.813084112 -32 513.813084112 -32 353.5 69.5 c 0,25,26
 70 248.99408284 70 248.99408284 70 650 c 0,27,28
 70 816 70 816 122 959 c 128,-1,29
 174 1102 174 1102 263.5 1201.5 c 128,-1,30
 353 1301 353 1301 477 1357.5 c 128,-1,31
 601 1414 601 1414 742 1414 c 0,32,33
 990 1414 990 1414 1242 1266 c 1,8,-1
EndSplineSet
EndChar

StartChar: seven
Encoding: 55 55 26
Width: 955
Flags: MW
HStem: -34 21G<478 478> 1078 298<54 492 54 912>
LayerCount: 2
Fore
SplineSet
98 122 m 1,0,-1
 492 1078 l 1,1,-1
 54 1078 l 1,2,-1
 54 1376 l 1,3,-1
 912 1376 l 1,4,-1
 912 1038 l 1,5,-1
 478 -34 l 1,6,-1
 98 122 l 1,0,-1
EndSplineSet
EndChar

StartChar: eight
Encoding: 56 56 27
Width: 1304
Flags: MW
HStem: -32 294<598 711 598 825> 1162 252<592.5 712.5>
VStem: 61 438 163 336<1017 1084 1017 1162> 801 336<1000 1051.5> 827 414<338 413.5>
LayerCount: 2
Fore
SplineSet
741 878 m 1,0,1
 801 933 801 933 801 1020 c 0,2,3
 801 1100.22857143 801 1100.22857143 744 1138.5 c 0,4,5
 709 1162 709 1162 639.5 1162 c 128,-1,6
 570 1162 570 1162 534.5 1132.5 c 128,-1,7
 499 1103 499 1103 499 1066 c 128,-1,8
 499 1029 499 1029 516.5 1002.5 c 128,-1,9
 534 976 534 976 570 954 c 0,10,11
 633.971223022 914.90647482 633.971223022 914.90647482 741 878 c 1,0,1
547 568 m 1,12,13
 483 504 483 504 483 406 c 0,14,15
 483 347 483 347 528.5 304.5 c 128,-1,16
 574 262 574 262 654.5 262 c 128,-1,17
 735 262 735 262 781 292 c 128,-1,18
 827 322 827 322 827 359.5 c 128,-1,19
 827 397 827 397 808 425 c 128,-1,20
 789 453 789 453 750 476.5 c 0,21,22
 691.829741835 511.551309407 691.829741835 511.551309407 623.914870918 537.775654704 c 128,-1,23
 556 564 556 564 547 568 c 1,12,13
315 702 m 1,24,25
 163 826 163 826 163 1032 c 0,26,27
 163 1250.17460317 163 1250.17460317 374 1354 c 0,28,29
 495.935483871 1414 495.935483871 1414 651 1414 c 0,30,31
 842.925925926 1414 842.925925926 1414 984.5 1331.5 c 0,32,33
 1054 1291 1054 1291 1095.5 1224 c 128,-1,34
 1137 1157 1137 1157 1137 1072 c 0,35,36
 1137 886 1137 886 971 798 c 1,37,38
 1241 658.5 1241 658.5 1241 406 c 0,39,40
 1241 196 1241 196 1080 82 c 128,-1,41
 919 -32 919 -32 653 -32 c 0,42,43
 293.623036649 -32 293.623036649 -32 139.5 155.5 c 0,44,45
 61 251 61 251 61 379 c 128,-1,46
 61 507 61 507 127.5 579.5 c 128,-1,47
 194 652 194 652 315 702 c 1,24,25
EndSplineSet
EndChar

StartChar: nine
Encoding: 57 57 28
Width: 1361
Flags: MW
HStem: -32 360<540.5 633.5 519 809> 502 286<591 617.5> 1080 334<602.5 707>
VStem: 62 427<902 972.5 902 1058>
LayerCount: 2
Fore
SplineSet
825 818 m 1,0,1
 795 1080 795 1080 661 1080 c 0,2,3
 579 1080 579 1080 534 1037.5 c 128,-1,4
 489 995 489 995 489 937 c 128,-1,5
 489 879 489 879 529.5 833.5 c 128,-1,6
 570 788 570 788 657 788 c 128,-1,7
 744 788 744 788 825 818 c 1,0,1
121 118 m 1,8,-1
 229 422 l 1,9,10
 439 328 439 328 555.5 328 c 128,-1,11
 672 328 672 328 738 390 c 128,-1,12
 804 452 804 452 827 594 c 1,13,14
 715 502 715 502 572 502 c 128,-1,15
 429 502 429 502 330 538.5 c 128,-1,16
 231 575 231 575 174 638 c 0,17,18
 62 761.789473684 62 761.789473684 62 938 c 0,19,20
 62 1127.6875 62 1127.6875 209 1265.5 c 0,21,22
 281 1333 281 1333 398 1373.5 c 128,-1,23
 515 1414 515 1414 663.5 1414 c 128,-1,24
 812 1414 812 1414 934 1356 c 128,-1,25
 1056 1298 1056 1298 1133 1198 c 0,26,27
 1291 992.805194805 1291 992.805194805 1291 692 c 0,28,29
 1291 528 1291 528 1239 390.5 c 128,-1,30
 1187 253 1187 253 1097 161 c 0,31,32
 908.195652174 -32 908.195652174 -32 621 -32 c 0,33,34
 375 -32 375 -32 121 118 c 1,8,-1
EndSplineSet
EndChar

StartChar: colon
Encoding: 58 58 29
Width: 634
Flags: MW
HStem: 0 414<256 380> 614 414<256 380>
VStem: 87 460<148.5 261.5 762.5 875.5>
LayerCount: 2
Fore
SplineSet
155.5 674 m 128,-1,1
 87 734 87 734 87 819 c 128,-1,2
 87 904 87 904 156 966 c 128,-1,3
 225 1028 225 1028 317.5 1028 c 128,-1,4
 410 1028 410 1028 478.5 965.5 c 128,-1,5
 547 903 547 903 547 819 c 128,-1,6
 547 735 547 735 479 674.5 c 128,-1,7
 411 614 411 614 317.5 614 c 128,-1,0
 224 614 224 614 155.5 674 c 128,-1,1
155.5 60 m 128,-1,9
 87 120 87 120 87 205 c 128,-1,10
 87 290 87 290 156 352 c 128,-1,11
 225 414 225 414 317.5 414 c 128,-1,12
 410 414 410 414 478.5 351.5 c 128,-1,13
 547 289 547 289 547 205 c 128,-1,14
 547 121 547 121 479 60.5 c 128,-1,15
 411 0 411 0 317.5 0 c 128,-1,8
 224 0 224 0 155.5 60 c 128,-1,9
EndSplineSet
EndChar

StartChar: semicolon
Encoding: 59 59 30
Width: 612
Flags: MW
HStem: -346 240<104 200 104 313> 0 382<104 296 104 524> 614 414<247 371>
VStem: 78 446<382 875.5> 104 420<0 382 382 382> 296 228
LayerCount: 2
Fore
SplineSet
146.5 674 m 128,-1,1
 78 734 78 734 78 819 c 128,-1,2
 78 904 78 904 147 966 c 128,-1,3
 216 1028 216 1028 308.5 1028 c 128,-1,4
 401 1028 401 1028 469.5 965.5 c 128,-1,5
 538 903 538 903 538 819 c 128,-1,6
 538 735 538 735 470 674.5 c 128,-1,7
 402 614 402 614 308.5 614 c 128,-1,0
 215 614 215 614 146.5 674 c 128,-1,1
104 -346 m 1,8,-1
 104 -106 l 1,9,10
 240.625 -106 240.625 -106 260.8125 -96.5 c 128,-1,11
 281 -87 281 -87 288 -71.5 c 0,12,13
 296 -53.7857142857 296 -53.7857142857 296 0 c 1,14,-1
 104 0 l 1,15,-1
 104 382 l 1,16,-1
 524 382 l 1,17,18
 515.446713546 32.3844161885 515.446713546 32.3844161885 506.089026599 -55.7683833509 c 0,19,20
 489.36230127 -213.340192842 489.36230127 -213.340192842 434.24578468 -271.584660314 c 128,-1,21
 379.12926809 -329.829127785 379.12926809 -329.829127785 243.019001289 -341.406927132 c 0,22,23
 189.022179021 -346 189.022179021 -346 104 -346 c 1,8,-1
EndSplineSet
EndChar

StartChar: less
Encoding: 60 60 31
Width: 938
Flags: MW
HStem: 0 21G<835 835> 1212 20G<835 835>
LayerCount: 2
Fore
SplineSet
55 456 m 1,0,-1
 55 804 l 1,1,-1
 835 1232 l 1,2,-1
 835 924 l 1,3,-1
 227 620 l 1,4,-1
 835 332 l 1,5,-1
 835 0 l 1,6,-1
 55 456 l 1,0,-1
EndSplineSet
EndChar

StartChar: equal
Encoding: 61 61 32
Width: 838
Flags: MW
HStem: 318 124<107 731 107 731> 594 126<107 731 107 731>
LayerCount: 2
Fore
SplineSet
107 594 m 1,0,-1
 107 720 l 1,1,-1
 731 720 l 1,2,-1
 731 594 l 1,3,-1
 107 594 l 1,0,-1
107 318 m 1,4,-1
 107 442 l 1,5,-1
 731 442 l 1,6,-1
 731 318 l 1,7,-1
 107 318 l 1,4,-1
EndSplineSet
EndChar

StartChar: greater
Encoding: 62 62 33
Width: 938
Flags: MW
HStem: 0 21G<103 103> 1212 20G<103 103>
LayerCount: 2
Fore
SplineSet
103 0 m 1,0,-1
 103 332 l 1,1,-1
 711 620 l 1,2,-1
 103 924 l 1,3,-1
 103 1232 l 1,4,-1
 883 804 l 1,5,-1
 883 456 l 1,6,-1
 103 0 l 1,0,-1
EndSplineSet
EndChar

StartChar: question
Encoding: 63 63 34
Width: 1035
Flags: MW
HStem: -32 414<318 441> 1092 348<324 621>
VStem: 148 462<118 231> 204 324<654 656 582 804.5> 534 452<982.5 1054>
LayerCount: 2
Fore
SplineSet
217 29 m 128,-1,1
 148 90 148 90 148 174.5 c 128,-1,2
 148 259 148 259 217.5 320.5 c 128,-1,3
 287 382 287 382 379.5 382 c 128,-1,4
 472 382 472 382 541 320 c 128,-1,5
 610 258 610 258 610 174 c 128,-1,6
 610 90 610 90 541.5 29 c 128,-1,7
 473 -32 473 -32 379.5 -32 c 128,-1,0
 286 -32 286 -32 217 29 c 128,-1,1
534 1026 m 0,8,9
 534 1092 534 1092 372 1092 c 0,10,11
 306 1092 306 1092 224.5 1074 c 128,-1,12
 143 1056 143 1056 106 1038 c 1,13,-1
 78 1350 l 1,14,15
 297 1440 297 1440 490 1440 c 0,16,17
 692.127659574 1440 692.127659574 1440 836 1342 c 0,18,19
 905 1295 905 1295 945.5 1221.5 c 128,-1,20
 986 1148 986 1148 986 1068 c 128,-1,21
 986 988 986 988 960.5 931 c 128,-1,22
 935 874 935 874 895 837.5 c 128,-1,23
 855 801 855 801 806 772 c 128,-1,24
 757 743 757 743 708 721.5 c 128,-1,25
 659 700 659 700 619 681 c 0,26,27
 528 637.775 528 637.775 528 588 c 1,28,29
 526 546 l 1,30,-1
 526 520 l 1,31,-1
 240 520 l 1,32,33
 204 640 204 640 204 694.5 c 128,-1,34
 204 749 204 749 238 802 c 128,-1,35
 272 855 272 855 320.5 885 c 128,-1,36
 369 915 369 915 417.5 937.5 c 128,-1,37
 466 960 466 960 500 981.5 c 128,-1,38
 534 1003 534 1003 534 1026 c 0,8,9
EndSplineSet
EndChar

StartChar: at
Encoding: 64 64 35
Width: 1769
Flags: MW
HStem: -32 245<706 969.5 706 996> 379 202 379 228<838 854> 902 209<838 859.5 726 876 726 1012> 1277 239<714.5 1092>
VStem: 63 258<605.5 871.5 605.5 930.5> 467 270<707.5 787.5 707.5 859> 1012 249<739 902 902 902> 1456 260<771.5 980.5>
LayerCount: 2
Fore
SplineSet
1012 739 m 2,0,-1
 1012 902 l 1,1,-1
 876 902 l 2,2,3
 819 902 819 902 778 855.5 c 128,-1,4
 737 809 737 809 737 749 c 128,-1,5
 737 689 737 689 778 648 c 128,-1,6
 819 607 819 607 874.5 607 c 128,-1,7
 930 607 930 607 971 646.5 c 128,-1,8
 1012 686 1012 686 1012 739 c 2,0,-1
1456 835 m 0,9,10
 1456 1277 1456 1277 910 1277 c 0,11,12
 580.97826087 1277 580.97826087 1277 416.5 1043 c 0,13,14
 321 907.134020619 321 907.134020619 321 737 c 0,15,16
 321 530.323741007 321 530.323741007 464.5 376.5 c 0,17,18
 534 302 534 302 647 257.5 c 128,-1,19
 760 213 760 213 900 213 c 0,20,21
 1123 213 1123 213 1310 307 c 1,22,-1
 1430 103 l 1,23,24
 1199 -32 1199 -32 900 -32 c 0,25,26
 737 -32 737 -32 598.5 11 c 128,-1,27
 460 54 460 54 363 127.5 c 128,-1,28
 266 201 266 201 197 299.5 c 0,29,30
 63 490.789855072 63 490.789855072 63 736 c 0,31,32
 63 983.079136691 63 983.079136691 199.5 1178.5 c 0,33,34
 347.996465615 1391.09565941 347.996465615 1391.09565941 604.5 1472 c 0,35,36
 744 1516 744 1516 914.5 1516 c 128,-1,37
 1085 1516 1085 1516 1231.5 1472.5 c 128,-1,38
 1378 1429 1378 1429 1486.5 1346 c 128,-1,39
 1595 1263 1595 1263 1655.5 1133 c 128,-1,40
 1716 1003 1716 1003 1716 813.5 c 128,-1,41
 1716 624 1716 624 1622.5 500.5 c 128,-1,42
 1529 377 1529 377 1362 377 c 0,43,44
 1145 377 1145 377 1052 528 c 1,45,46
 1014 454 1014 454 948.5 416.5 c 128,-1,47
 883 379 883 379 812.5 379 c 128,-1,48
 742 379 742 379 681.5 406 c 128,-1,49
 621 433 621 433 573.5 480 c 128,-1,50
 526 527 526 527 496.5 598 c 128,-1,51
 467 669 467 669 467 749 c 128,-1,52
 467 829 467 829 497.5 898 c 128,-1,53
 528 967 528 967 576.5 1012.5 c 0,54,55
 681.494505495 1111 681.494505495 1111 806 1111 c 0,56,57
 1016 1111 1016 1111 1261 1091 c 1,58,-1
 1261 622 l 1,59,60
 1301 581 1301 581 1336 581 c 0,61,62
 1395 581 1395 581 1425.5 655.5 c 128,-1,63
 1456 730 1456 730 1456 835 c 0,9,10
EndSplineSet
EndChar

StartChar: A
Encoding: 65 65 36
Width: 1431
Flags: MW
HStem: 0 21G<10 10 10 472 948 948 948 1430> 270 252<574 846 574 894 530 846> 1388 20G<400 1022 1022 1022>
LayerCount: 2
Fore
SplineSet
574 522 m 1,0,-1
 846 522 l 1,1,-1
 712 1138 l 1,2,-1
 574 522 l 1,0,-1
10 0 m 1,3,-1
 400 1408 l 1,4,-1
 1022 1408 l 1,5,-1
 1430 0 l 1,6,-1
 948 0 l 1,7,-1
 894 270 l 1,8,-1
 530 270 l 1,9,-1
 472 0 l 1,10,-1
 10 0 l 1,3,-1
EndSplineSet
EndChar

StartChar: B
Encoding: 66 66 37
Width: 1476
Flags: MW
HStem: -32 328<707.5 790 790 850 675 1024.5> 626 226<588 752 590 752 752 764> 1136 272<590 756 590 590>
VStem: 134 454<297 626 297 1408> 936 426<1014 1022> 976 450<416.5 484.5 320 504>
LayerCount: 2
Fore
SplineSet
590 852 m 1,0,-1
 752 852 l 2,1,2
 840 852 840 852 888 894 c 128,-1,3
 936 936 936 936 936 992 c 0,4,5
 936 1136 936 1136 756 1136 c 2,6,-1
 590 1136 l 1,7,-1
 590 852 l 1,0,-1
588 626 m 1,8,-1
 588 297 l 1,9,10
 619 296 619 296 675 296 c 2,11,-1
 790 296 l 2,12,13
 875 296 875 296 925.5 344 c 128,-1,14
 976 392 976 392 976 461.5 c 128,-1,15
 976 531 976 531 920.5 578.5 c 128,-1,16
 865 626 865 626 764 626 c 2,17,-1
 588 626 l 1,8,-1
134 -2 m 1,18,-1
 134 1408 l 1,19,-1
 838 1408 l 2,20,21
 1090.54736842 1408 1090.54736842 1408 1230 1304.5 c 0,22,23
 1362 1206.53125 1362 1206.53125 1362 1066 c 0,24,25
 1362 919.638297872 1362 919.638297872 1281.5 834 c 0,26,27
 1230.86352106 780.131405378 1230.86352106 780.131405378 1138 766 c 1,28,29
 1331.58903236 746.913757373 1331.58903236 746.913757373 1395.5 588 c 0,30,31
 1426 512.162162162 1426 512.162162162 1426 428.581081081 c 128,-1,32
 1426 345 1426 345 1386.5 264.5 c 128,-1,33
 1347 184 1347 184 1274.5 117 c 128,-1,34
 1202 50 1202 50 1086 9 c 128,-1,35
 970 -32 970 -32 830 -32 c 0,36,37
 590 -32 590 -32 134 -2 c 1,18,-1
EndSplineSet
EndChar

StartChar: C
Encoding: 67 67 38
Width: 1237
Flags: MW
HStem: -32 370<776 863.5> 1075 364<764.5 851.5 594 907>
VStem: 63 460<705 835 581 929.5>
LayerCount: 2
Fore
SplineSet
1129 396 m 1,0,-1
 1185 71 l 1,1,2
 1006 -32 1006 -32 797 -32 c 0,3,4
 653 -32 653 -32 521 20.5 c 128,-1,5
 389 73 389 73 287.5 167 c 128,-1,6
 186 261 186 261 125 401 c 128,-1,7
 64 541 64 541 63 705 c 0,8,9
 63 869 63 869 122 1008.5 c 128,-1,10
 181 1148 181 1148 280.5 1241 c 128,-1,11
 380 1334 380 1334 511 1386.5 c 128,-1,12
 642 1439 642 1439 785 1439 c 0,13,14
 1004 1439 1004 1439 1183 1337 c 1,15,-1
 1129 1019 l 1,16,17
 984 1075 984 1075 846 1075 c 0,18,19
 708 1075 708 1075 615.5 983 c 128,-1,20
 523 891 523 891 523 708.5 c 0,21,22
 523 526 523 526 620.5 432 c 128,-1,23
 718 338 718 338 875 338 c 0,24,25
 981 338 981 338 1129 396 c 1,0,-1
EndSplineSet
EndChar

StartChar: D
Encoding: 68 68 39
Width: 1565
Flags: MW
HStem: 0 368<586 746 586 746> 1040 368<586 746 586 586>
VStem: 134 452<368 368 368 1040> 1040 460<636.5 797>
LayerCount: 2
Fore
SplineSet
586 368 m 1,0,-1
 746 368 l 2,1,2
 839 368 839 368 908 422.5 c 0,3,4
 1040 526.760869565 1040 526.760869565 1040 718 c 0,5,6
 1040 899.102189781 1040 899.102189781 909.5 991.5 c 0,7,8
 841 1040 841 1040 746 1040 c 2,9,-1
 586 1040 l 1,10,-1
 586 368 l 1,0,-1
134 0 m 1,11,-1
 134 1408 l 1,12,-1
 746 1408 l 2,13,14
 1171.28248588 1408 1171.28248588 1408 1379 1111.5 c 0,15,16
 1500 938.782258065 1500 938.782258065 1500 714 c 0,17,18
 1500 414.322580645 1500 414.322580645 1308 212 c 0,19,20
 1215 114 1215 114 1070 57 c 128,-1,21
 925 0 925 0 746 0 c 2,22,-1
 134 0 l 1,11,-1
EndSplineSet
EndChar

StartChar: E
Encoding: 69 69 40
Width: 1218
Flags: MW
HStem: 0 308<630 1122 630 1122> 584 258<630 1080 630 1080> 1098 310<630 1122 630 630>
VStem: 134 496<308 584 842 1098>
LayerCount: 2
Fore
SplineSet
134 0 m 1,0,-1
 134 1408 l 1,1,-1
 1122 1408 l 1,2,-1
 1122 1098 l 1,3,-1
 630 1098 l 1,4,-1
 630 842 l 1,5,-1
 1080 842 l 1,6,-1
 1080 584 l 1,7,-1
 630 584 l 1,8,-1
 630 308 l 1,9,-1
 1122 308 l 1,10,-1
 1122 0 l 1,11,-1
 134 0 l 1,0,-1
EndSplineSet
EndChar

StartChar: F
Encoding: 70 70 41
Width: 1168
Flags: MW
HStem: 0 21G<134 134 134 574> 554 260<574 1064 574 1064> 1098 310<574 1104 574 574>
VStem: 134 440<0 554 814 1098>
LayerCount: 2
Fore
SplineSet
134 0 m 1,0,-1
 134 1408 l 1,1,-1
 1104 1408 l 1,2,-1
 1104 1098 l 1,3,-1
 574 1098 l 1,4,-1
 574 814 l 1,5,-1
 1064 814 l 1,6,-1
 1064 554 l 1,7,-1
 574 554 l 1,8,-1
 574 0 l 1,9,-1
 134 0 l 1,0,-1
EndSplineSet
EndChar

StartChar: G
Encoding: 71 71 42
Width: 1349
Flags: MW
HStem: -32 368<726.5 837.5 726.5 849.5> 1078 362<722 845.5 578 867>
VStem: 61 456<618.5 799.5 618.5 918.5> 907 354<342 674 674 674>
LayerCount: 2
Fore
SplineSet
907 342 m 1,0,-1
 907 674 l 1,1,-1
 1261 714 l 1,2,-1
 1261 74 l 1,3,4
 1020 -32 1020 -32 769 -32 c 0,5,6
 576 -32 576 -32 413.5 67.5 c 128,-1,7
 251 167 251 167 156 339.5 c 128,-1,8
 61 512 61 512 61 716 c 0,9,10
 61 865 61 865 118.5 999.5 c 128,-1,11
 176 1134 176 1134 272 1230.5 c 128,-1,12
 368 1327 368 1327 497.5 1383.5 c 128,-1,13
 627 1440 627 1440 767 1440 c 0,14,15
 1030 1440 1030 1440 1241 1338 c 1,16,-1
 1105 1020 l 1,17,18
 925 1078 925 1078 845 1078 c 128,-1,19
 765 1078 765 1078 714 1057 c 128,-1,20
 663 1036 663 1036 627.5 1000 c 128,-1,21
 592 964 592 964 566.5 916.5 c 0,22,23
 517 824.294117647 517 824.294117647 517 720.147058824 c 128,-1,24
 517 616 517 616 552 532 c 128,-1,25
 587 448 587 448 659 392 c 128,-1,26
 731 336 731 336 825 336 c 0,27,28
 862 336 862 336 907 342 c 1,0,-1
EndSplineSet
EndChar

StartChar: H
Encoding: 72 72 43
Width: 1626
Flags: MW
HStem: 0 21G<134 134 134 594 1030 1030 1030 1492> 552 296<594 1030 594 1030> 1388 20G<134 594 594 594 1030 1492 1492 1492>
VStem: 134 460<0 552 848 1408> 1030 462<0 552 552 552 848 1408 0 1408>
LayerCount: 2
Fore
SplineSet
134 0 m 1,0,-1
 134 1408 l 1,1,-1
 594 1408 l 1,2,-1
 594 848 l 1,3,-1
 1030 848 l 1,4,-1
 1030 1408 l 1,5,-1
 1492 1408 l 1,6,-1
 1492 0 l 1,7,-1
 1030 0 l 1,8,-1
 1030 552 l 1,9,-1
 594 552 l 1,10,-1
 594 0 l 1,11,-1
 134 0 l 1,0,-1
EndSplineSet
EndChar

StartChar: I
Encoding: 73 73 44
Width: 740
Flags: MW
HStem: 0 21G<134 134 134 606> 1388 20G<134 606 606 606>
VStem: 134 472<0 1408 0 1408>
LayerCount: 2
Fore
SplineSet
134 0 m 1,0,-1
 134 1408 l 1,1,-1
 606 1408 l 1,2,-1
 606 0 l 1,3,-1
 134 0 l 1,0,-1
EndSplineSet
EndChar

StartChar: J
Encoding: 74 74 45
Width: 934
Flags: MW
HStem: -92 334<210.5 468> 1388 20G<370 810 810 810>
VStem: 370 440<412 1408>
LayerCount: 2
Fore
SplineSet
-2 16 m 1,0,-1
 94 270 l 1,1,2
 178 242 178 242 234 242 c 0,3,4
 370 242 370 242 370 412 c 2,5,-1
 370 1408 l 1,6,-1
 810 1408 l 1,7,-1
 810 412 l 2,8,9
 810 150.363636364 810 150.363636364 668 24.5 c 0,10,11
 536.564102564 -92 536.564102564 -92 348.282051282 -92 c 128,-1,12
 160 -92 160 -92 -2 16 c 1,0,-1
EndSplineSet
EndChar

StartChar: K
Encoding: 75 75 46
Width: 1570
Flags: MW
HStem: 0 21G<134 134 134 608 1050 1050 1050 1548> 560 274<608 748 608 756> 1388 20G<134 608 608 608 1028 1502 1502 1502>
VStem: 134 474<0 560 834 1408>
LayerCount: 2
Fore
SplineSet
134 0 m 1,0,-1
 134 1408 l 1,1,-1
 608 1408 l 1,2,-1
 608 834 l 1,3,-1
 756 834 l 1,4,-1
 1028 1408 l 1,5,-1
 1502 1408 l 1,6,-1
 1502 1316 l 1,7,-1
 1178 710 l 1,8,-1
 1548 92 l 1,9,-1
 1548 0 l 1,10,-1
 1050 0 l 1,11,-1
 748 560 l 1,12,-1
 608 560 l 1,13,-1
 608 0 l 1,14,-1
 134 0 l 1,0,-1
EndSplineSet
EndChar

StartChar: L
Encoding: 76 76 47
Width: 1102
Flags: MW
HStem: 0 302<576 1064 576 1064> 1388 20G<134 576 576 576>
VStem: 134 442<302 1408 302 1408 302 1408>
LayerCount: 2
Fore
SplineSet
134 0 m 1,0,-1
 134 1408 l 1,1,-1
 576 1408 l 1,2,-1
 576 302 l 1,3,-1
 1064 302 l 1,4,-1
 1064 0 l 1,5,-1
 134 0 l 1,0,-1
EndSplineSet
EndChar

StartChar: M
Encoding: 77 77 48
Width: 1816
Flags: MW
HStem: 0 21G<134 134 134 560 1256 1256 1256 1682> 1388 20G<134 560 560 560 1256 1682 1682 1682>
VStem: 134 426<0 752 0 1408> 1256 426<0 752 752 752 0 1408>
LayerCount: 2
Fore
SplineSet
134 0 m 1,0,-1
 134 1408 l 1,1,-1
 560 1408 l 1,2,-1
 912 724 l 1,3,-1
 1256 1408 l 1,4,-1
 1682 1408 l 1,5,-1
 1682 0 l 1,6,-1
 1256 0 l 1,7,-1
 1256 752 l 1,8,-1
 996 260 l 1,9,-1
 822 260 l 1,10,-1
 560 752 l 1,11,-1
 560 0 l 1,12,-1
 134 0 l 1,0,-1
EndSplineSet
EndChar

StartChar: N
Encoding: 78 78 49
Width: 1606
Flags: MW
HStem: 0 21G<134 134 134 498 1062 1062 1062 1472> 1388 20G<134 544 544 544 1106 1472 1472 1472>
VStem: 134 364<0 734 0 1408> 1106 366<650 1408 0 1408>
LayerCount: 2
Fore
SplineSet
134 0 m 1,0,-1
 134 1408 l 1,1,-1
 544 1408 l 1,2,-1
 1106 650 l 1,3,-1
 1106 1408 l 1,4,-1
 1472 1408 l 1,5,-1
 1472 0 l 1,6,-1
 1062 0 l 1,7,-1
 498 734 l 1,8,-1
 498 0 l 1,9,-1
 134 0 l 1,0,-1
EndSplineSet
EndChar

StartChar: O
Encoding: 79 79 50
Width: 1634
Flags: MW
HStem: -32 372<719.5 916 719.5 1069> 1080 359<818 818>
VStem: 64 458<612 798 612 896.5> 1112 458<612 798.5>
LayerCount: 2
Fore
SplineSet
818 340 m 128,-1,1
 912 340 912 340 980.5 393.5 c 0,2,3
 1112 496.204379562 1112 496.204379562 1112 704 c 0,4,5
 1112 856 1112 856 1035.5 965 c 128,-1,6
 959 1074 959 1074 818 1080 c 1,7,8
 672.857294009 1077.98412908 672.857294009 1077.98412908 594.5 961 c 0,9,10
 522 852.76056338 522 852.76056338 522 704 c 0,11,12
 522 496.623188406 522 496.623188406 655 393.5 c 0,13,0
 724 340 724 340 818 340 c 128,-1,1
93.5 486.5 m 128,-1,15
 64 592 64 592 64 705.5 c 128,-1,16
 64 819 64 819 95 928 c 128,-1,17
 126 1037 126 1037 189.5 1130 c 128,-1,18
 253 1223 253 1223 342 1292 c 0,19,20
 531.608695652 1439 531.608695652 1439 818 1439 c 0,21,22
 1236.49462366 1439 1236.49462366 1439 1445.5 1128 c 0,23,24
 1570 942.744 1570 942.744 1570 702 c 0,25,26
 1570 470.451612903 1570 470.451612903 1449 287 c 0,27,28
 1315.98181818 85.3272727273 1315.98181818 85.3272727273 1088.5 9.5 c 0,29,30
 964 -32 964 -32 818 -32 c 128,-1,31
 672 -32 672 -32 547.5 9.5 c 128,-1,32
 423 51 423 51 335.5 122 c 128,-1,33
 248 193 248 193 185.5 287 c 128,-1,14
 123 381 123 381 93.5 486.5 c 128,-1,15
EndSplineSet
EndChar

StartChar: P
Encoding: 80 80 51
Width: 1330
Flags: MW
HStem: 0 21G<134 134 134 576> 482 284<650 662 576 738.5> 1114 294<576 576 576 642 642 664>
VStem: 134 442<0 482 0 770 770 1114> 890 412<888 987.5>
LayerCount: 2
Fore
SplineSet
576 1114 m 1,0,-1
 576 770 l 1,1,2
 604 766 604 766 664 766 c 0,3,4
 774 766 774 766 832 813 c 128,-1,5
 890 860 890 860 890 937.5 c 128,-1,6
 890 1015 890 1015 830.5 1064.5 c 128,-1,7
 771 1114 771 1114 664 1114 c 2,8,-1
 576 1114 l 1,0,-1
134 0 m 1,9,-1
 134 1408 l 1,10,-1
 642 1408 l 2,11,12
 1049.09090909 1408 1049.09090909 1408 1211.5 1209.5 c 0,13,14
 1302 1098.88888889 1302 1098.88888889 1302 942 c 0,15,16
 1302 762.285714286 1302 762.285714286 1143 626 c 0,17,18
 1066 560 1066 560 941 521 c 128,-1,19
 816 482 816 482 662 482 c 2,20,-1
 576 482 l 1,21,-1
 576 0 l 1,22,-1
 134 0 l 1,9,-1
EndSplineSet
EndChar

StartChar: Q
Encoding: 81 81 52
Width: 1634
Flags: MW
HStem: -326 21G<1312 1312> -32 370<718 824> 1075 364<718 915>
VStem: 62 460<617 798.5 617 886.5> 1110 460<617 798.5>
LayerCount: 2
Fore
SplineSet
827.5 338 m 0,0,1
 910 338 910 338 979 394 c 0,2,3
 1110 500.31884058 1110 500.31884058 1110 706 c 0,4,5
 1110 852.281690141 1110 852.281690141 1037.5 959.5 c 0,6,7
 959.4 1075 959.4 1075 816 1075 c 0,8,9
 722 1075 722 1075 653.5 1020.5 c 0,10,11
 522 915.875912409 522 915.875912409 522 706 c 0,12,13
 522 567.085714286 522 567.085714286 595 455.5 c 0,14,15
 671.869158879 338 671.869158879 338 827.5 338 c 0,0,1
1570 -47 m 1,16,-1
 1570 -124 l 1,17,-1
 1312 -326 l 1,18,-1
 860 -28 l 1,19,20
 843 -32 843 -32 816 -32 c 0,21,22
 395.470899471 -32 395.470899471 -32 183.5 288.5 c 0,23,24
 62 472.208 62 472.208 62 706 c 0,25,26
 62 935.032258065 62 935.032258065 184 1120 c 0,27,28
 316.454545455 1320.81818182 316.454545455 1320.81818182 546.5 1397.5 c 0,29,30
 671 1439 671 1439 816.5 1439 c 128,-1,31
 962 1439 962 1439 1086.5 1397.5 c 128,-1,32
 1211 1356 1211 1356 1298.5 1285 c 128,-1,33
 1386 1214 1386 1214 1448.5 1120 c 0,34,35
 1570 937.264 1570 937.264 1570 706 c 0,36,37
 1570 539 1570 539 1503 384 c 128,-1,38
 1436 229 1436 229 1308 124 c 1,39,-1
 1570 -47 l 1,16,-1
EndSplineSet
EndChar

StartChar: R
Encoding: 82 82 53
Width: 1429
Flags: MW
HStem: -32 362<1223.5 1226> 0 21G<134 134 134 582> 1104 304<582 582 582 722>
VStem: 134 448<0 534 0 822 822 1104> 936 410<917 1007.5>
LayerCount: 2
Fore
SplineSet
936 974 m 0,0,1
 936 1104 936 1104 722 1104 c 2,2,-1
 582 1104 l 1,3,-1
 582 822 l 1,4,5
 736.083333333 822 736.083333333 822 778.041666667 831.5 c 128,-1,6
 820 841 820 841 849.5 852 c 128,-1,7
 879 863 879 863 896 879 c 0,8,9
 936 916.647058824 936 916.647058824 936 974 c 0,0,1
134 0 m 1,10,-1
 134 1408 l 1,11,-1
 760 1408 l 2,12,13
 1049.55084746 1408 1049.55084746 1408 1202.5 1280 c 0,14,15
 1346 1159.90780142 1346 1159.90780142 1346 994 c 0,16,17
 1346 728 1346 728 1074 610 c 1,18,19
 1105.36346719 465.031084976 1105.36346719 465.031084976 1123.26616281 425.139813411 c 0,20,21
 1152.4579773 360.093821218 1152.4579773 360.093821218 1216.01019461 341.41591946 c 0,22,23
 1254.85326188 330 1254.85326188 330 1294.92663094 330 c 128,-1,24
 1335 330 1335 330 1389 338 c 1,25,-1
 1389 4 l 1,26,27
 1260 -32 1260 -32 1200 -32 c 0,28,29
 828 -32 828 -32 734 306 c 1,30,-1
 678 534 l 1,31,-1
 582 534 l 1,32,-1
 582 0 l 1,33,-1
 134 0 l 1,10,-1
EndSplineSet
EndChar

StartChar: S
Encoding: 83 83 54
Width: 1213
Flags: MW
HStem: -32 344<525.5 626 518 756> 1098 342<590 699>
VStem: 70 422<1010 1064 1010 1169.5> 736 416<370.5 442.5>
LayerCount: 2
Fore
SplineSet
1102 1332 m 1,0,-1
 992 1026 l 1,1,2
 981 1029 981 1029 933.5 1042 c 128,-1,3
 886 1055 886 1055 858.5 1062 c 128,-1,4
 831 1069 831 1069 789 1079 c 0,5,6
 709.2 1098 709.2 1098 629.6 1098 c 128,-1,7
 550 1098 550 1098 521 1088 c 128,-1,8
 492 1078 492 1078 492 1039 c 0,9,10
 492 967.20754717 492 967.20754717 602 934 c 1,11,12
 1021.84978992 836.683823529 1021.84978992 836.683823529 1123.5 599.5 c 0,13,14
 1152 533 1152 533 1152 460 c 0,15,16
 1152 210 1152 210 1001.5 89 c 128,-1,17
 851 -32 851 -32 590 -32 c 0,18,19
 476 -32 476 -32 332.5 -6 c 128,-1,20
 189 20 189 20 76 74 c 1,21,22
 137.941176471 232.294117647 137.941176471 232.294117647 158.470588235 304.147058824 c 128,-1,23
 179 376 179 376 184 388 c 1,24,25
 488 312 488 312 562 312 c 0,26,27
 736 312 736 312 736 398 c 0,28,29
 736 465.682539683 736 465.682539683 567.5 516.5 c 0,30,31
 452 551.333333333 452 551.333333333 395.5 569.166666667 c 128,-1,32
 339 587 339 587 283.5 620 c 128,-1,33
 228 653 228 653 178 703 c 0,34,35
 70 811 70 811 70 984 c 0,36,37
 70 1440 70 1440 618 1440 c 0,38,39
 878 1440 878 1440 1102 1332 c 1,0,-1
EndSplineSet
EndChar

StartChar: T
Encoding: 84 84 55
Width: 1182
Flags: MW
HStem: 0 21G<352 352 352 830> 1110 298<60 352 60 1122 830 830 830 1122>
VStem: 352 478<0 1110 0 1110>
LayerCount: 2
Fore
SplineSet
352 0 m 1,0,-1
 352 1110 l 1,1,-1
 60 1110 l 1,2,-1
 60 1408 l 1,3,-1
 1122 1408 l 1,4,-1
 1122 1110 l 1,5,-1
 830 1110 l 1,6,-1
 830 0 l 1,7,-1
 352 0 l 1,0,-1
EndSplineSet
EndChar

StartChar: U
Encoding: 85 85 56
Width: 1634
Flags: MW
HStem: -32 370<753 877 753 996> 1388 20G<121 583 583 583 1051 1513 1513 1513>
VStem: 121 462<584 1408> 1051 462<584 1408>
LayerCount: 2
Fore
SplineSet
121 584 m 2,0,-1
 121 1408 l 1,1,-1
 583 1408 l 1,2,-1
 583 584 l 2,3,4
 583 338 583 338 817 338 c 0,5,6
 913.333333333 338 913.333333333 338 978.5 389 c 0,7,8
 1051 445.739130435 1051 445.739130435 1051 584 c 2,9,-1
 1051 1408 l 1,10,-1
 1513 1408 l 1,11,-1
 1513 584 l 2,12,13
 1513 437 1513 437 1455 318 c 128,-1,14
 1397 199 1397 199 1299 124 c 128,-1,15
 1201 49 1201 49 1077 8.5 c 128,-1,16
 953 -32 953 -32 817 -32 c 128,-1,17
 681 -32 681 -32 557 8.5 c 128,-1,18
 433 49 433 49 335 124 c 128,-1,19
 237 199 237 199 179 318 c 128,-1,20
 121 437 121 437 121 584 c 2,0,-1
EndSplineSet
EndChar

StartChar: V
Encoding: 86 86 57
Width: 1377
Flags: MW
HStem: 0 21G<422 422 422 944> 1388 20G<4 466 466 466 902 1384 1384 1384>
LayerCount: 2
Fore
SplineSet
422 0 m 1,0,-1
 4 1408 l 1,1,-1
 466 1408 l 1,2,-1
 684 530 l 1,3,-1
 902 1408 l 1,4,-1
 1384 1408 l 1,5,-1
 944 0 l 1,6,-1
 422 0 l 1,0,-1
EndSplineSet
EndChar

StartChar: W
Encoding: 87 87 58
Width: 2028
Flags: MW
HStem: 0 21G<363 363 363 839 1187 1187 1187 1665> 1388 20G<43 503 503 503 1523 1985 1985 1985>
LayerCount: 2
Fore
SplineSet
363 0 m 1,0,-1
 43 1408 l 1,1,-1
 503 1408 l 1,2,-1
 637 510 l 1,3,-1
 775 1170 l 1,4,-1
 1251 1170 l 1,5,-1
 1391 510 l 1,6,-1
 1523 1408 l 1,7,-1
 1985 1408 l 1,8,-1
 1665 0 l 1,9,-1
 1187 0 l 1,10,-1
 1013 758 l 1,11,-1
 839 0 l 1,12,-1
 363 0 l 1,0,-1
EndSplineSet
EndChar

StartChar: X
Encoding: 88 88 59
Width: 1296
Flags: MW
HStem: 0 21G<1 1 1 465 821 821 821 1295> 1388 20G<13 477 477 477 809 1283 1283 1283>
LayerCount: 2
Fore
SplineSet
1 0 m 1,0,-1
 391 700 l 1,1,-1
 13 1408 l 1,2,-1
 477 1408 l 1,3,-1
 643 1052 l 1,4,-1
 809 1408 l 1,5,-1
 1283 1408 l 1,6,-1
 901 700 l 1,7,-1
 1295 0 l 1,8,-1
 821 0 l 1,9,-1
 643 350 l 1,10,-1
 465 0 l 1,11,-1
 1 0 l 1,0,-1
EndSplineSet
EndChar

StartChar: Y
Encoding: 89 89 60
Width: 1253
Flags: MW
HStem: 0 21G<400 400 400 840> 1388 20G<-6 422 422 422 816 1266 1266 1266>
VStem: 400 440<0 392 0 392>
LayerCount: 2
Fore
SplineSet
400 0 m 1,0,-1
 400 392 l 1,1,-1
 -6 1408 l 1,2,-1
 422 1408 l 1,3,-1
 620 776 l 1,4,-1
 816 1408 l 1,5,-1
 1266 1408 l 1,6,-1
 840 392 l 1,7,-1
 840 0 l 1,8,-1
 400 0 l 1,0,-1
EndSplineSet
EndChar

StartChar: Z
Encoding: 90 90 61
Width: 1107
Flags: MW
HStem: 0 296<73 73 543 1034> 1110 298<93 555 93 1013 93 1013>
LayerCount: 2
Fore
SplineSet
73 0 m 1,0,-1
 73 296 l 1,1,-1
 555 1110 l 1,2,-1
 93 1110 l 1,3,-1
 93 1408 l 1,4,-1
 1013 1408 l 1,5,-1
 1013 1110 l 1,6,-1
 543 296 l 1,7,-1
 1034 296 l 1,8,-1
 1034 0 l 1,9,-1
 73 0 l 1,0,-1
EndSplineSet
EndChar

StartChar: bracketleft
Encoding: 91 91 62
Width: 915
Flags: MW
HStem: 0 302<559 845 559 845> 1104 304<559 845 559 559>
VStem: 119 440<302 1104 302 1408 302 1408>
LayerCount: 2
Fore
SplineSet
119 0 m 1,0,-1
 119 1408 l 1,1,-1
 845 1408 l 1,2,-1
 845 1104 l 1,3,-1
 559 1104 l 1,4,-1
 559 302 l 1,5,-1
 845 302 l 1,6,-1
 845 0 l 1,7,-1
 119 0 l 1,0,-1
EndSplineSet
EndChar

StartChar: backslash
Encoding: 92 92 63
Width: 656
Flags: MW
HStem: 0 21G<397 597 397 397> 1388 20G<57 261 261 261>
LayerCount: 2
Fore
SplineSet
261 1408 m 1,0,-1
 597 0 l 1,1,-1
 397 0 l 1,2,-1
 57 1408 l 1,3,-1
 261 1408 l 1,0,-1
EndSplineSet
EndChar

StartChar: bracketright
Encoding: 93 93 64
Width: 915
Flags: MW
HStem: 0 302<70 356 70 356 70 796> 1104 304<70 356 70 796>
VStem: 356 440<302 1104 1104 1104>
LayerCount: 2
Fore
SplineSet
70 0 m 1,0,-1
 70 302 l 1,1,-1
 356 302 l 1,2,-1
 356 1104 l 1,3,-1
 70 1104 l 1,4,-1
 70 1408 l 1,5,-1
 796 1408 l 1,6,-1
 796 0 l 1,7,-1
 70 0 l 1,0,-1
EndSplineSet
EndChar

StartChar: asciicircum
Encoding: 94 94 65
Width: 1204
Flags: MW
HStem: 350 21G<72 72 72 382 830 830 830 1134> 1356 20G<418 784 784 784>
LayerCount: 2
Fore
SplineSet
72 350 m 1,0,-1
 418 1376 l 1,1,-1
 784 1376 l 1,2,-1
 1134 350 l 1,3,-1
 830 350 l 1,4,-1
 604 1184 l 1,5,-1
 382 350 l 1,6,-1
 72 350 l 1,0,-1
EndSplineSet
EndChar

StartChar: underscore
Encoding: 95 95 66
Width: 844
Flags: MW
HStem: -32 174<82 762 82 762>
LayerCount: 2
Fore
SplineSet
82 -32 m 1,0,-1
 82 142 l 1,1,-1
 762 142 l 1,2,-1
 762 -32 l 1,3,-1
 82 -32 l 1,0,-1
EndSplineSet
EndChar

StartChar: grave
Encoding: 96 96 67
Width: 864
Flags: MW
HStem: 1150 21G<712 712> 1770 20G<238 238>
LayerCount: 2
Fore
SplineSet
30 1424 m 1,0,-1
 238 1790 l 1,1,-1
 838 1370 l 1,2,-1
 712 1150 l 1,3,-1
 30 1424 l 1,0,-1
EndSplineSet
EndChar

StartChar: a
Encoding: 97 97 68
Width: 1425
Flags: MW
HStem: -32 340<429.5 740.5 632 890> 716 325 1036 20G<436 622 890 890>
VStem: 52 430<457.5 568 457.5 681.5> 890 430<0 190 190 190 504 520 520 520 802 1026 0 1056 0 1056>
LayerCount: 2
Fore
SplineSet
890 504 m 1,0,-1
 890 520 l 1,1,2
 886 598 886 598 826 657 c 128,-1,3
 766 716 766 716 685 716 c 128,-1,4
 604 716 604 716 543 656 c 128,-1,5
 482 596 482 596 482 513 c 128,-1,6
 482 430 482 430 543 369 c 128,-1,7
 604 308 604 308 685.5 308 c 128,-1,8
 767 308 767 308 826.5 365.5 c 128,-1,9
 886 423 886 423 890 504 c 1,0,-1
890 -32 m 1,10,-1
 890 190 l 1,11,12
 838 80 838 80 748 24 c 128,-1,13
 658 -32 658 -32 559 -32 c 128,-1,14
 460 -32 460 -32 370.5 8 c 128,-1,15
 281 48 281 48 210 118 c 128,-1,16
 139 188 139 188 95.5 293.5 c 128,-1,17
 52 399 52 399 52 517.5 c 128,-1,18
 52 636 52 636 97 739 c 128,-1,19
 142 842 142 842 214.5 910 c 0,20,21
 370.161764706 1056 370.161764706 1056 554 1056 c 0,22,23
 658 1056 658 1056 752 986 c 128,-1,24
 846 916 846 916 890 802 c 1,25,-1
 890 1056 l 1,26,-1
 1320 1026 l 1,27,-1
 1320 0 l 1,28,-1
 890 -32 l 1,10,-1
EndSplineSet
EndChar

StartChar: b
Encoding: 98 98 69
Width: 1428
Flags: MW
HStem: -32 340<688 997.5> 0 308<107 799> 716 340<689 995.5> 1394 20G<541 541>
VStem: 107 434<0 190 457.5 512 512 520 834 1350 1350 1350> 947 428<457.5 568>
LayerCount: 2
Fore
SplineSet
541 520 m 1,0,-1
 541 512 l 2,1,2
 541 430 541 430 601 369 c 128,-1,3
 661 308 661 308 743.5 308 c 128,-1,4
 826 308 826 308 886.5 369 c 128,-1,5
 947 430 947 430 947 513 c 128,-1,6
 947 596 947 596 887 656 c 128,-1,7
 827 716 827 716 745 716 c 128,-1,8
 663 716 663 716 603 657.5 c 128,-1,9
 543 599 543 599 541 520 c 1,0,-1
875 -32 m 0,10,11
 647 -32 647 -32 541 190 c 1,12,-1
 541 0 l 1,13,-1
 107 0 l 1,14,-1
 107 1350 l 1,15,-1
 541 1414 l 1,16,-1
 541 834 l 1,17,18
 593 946 593 946 679.5 1001 c 128,-1,19
 766 1056 766 1056 865.5 1056 c 128,-1,20
 965 1056 965 1056 1055 1016.5 c 128,-1,21
 1145 977 1145 977 1216 908 c 128,-1,22
 1287 839 1287 839 1331 735 c 128,-1,23
 1375 631 1375 631 1375 523.5 c 128,-1,24
 1375 416 1375 416 1346.5 329.5 c 128,-1,25
 1318 243 1318 243 1269 178 c 128,-1,26
 1220 113 1220 113 1157 65 c 0,27,28
 1029.6875 -32 1029.6875 -32 875 -32 c 0,10,11
EndSplineSet
EndChar

StartChar: c
Encoding: 99 99 70
Width: 966
Flags: MW
HStem: -32 334<623.5 664> 720 336<620.5 664 458 712>
VStem: 52 426<452 572.5 452 673.5>
LayerCount: 2
Fore
SplineSet
878 336 m 1,0,-1
 918 50 l 1,1,2
 754 -32 754 -32 626 -32 c 128,-1,3
 498 -32 498 -32 398 5.5 c 128,-1,4
 298 43 298 43 221 111.5 c 128,-1,5
 144 180 144 180 98 284 c 128,-1,6
 52 388 52 388 52 509 c 128,-1,7
 52 630 52 630 97 732.5 c 128,-1,8
 142 835 142 835 217.5 905.5 c 0,9,10
 378.673758865 1056 378.673758865 1056 608 1056 c 0,11,12
 761.807692308 1056 761.807692308 1056 922 958 c 1,13,-1
 882 686 l 1,14,15
 769 720 769 720 680 720 c 128,-1,16
 591 720 591 720 534.5 662 c 128,-1,17
 478 604 478 604 478 512.5 c 128,-1,18
 478 421 478 421 535.5 361.5 c 128,-1,19
 593 302 593 302 684 302 c 128,-1,20
 775 302 775 302 878 336 c 1,0,-1
EndSplineSet
EndChar

StartChar: d
Encoding: 100 100 71
Width: 1428
Flags: MW
HStem: -32 340<431 742> 0 308<631 889 631 1321> 716 340<431.5 739.5> 1394 20G<1321 1321>
VStem: 53 430<457.5 568 457.5 677.5> 889 432<0 190 190 190 512 520 520 520 834 1350 1350 1350>
LayerCount: 2
Fore
SplineSet
889 512 m 2,0,-1
 889 520 l 1,1,2
 885 598 885 598 825 657 c 128,-1,3
 765 716 765 716 684 716 c 128,-1,4
 603 716 603 716 543 656 c 128,-1,5
 483 596 483 596 483 513 c 128,-1,6
 483 430 483 430 543.5 369 c 128,-1,7
 604 308 604 308 686.5 308 c 128,-1,8
 769 308 769 308 829 369 c 128,-1,9
 889 430 889 430 889 512 c 2,0,-1
889 0 m 1,10,-1
 889 190 l 1,11,12
 837 80 837 80 748 24 c 128,-1,13
 659 -32 659 -32 560 -32 c 128,-1,14
 461 -32 461 -32 372 7.5 c 128,-1,15
 283 47 283 47 212 116 c 128,-1,16
 141 185 141 185 97 289 c 128,-1,17
 53 393 53 393 53 512.5 c 128,-1,18
 53 632 53 632 97 736 c 128,-1,19
 141 840 141 840 212 909 c 0,20,21
 363.260869565 1056 363.260869565 1056 553 1056 c 0,22,23
 661 1056 661 1056 749 1001 c 128,-1,24
 837 946 837 946 889 834 c 1,25,-1
 889 1350 l 1,26,-1
 1321 1414 l 1,27,-1
 1321 0 l 1,28,-1
 889 0 l 1,10,-1
EndSplineSet
EndChar

StartChar: e
Encoding: 101 101 72
Width: 1138
Flags: MW
HStem: -32 294<647 709.5> 792 264<581.5 651.5>
VStem: 52 404<594 594 594 684.5>
LayerCount: 2
Fore
SplineSet
456 594 m 1,0,-1
 774 664 l 1,1,2
 757 729 757 729 714.5 760.5 c 128,-1,3
 672 792 672 792 614 792 c 128,-1,4
 556 792 556 792 507.5 742 c 128,-1,5
 459 692 459 692 456 594 c 1,0,-1
1000 334 m 1,6,-1
 1050 52 l 1,7,8
 864 -32 864 -32 632 -32 c 0,9,10
 447.290322581 -32 447.290322581 -32 299.5 61.5 c 0,11,12
 52 218.081632653 52 218.081632653 52 512 c 0,13,14
 52 637 52 637 101 742 c 128,-1,15
 150 847 150 847 230.5 914.5 c 0,16,17
 399.251851852 1056 399.251851852 1056 618 1056 c 0,18,19
 809.838709677 1056 809.838709677 1056 946 930 c 0,20,21
 1013 868 1013 868 1052.5 766.5 c 128,-1,22
 1092 665 1092 665 1092 538 c 0,23,24
 1092 507 1092 507 1088 486 c 1,25,-1
 474 406 l 1,26,27
 501 326 501 326 557.5 294 c 128,-1,28
 614 262 614 262 698 262 c 0,29,30
 836 262 836 262 1000 334 c 1,6,-1
EndSplineSet
EndChar

StartChar: f
Encoding: 102 102 73
Width: 890
Flags: MW
HStem: 0 21G<180 180 180 612> 772 254<52 180 52 180 612 612 612 870> 1264 308<438 706>
VStem: 180 432<0 772 0 772 0 1240.5>
LayerCount: 2
Fore
SplineSet
180 0 m 1,0,-1
 180 772 l 1,1,-1
 52 772 l 1,2,-1
 52 1026 l 1,3,-1
 180 1026 l 1,4,5
 180 1340.0990099 180 1340.0990099 280.5 1460.5 c 0,6,7
 373.570247934 1572 373.570247934 1572 542.785123967 1572 c 128,-1,8
 712 1572 712 1572 888 1494 c 1,9,-1
 874 1216 l 1,10,11
 757 1264 757 1264 685.5 1264 c 0,12,13
 549 1264 549 1264 549 1148 c 0,14,15
 549 1094 549 1094 584 1026 c 1,16,-1
 870 1026 l 1,17,-1
 870 772 l 1,18,-1
 612 772 l 1,19,-1
 612 0 l 1,20,-1
 180 0 l 1,0,-1
EndSplineSet
EndChar

StartChar: g
Encoding: 103 103 74
Width: 1423
Flags: MW
HStem: -470 314<647 737.5 617.5 865> 0 308<426.5 735> 716 324 1036 20G<426.5 611 887 887>
VStem: 54 425<457.5 568 457.5 681.5> 887 432<504 520 520 520 802 1024>
LayerCount: 2
Fore
SplineSet
887 504 m 1,0,-1
 887 520 l 1,1,2
 883 598 883 598 822 657 c 128,-1,3
 761 716 761 716 680 716 c 128,-1,4
 599 716 599 716 539 656 c 128,-1,5
 479 596 479 596 479 513 c 128,-1,6
 479 430 479 430 539.5 369 c 128,-1,7
 600 308 600 308 681 308 c 128,-1,8
 762 308 762 308 822.5 366 c 128,-1,9
 883 424 883 424 887 504 c 1,0,-1
467 -450 m 1,10,-1
 499 -144 l 1,11,12
 595 -156 595 -156 653 -156 c 128,-1,13
 711 -156 711 -156 761 -134 c 128,-1,14
 811 -112 811 -112 841.5 -66 c 0,15,16
 893.700547303 12.7286942924 893.700547303 12.7286942924 917 170 c 1,17,18
 797 0 797 0 549 0 c 0,19,20
 358.615384615 0 358.615384615 0 210 138 c 0,21,22
 140 203 140 203 97 302.5 c 128,-1,23
 54 402 54 402 54 519.5 c 128,-1,24
 54 637 54 637 97.5 739.5 c 128,-1,25
 141 842 141 842 211 910 c 0,26,27
 361.294117647 1056 361.294117647 1056 545 1056 c 0,28,29
 654 1056 654 1056 753.5 989.5 c 128,-1,30
 853 923 853 923 887 802 c 1,31,-1
 887 1056 l 1,32,-1
 1319 1024 l 1,33,-1
 1319 260 l 2,34,35
 1319 -290.828193833 1319 -290.828193833 936.5 -429 c 0,36,37
 823 -470 823 -470 705 -470 c 128,-1,38
 587 -470 587 -470 467 -450 c 1,10,-1
EndSplineSet
EndChar

StartChar: h
Encoding: 104 104 75
Width: 1413
Flags: MW
HStem: 0 21G<107 107 107 539 887 887 887 1317> 716 340<685 986.5> 1394 20G<539 539>
VStem: 107 432<0 498 798 1350 1350 1350> 887 430<0 512 512 520 0 566.5>
LayerCount: 2
Fore
SplineSet
107 0 m 1,0,-1
 107 1350 l 1,1,-1
 539 1414 l 1,2,-1
 539 798 l 1,3,4
 593 928 593 928 682 992 c 128,-1,5
 771 1056 771 1056 865.5 1056 c 0,6,7
 960 1056 960 1056 1038 1020.5 c 128,-1,8
 1116 985 1116 985 1178.5 919 c 128,-1,9
 1241 853 1241 853 1279 749.5 c 128,-1,10
 1317 646 1317 646 1317 520 c 2,11,-1
 1317 0 l 1,12,-1
 887 0 l 1,13,-1
 887 512 l 2,14,15
 887 594 887 594 844.5 655 c 128,-1,16
 802 716 802 716 743 716 c 0,17,18
 657 716 657 716 598 651 c 128,-1,19
 539 586 539 586 539 498 c 2,20,-1
 539 0 l 1,21,-1
 107 0 l 1,0,-1
EndSplineSet
EndChar

StartChar: i
Encoding: 105 105 76
Width: 748
Flags: MW
HStem: -32 332<367 635.5> 1006 20G<99 533 533 533> 1158 414<260 384>
VStem: 91 462<1308 1422> 99 434<378 408 408 1026>
LayerCount: 2
Fore
SplineSet
99 378 m 2,0,-1
 99 1026 l 1,1,-1
 533 1026 l 1,2,-1
 533 408 l 2,3,4
 533 352 533 352 557.5 326 c 128,-1,5
 582 300 582 300 623 300 c 128,-1,6
 664 300 664 300 709 324 c 1,7,-1
 731 38 l 1,8,9
 608 -32 608 -32 463 -32 c 0,10,11
 312.5 -32 312.5 -32 209.5 64 c 0,12,13
 99 166.990291262 99 166.990291262 99 378 c 2,0,-1
159.5 1219 m 128,-1,15
 91 1280 91 1280 91 1365 c 128,-1,16
 91 1450 91 1450 159.5 1511 c 128,-1,17
 228 1572 228 1572 321.5 1572 c 128,-1,18
 415 1572 415 1572 484 1511 c 128,-1,19
 553 1450 553 1450 553 1365 c 128,-1,20
 553 1280 553 1280 484.5 1219 c 128,-1,21
 416 1158 416 1158 322 1158 c 128,-1,14
 228 1158 228 1158 159.5 1219 c 128,-1,15
EndSplineSet
EndChar

StartChar: j
Encoding: 106 106 77
Width: 646
Flags: MW
HStem: -442 332<-52.5 202.5> 1006 20G<107 539 539 539> 1158 414<254 378>
VStem: 107 432<60 1026>
LayerCount: 2
Fore
SplineSet
153.5 1219 m 128,-1,1
 85 1280 85 1280 85 1364 c 128,-1,2
 85 1448 85 1448 154 1510 c 128,-1,3
 223 1572 223 1572 316 1572 c 128,-1,4
 409 1572 409 1572 478 1510.5 c 128,-1,5
 547 1449 547 1449 547 1364.5 c 128,-1,6
 547 1280 547 1280 478.5 1219 c 128,-1,7
 410 1158 410 1158 316 1158 c 128,-1,0
 222 1158 222 1158 153.5 1219 c 128,-1,1
-265 -334 m 1,8,-1
 -171 -80 l 1,9,10
 -75 -110 -75 -110 -21 -110 c 128,-1,11
 33 -110 33 -110 70 -69.5 c 128,-1,12
 107 -29 107 -29 107 60 c 2,13,-1
 107 1026 l 1,14,-1
 539 1026 l 1,15,-1
 539 60 l 2,16,17
 539 -200.558139535 539 -200.558139535 399.5 -326 c 0,18,19
 270.5 -442 270.5 -442 83.75 -442 c 129,-1,20
 -103 -442 -103 -442 -265 -334 c 1,8,-1
EndSplineSet
EndChar

StartChar: k
Encoding: 107 107 78
Width: 1314
Flags: MW
HStem: -30 344<1107 1130> 0 21G<107 107 107 541> 1394 20G<541 541>
VStem: 107 434<0 282 712 1350 1350 1350>
LayerCount: 2
Fore
SplineSet
107 0 m 1,0,-1
 107 1350 l 1,1,-1
 541 1414 l 1,2,-1
 541 712 l 1,3,-1
 1067 1142 l 1,4,-1
 1303 822 l 1,5,-1
 973 592 l 1,6,7
 1006.89795918 407.102040816 1006.89795918 407.102040816 1053.5 360.5 c 128,-1,8
 1100 314 1100 314 1179 314 c 0,9,10
 1212 314 1212 314 1267 326 c 1,11,-1
 1227 -24 l 1,12,13
 1164 -30 1164 -30 1100.5 -30 c 128,-1,14
 1037 -30 1037 -30 977.5 -18 c 128,-1,15
 918 -6 918 -6 874 20 c 128,-1,16
 830 46 830 46 797.5 78 c 128,-1,17
 765 110 765 110 739.5 160 c 0,18,19
 694.233898305 248.757062147 694.233898305 248.757062147 661 378 c 1,20,-1
 541 282 l 1,21,-1
 541 0 l 1,22,-1
 107 0 l 1,0,-1
EndSplineSet
EndChar

StartChar: l
Encoding: 108 108 79
Width: 774
Flags: MW
HStem: -32 332<365 676.5> 1394 20G<531 531>
VStem: 99 432<378 408 408 1350 1350 1350>
LayerCount: 2
Fore
SplineSet
99 378 m 2,0,-1
 99 1350 l 1,1,-1
 531 1414 l 1,2,-1
 531 408 l 2,3,4
 531 352 531 352 567.5 326 c 128,-1,5
 604 300 604 300 655.5 300 c 128,-1,6
 707 300 707 300 755 324 c 1,7,-1
 771 38 l 1,8,9
 631 -32 631 -32 463 -32 c 0,10,11
 310 -32 310 -32 208 64 c 0,12,13
 99 166.588235294 99 166.588235294 99 378 c 2,0,-1
EndSplineSet
EndChar

StartChar: m
Encoding: 109 109 80
Width: 2100
Flags: MW
HStem: 0 21G<102 102 102 534 840 840 840 1268 1572 1572 1572 2004> 712 344<534 731>
VStem: 102 432<0 520 802 990 990 990> 840 428<0 512 0 580.5> 1572 432<0 512 0 580>
LayerCount: 2
Fore
SplineSet
102 0 m 1,0,-1
 102 990 l 1,1,-1
 534 1056 l 1,2,-1
 534 802 l 1,3,4
 591 930 591 930 683.5 993 c 128,-1,5
 776 1056 776 1056 887 1056 c 128,-1,6
 998 1056 998 1056 1095.5 984 c 128,-1,7
 1193 912 1193 912 1240 786 c 1,8,9
 1287 926 1287 926 1388.5 991 c 128,-1,10
 1490 1056 1490 1056 1616 1056 c 0,11,12
 1773.55555556 1056 1773.55555556 1056 1886.5 913.5 c 0,13,14
 2004 765.252336449 2004 765.252336449 2004 512 c 2,15,-1
 2004 0 l 1,16,-1
 1572 0 l 1,17,-1
 1572 512 l 2,18,19
 1572 608 1572 608 1531 660 c 128,-1,20
 1490 712 1490 712 1429 712 c 128,-1,21
 1368 712 1368 712 1318 656.5 c 128,-1,22
 1268 601 1268 601 1268 512 c 2,23,-1
 1268 0 l 1,24,-1
 840 0 l 1,25,-1
 840 512 l 2,26,27
 840 608 840 608 797 660 c 128,-1,28
 754 712 754 712 693 712 c 128,-1,29
 632 712 632 712 584 658 c 128,-1,30
 536 604 536 604 534 520 c 1,31,-1
 534 0 l 1,32,-1
 102 0 l 1,0,-1
EndSplineSet
EndChar

StartChar: n
Encoding: 110 110 81
Width: 1407
Flags: MW
HStem: 0 21G<102 102 102 534 880 880 880 1310> 716 340<534 775.5>
VStem: 102 432<0 520 802 990 990 990> 880 430<0 512 0 566.5>
LayerCount: 2
Fore
SplineSet
102 0 m 1,0,-1
 102 990 l 1,1,-1
 534 1056 l 1,2,-1
 534 802 l 1,3,4
 592 928 592 928 687 992 c 128,-1,5
 782 1056 782 1056 874.5 1056 c 0,6,7
 967 1056 967 1056 1041.5 1018.5 c 128,-1,8
 1116 981 1116 981 1176 913.5 c 128,-1,9
 1236 846 1236 846 1273 741 c 128,-1,10
 1310 636 1310 636 1310 512 c 2,11,-1
 1310 0 l 1,12,-1
 880 0 l 1,13,-1
 880 512 l 2,14,15
 880 594 880 594 837.5 655 c 128,-1,16
 795 716 795 716 725.5 716 c 0,17,18
 656 716 656 716 596 657.5 c 128,-1,19
 536 599 536 599 534 520 c 1,20,-1
 534 0 l 1,21,-1
 102 0 l 1,0,-1
EndSplineSet
EndChar

StartChar: o
Encoding: 111 111 82
Width: 1284
Flags: MW
HStem: -32 342<593 691.5 593 788.5> 718 338<591.5 691.5>
VStem: 52 410<459.5 514> 828 404<459.5 570>
LayerCount: 2
Fore
SplineSet
102 278.5 m 0,0,1
 52.495049505 382.955445545 52.495049505 382.955445545 52.495049505 510.44784825 c 0,2,3
 52.495049505 640.950102931 52.495049505 640.950102931 103.5 747 c 0,4,5
 154 852 154 852 237.5 918.5 c 0,6,7
 410.15037594 1056 410.15037594 1056 644 1056 c 0,8,9
 826.989010989 1056 826.989010989 1056 975.5 966.5 c 0,10,11
 1137.105096 869.10884943 1137.105096 869.10884943 1198.5 706 c 0,12,13
 1232 617 1232 617 1232 513.5 c 128,-1,14
 1232 410 1232 410 1199 320.5 c 128,-1,15
 1166 231 1166 231 1109 167.5 c 128,-1,16
 1052 104 1052 104 976.5 58 c 0,17,18
 828.782608696 -32 828.782608696 -32 642 -32 c 1,19,20
 407.485074627 -32 407.485074627 -32 235.5 106 c 0,21,22
 152 173 152 173 102 278.5 c 0,0,1
515 370.5 m 128,-1,24
 568 310 568 310 642 310 c 128,-1,25
 716 310 716 310 772 371.5 c 128,-1,26
 828 433 828 433 828 515 c 128,-1,27
 828 597 828 597 772 657.5 c 128,-1,28
 716 718 716 718 641 718 c 128,-1,29
 566 718 566 718 514 658 c 128,-1,30
 462 598 462 598 462 514.5 c 128,-1,23
 462 431 462 431 515 370.5 c 128,-1,24
EndSplineSet
EndChar

StartChar: p
Encoding: 112 112 83
Width: 1423
Flags: MW
HStem: -348 21G<102 102> -32 340<682 991.5> 716 340<534 793.5>
VStem: 102 432<-266 190 457.5 512 512 520 834 990 990 990> 942 428<457.5 568>
LayerCount: 2
Fore
SplineSet
534 520 m 1,0,-1
 534 512 l 2,1,2
 534 430 534 430 594.5 369 c 128,-1,3
 655 308 655 308 738 308 c 0,4,5
 821 308 821 308 881.5 368.5 c 128,-1,6
 942 429 942 429 942 512.5 c 0,7,8
 942 596 942 596 882 656 c 128,-1,9
 822 716 822 716 739 716 c 0,10,11
 656 716 656 716 598 658 c 128,-1,12
 540 600 540 600 534 520 c 1,0,-1
102 -348 m 1,13,-1
 102 990 l 1,14,-1
 534 1056 l 1,15,-1
 534 834 l 1,16,17
 588 946 588 946 675 1001 c 128,-1,18
 762 1056 762 1056 861 1056 c 0,19,20
 960 1056 960 1056 1049.5 1016.5 c 128,-1,21
 1139 977 1139 977 1210.5 908 c 128,-1,22
 1282 839 1282 839 1326 735 c 128,-1,23
 1370 631 1370 631 1370 512 c 128,-1,24
 1370 393 1370 393 1326 289 c 128,-1,25
 1282 185 1282 185 1211 116 c 128,-1,26
 1140 47 1140 47 1050.5 7.5 c 128,-1,27
 961 -32 961 -32 870 -32 c 0,28,29
 644 -32 644 -32 534 190 c 1,30,-1
 534 -266 l 1,31,-1
 102 -348 l 1,13,-1
EndSplineSet
EndChar

StartChar: q
Encoding: 113 113 84
Width: 1425
Flags: MW
HStem: -348 21G<891 891> -32 340<433 740.5> 716 340<433 740.5>
VStem: 53 430<457.5 568 457.5 677.5> 891 432<-266 190 190 190 504 520 520 520 834 990 -266 1056 -266 1056>
LayerCount: 2
Fore
SplineSet
891 504 m 1,0,-1
 891 520 l 1,1,2
 887 598 887 598 826.5 657 c 128,-1,3
 766 716 766 716 685.5 716 c 128,-1,4
 605 716 605 716 544 656 c 128,-1,5
 483 596 483 596 483 513 c 128,-1,6
 483 430 483 430 544 369 c 128,-1,7
 605 308 605 308 686 308 c 128,-1,8
 767 308 767 308 827 366 c 128,-1,9
 887 424 887 424 891 504 c 1,0,-1
555 1056 m 0,10,11
 782.946902655 1056 782.946902655 1056 891 834 c 1,12,-1
 891 1056 l 1,13,-1
 1323 990 l 1,14,-1
 1323 -266 l 1,15,-1
 891 -348 l 1,16,-1
 891 190 l 1,17,18
 781 -32 781 -32 553 -32 c 0,19,20
 463 -32 463 -32 373.5 7.5 c 128,-1,21
 284 47 284 47 213 116 c 128,-1,22
 142 185 142 185 97.5 289 c 128,-1,23
 53 393 53 393 53 512.5 c 128,-1,24
 53 632 53 632 97 736 c 128,-1,25
 141 840 141 840 212.5 909 c 0,26,27
 364.826086957 1056 364.826086957 1056 555 1056 c 0,10,11
EndSplineSet
EndChar

StartChar: r
Encoding: 114 114 85
Width: 914
Flags: MW
HStem: 0 21G<102 102 102 534> 706 350<790 850 534 912>
VStem: 102 432<0 532 802 990 990 990>
LayerCount: 2
Fore
SplineSet
912 706 m 1,0,1
 534 706 534 706 534 532 c 2,2,-1
 534 0 l 1,3,-1
 102 0 l 1,4,-1
 102 990 l 1,5,-1
 534 1056 l 1,6,-1
 534 802 l 1,7,8
 585 930 585 930 669.5 993 c 128,-1,9
 754 1056 754 1056 850 1056 c 1,10,-1
 912 706 l 1,0,1
EndSplineSet
EndChar

StartChar: s
Encoding: 115 115 86
Width: 947
Flags: MW
HStem: -32 264<456 461.5 378 644> 786 270<508 554.5 384 580.5>
LayerCount: 2
Fore
SplineSet
80 48 m 1,0,-1
 126 284 l 1,1,2
 316 232 316 232 414 232 c 0,3,4
 516 232 516 232 516 280 c 0,5,6
 516 341.581395349 516 341.581395349 363 370.290697674 c 128,-1,7
 210 399 210 399 133 480 c 128,-1,8
 56 561 56 561 56 706 c 1,9,10
 63.9830386142 889.609888127 63.9830386142 889.609888127 197 976.5 c 0,11,12
 318.703703704 1056 318.703703704 1056 503.351851852 1056 c 128,-1,13
 688 1056 688 1056 838 984 c 1,14,-1
 794 740 l 1,15,16
 641 786 641 786 532.5 786 c 128,-1,17
 424 786 424 786 424 744 c 0,18,19
 424 724 424 724 451 699.5 c 128,-1,20
 478 675 478 675 526 670 c 1,21,22
 896 610 896 610 896 326 c 0,23,24
 896 187.32967033 896 187.32967033 802.5 81.5 c 0,25,26
 702.223300971 -32 702.223300971 -32 518 -32 c 1,27,28
 258 -32 258 -32 80 48 c 1,0,-1
EndSplineSet
EndChar

StartChar: t
Encoding: 116 116 87
Width: 890
Flags: MW
HStem: -32 332<433 744.5> 772 254<39 169 39 201 599 835> 1394 20G<391 599 599 599>
VStem: 168 431
LayerCount: 2
Fore
SplineSet
167 378 m 1,0,-1
 169 772 l 1,1,-1
 39 772 l 1,2,-1
 39 1026 l 1,3,-1
 201 1026 l 1,4,-1
 391 1414 l 1,5,-1
 599 1414 l 1,6,-1
 599 1026 l 1,7,-1
 835 1026 l 1,8,-1
 835 772 l 1,9,-1
 599 772 l 1,10,-1
 599 408 l 2,11,12
 599 354 599 354 636 327 c 128,-1,13
 673 300 673 300 724.5 300 c 128,-1,14
 776 300 776 300 823 324 c 1,15,-1
 839 38 l 1,16,17
 699 -32 699 -32 531 -32 c 0,18,19
 378 -32 378 -32 276 64 c 0,20,21
 167 166.588235294 167 166.588235294 167 378 c 1,0,-1
EndSplineSet
EndChar

StartChar: u
Encoding: 117 117 88
Width: 1286
Flags: MW
HStem: -32 336<618.5 677.5 618.5 785.5> 1006 20G<94 516 516 516 776 1190 1190 1190>
VStem: 94 422<440 1026> 776 414<426 440 440 1026>
LayerCount: 2
Fore
SplineSet
94 440 m 2,0,-1
 94 1026 l 1,1,-1
 516 1026 l 1,2,-1
 516 426 l 2,3,4
 516 372 516 372 557.5 338 c 128,-1,5
 599 304 599 304 647.5 304 c 128,-1,6
 696 304 696 304 736 338.5 c 128,-1,7
 776 373 776 373 776 426 c 2,8,-1
 776 1026 l 1,9,-1
 1190 1026 l 1,10,-1
 1190 440 l 2,11,12
 1190 174.467625899 1190 174.467625899 957.5 44 c 0,13,14
 822.064102564 -32 822.064102564 -32 648 -32 c 0,15,16
 474.179487179 -32 474.179487179 -32 334 45 c 0,17,18
 182.772563177 128.068592058 182.772563177 128.068592058 125 272.5 c 0,19,20
 94 350 94 350 94 440 c 2,0,-1
EndSplineSet
EndChar

StartChar: v
Encoding: 118 118 89
Width: 1168
Flags: MW
HStem: 0 21G<340 340 340 838> 1006 20G<2 478 478 478 788 1164 1164 1164>
LayerCount: 2
Fore
SplineSet
340 0 m 1,0,-1
 2 1026 l 1,1,-1
 478 1026 l 1,2,-1
 640 396 l 1,3,-1
 666 536 l 1,4,-1
 788 1026 l 1,5,-1
 1164 1026 l 1,6,-1
 838 0 l 1,7,-1
 340 0 l 1,0,-1
EndSplineSet
EndChar

StartChar: w
Encoding: 119 119 90
Width: 1707
Flags: MW
HStem: 0 21G<267 267 267 739 957 957 957 1453> 1006 20G<41 459 459 459 717 1069 1069 1069 1329 1665 1665 1665>
LayerCount: 2
Fore
SplineSet
267 0 m 1,0,-1
 41 1026 l 1,1,-1
 459 1026 l 1,2,-1
 575 360 l 1,3,-1
 617 544 l 1,4,-1
 717 1026 l 1,5,-1
 1069 1026 l 1,6,-1
 1171 544 l 1,7,-1
 1209 344 l 1,8,-1
 1249 544 l 1,9,-1
 1329 1026 l 1,10,-1
 1665 1026 l 1,11,-1
 1453 0 l 1,12,-1
 957 0 l 1,13,-1
 847 542 l 1,14,-1
 739 0 l 1,15,-1
 267 0 l 1,0,-1
EndSplineSet
EndChar

StartChar: x
Encoding: 120 120 91
Width: 1136
Flags: MW
HStem: 0 21G<4 4 4 436 710 710 710 1130> 1006 20G<24 456 456 456 690 1110 1110 1110>
LayerCount: 2
Fore
SplineSet
4 0 m 1,0,-1
 316 532 l 1,1,-1
 24 1026 l 1,2,-1
 456 1026 l 1,3,-1
 572 784 l 1,4,-1
 690 1026 l 1,5,-1
 1110 1026 l 1,6,-1
 824 532 l 1,7,-1
 1130 0 l 1,8,-1
 710 0 l 1,9,-1
 572 262 l 1,10,-1
 436 0 l 1,11,-1
 4 0 l 1,0,-1
EndSplineSet
EndChar

StartChar: y
Encoding: 121 121 92
Width: 1369
Flags: MW
HStem: -480 344<660 720.5 632 852.5> 0 308<447 716> 1006 20G<98 528 528 528 832 1264 1264 1264>
VStem: 98 430<434 454 454 1026> 832 432<482 1026>
LayerCount: 2
Fore
SplineSet
852 170 m 1,0,1
 757.340909091 5.68434188608e-14 757.340909091 5.68434188608e-14 556 0 c 0,2,3
 384.311926606 0 384.311926606 0 245.5 115.5 c 0,4,5
 180 170 180 170 139 253.5 c 128,-1,6
 98 337 98 337 98 434 c 2,7,-1
 98 1026 l 1,8,-1
 528 1026 l 1,9,-1
 528 454 l 2,10,11
 528 397 528 397 572 352.5 c 128,-1,12
 616 308 616 308 677.5 308 c 128,-1,13
 739 308 739 308 785.5 359.5 c 128,-1,14
 832 411 832 411 832 482 c 2,15,-1
 832 1026 l 1,16,-1
 1264 1026 l 1,17,-1
 1264 260 l 2,18,19
 1264 -192.089655172 1264 -192.089655172 1032.5 -372.5 c 0,20,21
 894.557522124 -480 894.557522124 -480 690 -480 c 0,22,23
 621 -480 621 -480 512 -460 c 1,24,-1
 556 -124 l 1,25,26
 604 -136 604 -136 652 -136 c 128,-1,27
 700 -136 700 -136 737.5 -115.5 c 128,-1,28
 775 -95 775 -95 797.5 -51.5 c 0,29,30
 834.463087248 19.9619686801 834.463087248 19.9619686801 852 170 c 1,0,1
EndSplineSet
EndChar

StartChar: z
Encoding: 122 122 93
Width: 1003
Flags: MW
HStem: 0 262<611 939 611 939> 764 262<77 423 77 929>
LayerCount: 2
Fore
SplineSet
63 0 m 1,0,-1
 63 220 l 1,1,-1
 423 764 l 1,2,-1
 77 764 l 1,3,-1
 77 1026 l 1,4,-1
 929 1026 l 1,5,-1
 929 804 l 1,6,-1
 611 262 l 1,7,-1
 939 262 l 1,8,-1
 939 0 l 1,9,-1
 63 0 l 1,0,-1
EndSplineSet
EndChar

StartChar: braceleft
Encoding: 123 123 94
Width: 728
Flags: MW
HStem: -74 21G<660 660> 1438 20G<660 660>
LayerCount: 2
Fore
SplineSet
12 612 m 1,0,-1
 12 772 l 1,1,2
 81.1895261845 778.695760599 81.1895261845 778.695760599 109.594763092 814.847880299 c 128,-1,3
 138 851 138 851 138 894 c 0,4,5
 138 1128 138 1128 273.5 1283 c 128,-1,6
 409 1438 409 1438 660 1458 c 1,7,-1
 660 1280 l 1,8,9
 534 1233 534 1233 534 894 c 0,10,11
 534 773 534 773 378 692 c 1,12,13
 534 611 534 611 534 488 c 0,14,15
 534 151 534 151 660 104 c 1,16,-1
 660 -74 l 1,17,18
 409 -54 409 -54 273.5 100.5 c 128,-1,19
 138 255 138 255 138 488 c 0,20,21
 138 549 138 549 99.5 578 c 128,-1,22
 61 607 61 607 12 612 c 1,0,-1
EndSplineSet
EndChar

StartChar: bar
Encoding: 124 124 95
Width: 434
Flags: MW
HStem: 0 21G<119 119 119 315> 1388 20G<119 315 315 315>
VStem: 119 196<0 1408 0 1408>
LayerCount: 2
Fore
SplineSet
119 0 m 1,0,-1
 119 1408 l 1,1,-1
 315 1408 l 1,2,-1
 315 0 l 1,3,-1
 119 0 l 1,0,-1
EndSplineSet
EndChar

StartChar: braceright
Encoding: 125 125 96
Width: 728
Flags: MW
HStem: -74 21G<68 68> 1438 20G<68 68>
LayerCount: 2
Fore
SplineSet
68 -74 m 1,0,-1
 68 104 l 1,1,2
 194 151 194 151 194 488 c 0,3,4
 194 611 194 611 350 692 c 1,5,6
 194 773 194 773 194 894 c 0,7,8
 194 1233 194 1233 68 1280 c 1,9,-1
 68 1458 l 1,10,11
 321 1437 321 1437 455.5 1282.5 c 128,-1,12
 590 1128 590 1128 590 894 c 0,13,14
 590 851 590 851 612 823 c 0,15,16
 646.810473815 778.695760599 646.810473815 778.695760599 716 772 c 1,17,-1
 716 612 l 1,18,19
 667 607 667 607 628.5 578 c 128,-1,20
 590 549 590 549 590 488 c 0,21,22
 590 255 590 255 455 100.5 c 128,-1,23
 320 -54 320 -54 68 -74 c 1,0,-1
EndSplineSet
EndChar

StartChar: asciitilde
Encoding: 126 126 97
Width: 1188
Flags: MW
HStem: 598 346<744 842.5 744 891.5> 710 234 710 346<360.5 459>
LayerCount: 2
Fore
SplineSet
284 604 m 1,0,-1
 42 702 l 1,1,2
 104 881 104 881 199 968.5 c 128,-1,3
 294 1056 294 1056 392 1056 c 0,4,5
 505.166666667 1056 505.166666667 1056 618.5 1000 c 128,-1,6
 731.833333333 944 731.833333333 944 806.916666667 944 c 128,-1,7
 882 944 882 944 918 1036 c 1,8,-1
 1156 938 l 1,9,10
 1042 598 1042 598 822 598 c 0,11,12
 684.5 598 684.5 598 576.5 654 c 128,-1,13
 468.5 710 468.5 710 390 710 c 0,14,15
 346.857142857 710 346.857142857 710 327.928571429 683.5 c 0,16,17
 301.234042553 646.127659574 301.234042553 646.127659574 284 604 c 1,0,-1
EndSplineSet
EndChar

StartChar: exclamdown
Encoding: 161 161 99
Width: 626
Flags: MW
HStem: 0 20 1032 414<256 380>
VStem: 87 462<1180.5 1294.5>
LayerCount: 2
Fore
SplineSet
155.5 1092 m 128,-1,1
 87 1152 87 1152 87 1237.5 c 128,-1,2
 87 1323 87 1323 155.5 1384.5 c 128,-1,3
 224 1446 224 1446 317.5 1446 c 128,-1,4
 411 1446 411 1446 480 1384 c 128,-1,5
 549 1322 549 1322 549 1237.5 c 128,-1,6
 549 1153 549 1153 480.5 1092.5 c 128,-1,7
 412 1032 412 1032 318 1032 c 128,-1,0
 224 1032 224 1032 155.5 1092 c 128,-1,1
95 318 m 1,8,-1
 177 898 l 1,9,-1
 447 898 l 1,10,-1
 527 318 l 1,11,-1
 527 0 l 1,12,-1
 95 0 l 1,13,-1
 95 318 l 1,8,-1
EndSplineSet
EndChar

StartChar: cent
Encoding: 162 162 100
Width: 1008
Flags: MW
HStem: -186 21G<624 624 624 758> -32 21G<461 606 606 624> 1036 20G<606 624 624 624> 1170 20G<624 758 758 758>
VStem: 52 426<481 564 481 673.5> 624 134<-186 -32 -32 -32 310 714 1056 1190>
LayerCount: 2
Fore
SplineSet
534 360 m 1,0,1
 579 320 579 320 624 310 c 1,2,-1
 624 714 l 1,3,4
 560 698 560 698 519 643 c 128,-1,5
 478 588 478 588 478 503.5 c 128,-1,6
 478 419 478 419 534 360 c 1,0,1
918 50 m 1,7,8
 861.666666667 22.5555555556 861.666666667 22.5555555556 758 -12 c 1,9,-1
 758 -186 l 1,10,-1
 624 -186 l 1,11,-1
 624 -32 l 1,12,-1
 606 -32 l 2,13,14
 381.306569343 -32 381.306569343 -32 220 111.5 c 0,15,16
 143 180 143 180 97.5 284 c 128,-1,17
 52 388 52 388 52 509 c 128,-1,18
 52 630 52 630 96.5 732.5 c 128,-1,19
 141 835 141 835 216.5 905.5 c 0,20,21
 377.673758865 1056 377.673758865 1056 606 1056 c 2,22,-1
 624 1056 l 1,23,-1
 624 1190 l 1,24,-1
 758 1190 l 1,25,-1
 758 1034 l 1,26,27
 847.647058824 1004.11764706 847.647058824 1004.11764706 922 958 c 1,28,-1
 880 686 l 1,29,30
 807.142857143 707.857142857 807.142857143 707.857142857 758 714 c 1,31,-1
 758 308 l 1,32,33
 816 314 816 314 876 336 c 1,34,-1
 918 50 l 1,7,8
EndSplineSet
EndChar

StartChar: sterling
Encoding: 163 163 101
Width: 1074
Flags: MW
HStem: 0 300<204 204 644 988 74 204> 616 174<74 204 74 204 644 900> 1132 308<511.5 801>
VStem: 204 440<300 616 300 616 790 894 894 1016 300 1108.5>
LayerCount: 2
Fore
SplineSet
74 616 m 1,0,-1
 74 790 l 1,1,-1
 204 790 l 1,2,-1
 204 894 l 2,3,4
 204 1257 204 1257 373.5 1371 c 0,5,6
 476.092105263 1440 476.092105263 1440 646.046052632 1440 c 128,-1,7
 816 1440 816 1440 1003 1362 c 1,8,-1
 969 1084 l 1,9,10
 852 1132 852 1132 780.5 1132 c 0,11,12
 644 1132 644 1132 644 1016 c 2,13,-1
 644 790 l 1,14,-1
 900 790 l 1,15,-1
 900 616 l 1,16,-1
 644 616 l 1,17,-1
 644 300 l 1,18,-1
 988 300 l 1,19,-1
 988 0 l 1,20,-1
 74 0 l 1,21,-1
 74 128 l 1,22,23
 111 130 111 130 139 149 c 0,24,25
 204 192 204 192 204 300 c 2,26,-1
 204 616 l 1,27,-1
 74 616 l 1,0,-1
EndSplineSet
EndChar

StartChar: yen
Encoding: 165 165 102
Width: 1172
Flags: MW
HStem: 0 21G<466 702 466 466> 176 122<158 466 158 466 702 1028> 388 128<158 414 158 466 158 414 756 1028> 1356 20G<48 316 316 316 852 1120 1120 1120>
VStem: 466 236<0 176 0 176 298 388 0 388>
LayerCount: 2
Fore
SplineSet
158 176 m 1,0,-1
 158 298 l 1,1,-1
 466 298 l 1,2,-1
 466 388 l 1,3,-1
 158 388 l 1,4,-1
 158 516 l 1,5,-1
 414 516 l 1,6,-1
 48 1376 l 1,7,-1
 316 1376 l 1,8,-1
 586 632 l 1,9,-1
 852 1376 l 1,10,-1
 1120 1376 l 1,11,-1
 756 516 l 1,12,-1
 1028 516 l 1,13,-1
 1028 388 l 1,14,-1
 702 388 l 1,15,-1
 702 298 l 1,16,-1
 1028 298 l 1,17,-1
 1028 176 l 1,18,-1
 702 176 l 1,19,-1
 702 0 l 1,20,-1
 466 0 l 1,21,-1
 466 176 l 1,22,-1
 158 176 l 1,0,-1
EndSplineSet
EndChar

StartChar: brokenbar
Encoding: 166 166 103
Width: 438
Flags: MW
HStem: 0 21G<121 121 121 317> 1388 20G<121 317 317 317>
VStem: 121 196<0 552 0 552 856 1408>
LayerCount: 2
Fore
SplineSet
121 856 m 1,0,-1
 121 1408 l 1,1,-1
 317 1408 l 1,2,-1
 317 856 l 1,3,-1
 121 856 l 1,0,-1
121 0 m 1,4,-1
 121 552 l 1,5,-1
 317 552 l 1,6,-1
 317 0 l 1,7,-1
 121 0 l 1,4,-1
EndSplineSet
EndChar

StartChar: section
Encoding: 167 167 104
Width: 1091
Flags: MW
HStem: -32 264<466.5 523 440 667> 1184 256<559 621 433.5 644.5>
VStem: 85 318<700.5 714> 85 406<523 1159.5 1102 1152> 589 418<262 321> 677 330
LayerCount: 2
Fore
SplineSet
575 606 m 1,0,1
 629 606 629 606 653 633.5 c 128,-1,2
 677 661 677 661 677 694 c 0,3,4
 677 750 677 750 491 804 c 1,5,6
 451 801 451 801 427 777 c 128,-1,7
 403 753 403 753 403 726 c 128,-1,8
 403 699 403 699 418 682 c 0,9,10
 457.384615385 637.364102564 457.384615385 637.364102564 575 606 c 1,0,1
85 670 m 0,11,12
 85 825.46031746 85 825.46031746 209 916 c 1,13,14
 85 995 85 995 85 1152 c 1,15,16
 96.2264468371 1368.10910162 96.2264468371 1368.10910162 380 1424.5 c 0,17,18
 458 1440 458 1440 547 1440 c 0,19,20
 784 1440 784 1440 949 1364 c 1,21,-1
 905 1136 l 1,22,23
 865 1150 865 1150 765 1167 c 128,-1,24
 665 1184 665 1184 578 1184 c 128,-1,25
 491 1184 491 1184 491 1144 c 0,26,27
 491 1114.82608696 491 1114.82608696 594 1079 c 0,28,29
 640 1063 640 1063 695.5 1044.5 c 128,-1,30
 751 1026 751 1026 806.5 1000 c 128,-1,31
 862 974 862 974 908 942.5 c 0,32,33
 1011 871.967391304 1011 871.967391304 1011 764 c 0,34,35
 1011 697 1011 697 981 628 c 128,-1,36
 951 559 951 559 883 516 c 1,37,38
 1007 435 1007 435 1007 282 c 0,39,40
 1007 126.007751938 1007 126.007751938 869.5 45 c 0,41,42
 738.802631579 -32 738.802631579 -32 527.901315789 -32 c 128,-1,43
 317 -32 317 -32 111 44 c 1,44,-1
 155 292 l 1,45,46
 218 272 218 272 319.5 252 c 128,-1,47
 421 232 421 232 505 232 c 128,-1,48
 589 232 589 232 589 278 c 0,49,50
 589 313.901785714 589 313.901785714 458 352.5 c 0,51,52
 200.624689641 428.333796802 200.624689641 428.333796802 122.5 545 c 0,53,54
 85 601 85 601 85 670 c 0,11,12
EndSplineSet
EndChar

StartChar: dieresis
Encoding: 168 168 105
Width: 1246
Flags: MW
HStem: 1122 414<252 375 871 995>
VStem: 84 460<1270.5 1383.5> 702 460<1270.5 1383.5>
LayerCount: 2
Fore
SplineSet
152 1182 m 128,-1,1
 84 1242 84 1242 84 1326.5 c 128,-1,2
 84 1411 84 1411 152.5 1473.5 c 128,-1,3
 221 1536 221 1536 313.5 1536 c 128,-1,4
 406 1536 406 1536 475 1473.5 c 128,-1,5
 544 1411 544 1411 544 1327 c 128,-1,6
 544 1243 544 1243 475.5 1182.5 c 128,-1,7
 407 1122 407 1122 313.5 1122 c 128,-1,0
 220 1122 220 1122 152 1182 c 128,-1,1
770.5 1182 m 128,-1,9
 702 1242 702 1242 702 1327 c 128,-1,10
 702 1412 702 1412 771 1474 c 128,-1,11
 840 1536 840 1536 932.5 1536 c 128,-1,12
 1025 1536 1025 1536 1093.5 1473.5 c 128,-1,13
 1162 1411 1162 1411 1162 1327 c 128,-1,14
 1162 1243 1162 1243 1094 1182.5 c 128,-1,15
 1026 1122 1026 1122 932.5 1122 c 128,-1,8
 839 1122 839 1122 770.5 1182 c 128,-1,9
EndSplineSet
EndChar

StartChar: copyright
Encoding: 169 169 106
Width: 1426
Flags: MW
HStem: -32 122<573 849.5 573 889> 230 130<735 773> 862 128<684.5 769 629 781> 1134 118<573 849.5>
VStem: 71 138<468 754.5 468 796.5> 343 162<610 696.5 533.5 728> 1213 142<468 754.5>
LayerCount: 2
Fore
SplineSet
939 402 m 1,0,-1
 959 282 l 1,1,2
 856.962264151 230.981132075 856.962264151 230.981132075 745.298326807 230.981132075 c 0,3,4
 743.150943396 230.981132075 743.150943396 230.981132075 741 231 c 0,5,6
 627 232 627 232 540.5 273 c 128,-1,7
 454 314 454 314 399 401 c 128,-1,8
 344 488 344 488 343 610 c 1,9,10
 343 780 343 780 457.5 885 c 128,-1,11
 572 990 572 990 716 990 c 128,-1,12
 860 990 860 990 961 928 c 1,13,-1
 943 814 l 1,14,15
 850 862 850 862 747 862 c 128,-1,16
 644 862 644 862 574.5 797.5 c 128,-1,17
 505 733 505 733 505 613.5 c 128,-1,18
 505 494 505 494 569.5 427 c 128,-1,19
 634 360 634 360 732.5 360 c 128,-1,20
 831 360 831 360 939 402 c 1,0,-1
711 -32 m 128,-1,22
 536 -32 536 -32 388.5 56 c 128,-1,23
 241 144 241 144 156 293.5 c 128,-1,24
 71 443 71 443 71 618 c 128,-1,25
 71 793 71 793 159 939 c 128,-1,26
 247 1085 247 1085 395.5 1168.5 c 128,-1,27
 544 1252 544 1252 717.5 1252 c 128,-1,28
 891 1252 891 1252 1038 1165 c 128,-1,29
 1185 1078 1185 1078 1270 930.5 c 128,-1,30
 1355 783 1355 783 1355 610 c 128,-1,31
 1355 437 1355 437 1269 289 c 128,-1,32
 1183 141 1183 141 1034.5 54.5 c 128,-1,21
 886 -32 886 -32 711 -32 c 128,-1,22
711 90 m 128,-1,34
 847 90 847 90 963 160 c 128,-1,35
 1079 230 1079 230 1146 350 c 128,-1,36
 1213 470 1213 470 1213 611 c 128,-1,37
 1213 752 1213 752 1146 872.5 c 128,-1,38
 1079 993 1079 993 963 1063.5 c 128,-1,39
 847 1134 847 1134 711 1134 c 128,-1,40
 575 1134 575 1134 459.5 1063.5 c 128,-1,41
 344 993 344 993 276.5 872.5 c 128,-1,42
 209 752 209 752 209 611 c 128,-1,43
 209 470 209 470 276.5 350 c 128,-1,44
 344 230 344 230 459.5 160 c 128,-1,33
 575 90 575 90 711 90 c 128,-1,34
EndSplineSet
EndChar

StartChar: ordfeminine
Encoding: 170 170 107
Width: 1425
Flags: MW
HStem: -32 340<429.5 740.5 632 890> 716 325 1036 20G<436 622 890 890>
VStem: 52 430<457.5 568 457.5 681.5> 890 430<0 190 190 190 504 520 520 520 802 1026 0 1056 0 1056>
LayerCount: 2
Fore
SplineSet
890 504 m 1,0,-1
 890 520 l 1,1,2
 886 598 886 598 826 657 c 128,-1,3
 766 716 766 716 685 716 c 128,-1,4
 604 716 604 716 543 656 c 128,-1,5
 482 596 482 596 482 513 c 128,-1,6
 482 430 482 430 543 369 c 128,-1,7
 604 308 604 308 685.5 308 c 128,-1,8
 767 308 767 308 826.5 365.5 c 128,-1,9
 886 423 886 423 890 504 c 1,0,-1
890 -32 m 1,10,-1
 890 190 l 1,11,12
 838 80 838 80 748 24 c 128,-1,13
 658 -32 658 -32 559 -32 c 128,-1,14
 460 -32 460 -32 370.5 8 c 128,-1,15
 281 48 281 48 210 118 c 128,-1,16
 139 188 139 188 95.5 293.5 c 128,-1,17
 52 399 52 399 52 517.5 c 128,-1,18
 52 636 52 636 97 739 c 128,-1,19
 142 842 142 842 214.5 910 c 0,20,21
 370.161764706 1056 370.161764706 1056 554 1056 c 0,22,23
 658 1056 658 1056 752 986 c 128,-1,24
 846 916 846 916 890 802 c 1,25,-1
 890 1056 l 1,26,-1
 1320 1026 l 1,27,-1
 1320 0 l 1,28,-1
 890 -32 l 1,10,-1
EndSplineSet
EndChar

StartChar: guillemotleft
Encoding: 171 171 108
Width: 1109
Flags: MW
HStem: 128 21G<483 483 1015 1015> 1096 20G<483 483 1015 1015>
VStem: 53 430<442 502 744 810 810 810> 585 430<442 502 744 810 810 810>
LayerCount: 2
Fore
SplineSet
53 442 m 1,0,-1
 53 810 l 1,1,-1
 483 1116 l 1,2,-1
 483 744 l 1,3,-1
 287 626 l 1,4,-1
 483 502 l 1,5,-1
 483 128 l 1,6,-1
 53 442 l 1,0,-1
585 442 m 1,7,-1
 585 810 l 1,8,-1
 1015 1116 l 1,9,-1
 1015 744 l 1,10,-1
 817 626 l 1,11,-1
 1015 502 l 1,12,-1
 1015 128 l 1,13,-1
 585 442 l 1,7,-1
EndSplineSet
EndChar

StartChar: logicalnot
Encoding: 172 172 109
Width: 1094
Flags: MW
HStem: 174 21G<762 982 762 762> 530 322<80 762 80 982>
VStem: 762 220<174 530 530 530>
LayerCount: 2
Fore
SplineSet
80 852 m 1,0,-1
 982 852 l 1,1,-1
 982 174 l 1,2,-1
 762 174 l 1,3,-1
 762 530 l 1,4,-1
 80 530 l 1,5,-1
 80 852 l 1,0,-1
EndSplineSet
EndChar

StartChar: registered
Encoding: 174 174 110
Width: 1426
Flags: MW
HStem: -32 122<573 849.5 573 889> 256 97<936 1011> 596 94<583 703 583 715 583 703> 898 96<583 713 583 583> 1134 118<573 849.5>
VStem: 71 138<468 754.5 468 796.5> 467 116<272 596 690 898> 877 126<758 828> 1213 142<468 754.5>
LayerCount: 2
Fore
SplineSet
711 -32 m 128,-1,1
 536 -32 536 -32 388.5 56 c 128,-1,2
 241 144 241 144 156 293.5 c 128,-1,3
 71 443 71 443 71 618 c 128,-1,4
 71 793 71 793 159 939 c 128,-1,5
 247 1085 247 1085 395.5 1168.5 c 128,-1,6
 544 1252 544 1252 717.5 1252 c 128,-1,7
 891 1252 891 1252 1038 1165 c 128,-1,8
 1185 1078 1185 1078 1270 930.5 c 128,-1,9
 1355 783 1355 783 1355 610 c 128,-1,10
 1355 437 1355 437 1269 289 c 128,-1,11
 1183 141 1183 141 1034.5 54.5 c 128,-1,0
 886 -32 886 -32 711 -32 c 128,-1,1
711 90 m 128,-1,13
 847 90 847 90 963 160 c 128,-1,14
 1079 230 1079 230 1146 350 c 128,-1,15
 1213 470 1213 470 1213 611 c 128,-1,16
 1213 752 1213 752 1146 872.5 c 128,-1,17
 1079 993 1079 993 963 1063.5 c 128,-1,18
 847 1134 847 1134 711 1134 c 128,-1,19
 575 1134 575 1134 459.5 1063.5 c 128,-1,20
 344 993 344 993 276.5 872.5 c 128,-1,21
 209 752 209 752 209 611 c 128,-1,22
 209 470 209 470 276.5 350 c 128,-1,23
 344 230 344 230 459.5 160 c 128,-1,12
 575 90 575 90 711 90 c 128,-1,13
583 690 m 1,24,-1
 703 690 l 1,25,26
 843.098245614 691.819457735 843.098245614 691.819457735 866 734.5 c 0,27,28
 877 755 877 755 877 802.5 c 128,-1,29
 877 850 877 850 845.5 874 c 128,-1,30
 814 898 814 898 713 898 c 2,31,-1
 583 898 l 1,32,-1
 583 690 l 1,24,-1
1003 796 m 0,33,34
 1003 625.509433962 1003 625.509433962 825 602 c 1,35,36
 827 592 827 592 833 561.5 c 128,-1,37
 839 531 839 531 841.5 520 c 128,-1,38
 844 509 844 509 851 483 c 128,-1,39
 858 457 858 457 864 446.5 c 128,-1,40
 870 436 870 436 880 417 c 128,-1,41
 890 398 890 398 902 389.5 c 128,-1,42
 914 381 914 381 930 371 c 0,43,44
 958.8 353 958.8 353 991.4 353 c 128,-1,45
 1024 353 1024 353 1037 358 c 1,46,-1
 1011 256 l 1,47,48
 906.444444444 256 906.444444444 256 866.722222222 282 c 128,-1,49
 827 308 827 308 808.5 330.5 c 128,-1,50
 790 353 790 353 775.5 387.5 c 0,51,52
 752.782088017 441.552962993 752.782088017 441.552962993 736.391044009 509.276481497 c 128,-1,53
 720 577 720 577 715 596 c 1,54,-1
 583 596 l 1,55,-1
 583 272 l 1,56,-1
 467 272 l 1,57,-1
 467 994 l 1,58,-1
 723 994 l 2,59,60
 873 994 873 994 938 939 c 128,-1,61
 1003 884 1003 884 1003 796 c 0,33,34
EndSplineSet
EndChar

StartChar: overscore
Encoding: 175 175 111
Width: 680
Flags: MW
HStem: 1170 242<66 616 66 616>
LayerCount: 2
Fore
SplineSet
66 1170 m 1,0,-1
 66 1412 l 1,1,-1
 616 1412 l 1,2,-1
 616 1170 l 1,3,-1
 66 1170 l 1,0,-1
EndSplineSet
EndChar

StartChar: degree
Encoding: 176 176 112
Width: 1278
Flags: MW
HStem: 331 258<573.5 708 573.5 828.5> 1166 255<641 662 662 708>
VStem: 69 303<781.5 974 781.5 1012> 909 299<781.5 974>
LayerCount: 2
Fore
SplineSet
641 1421 m 2,0,-1
 662 1421 l 2,1,2
 794 1421 794 1421 900 1375.5 c 128,-1,3
 1006 1330 1006 1330 1072 1253.5 c 0,4,5
 1208 1095.86363636 1208 1095.86363636 1208 884 c 0,6,7
 1208 709.709677419 1208 709.709677419 1116.5 570 c 0,8,9
 1018.09240325 419.743239369 1018.09240325 419.743239369 843 362 c 0,10,11
 749 331 749 331 638.5 331 c 128,-1,12
 528 331 528 331 434 361.5 c 128,-1,13
 340 392 340 392 273.5 444.5 c 128,-1,14
 207 497 207 497 160.5 566.5 c 0,15,16
 69 703.258064516 69 703.258064516 69 876 c 0,17,18
 69 1089.47826087 69 1089.47826087 211 1250 c 0,19,20
 280 1328 280 1328 391.5 1374.5 c 128,-1,21
 503 1421 503 1421 641 1421 c 2,0,-1
829.5 665 m 128,-1,23
 909 741 909 741 909 877.5 c 128,-1,24
 909 1014 909 1014 829.5 1090 c 128,-1,25
 750 1166 750 1166 641 1166 c 128,-1,26
 532 1166 532 1166 452 1090 c 128,-1,27
 372 1014 372 1014 372 877.5 c 128,-1,28
 372 741 372 741 451.5 665 c 128,-1,29
 531 589 531 589 640.5 589 c 128,-1,22
 750 589 750 589 829.5 665 c 128,-1,23
EndSplineSet
EndChar

StartChar: plusminus
Encoding: 177 177 113
Width: 1140
Flags: MW
HStem: 0 114<72 1068 72 1068> 644 116<72 512 72 512 632 1068> 1192 20G<512 632 632 632>
VStem: 512 120<186 644 186 644 760 1212>
LayerCount: 2
Fore
SplineSet
72 0 m 1,0,-1
 72 114 l 1,1,-1
 1068 114 l 1,2,-1
 1068 0 l 1,3,-1
 72 0 l 1,0,-1
512 186 m 1,4,-1
 512 644 l 1,5,-1
 72 644 l 1,6,-1
 72 760 l 1,7,-1
 512 760 l 1,8,-1
 512 1212 l 1,9,-1
 632 1212 l 1,10,-1
 632 760 l 1,11,-1
 1068 760 l 1,12,-1
 1068 644 l 1,13,-1
 632 644 l 1,14,-1
 632 186 l 1,15,-1
 512 186 l 1,4,-1
EndSplineSet
EndChar

StartChar: twosuperior
Encoding: 178 178 114
Width: 666
Flags: MW
HStem: 686 170<328 568 328 568> 1246 194<244 418.5>
VStem: 84 506<686 1268 848 1268> 350 240<1162.5 1211>
LayerCount: 2
Fore
SplineSet
350 1190 m 0,0,1
 350 1246 350 1246 268 1246 c 0,2,3
 221 1246 221 1246 130 1202 c 1,4,-1
 70 1376 l 1,5,6
 216 1440 216 1440 335.5 1440 c 128,-1,7
 455 1440 455 1440 522.5 1372.5 c 128,-1,8
 590 1305 590 1305 590 1192 c 0,9,10
 590 1008 590 1008 328 856 c 1,11,-1
 568 856 l 1,12,-1
 568 686 l 1,13,-1
 84 686 l 1,14,-1
 84 848 l 1,15,16
 350 1096 350 1096 350 1190 c 0,0,1
EndSplineSet
EndChar

StartChar: threesuperior
Encoding: 179 179 115
Width: 644
Flags: MW
HStem: 656 176<268 304 248.5 382> 656 472<160 382> 1256 184<278 313.5>
VStem: 160 390<990 1304 1128 1304> 362 188 362 222<868 884 801.5 928>
LayerCount: 2
Fore
SplineSet
362 884 m 0,0,1
 362 990 362 990 160 990 c 1,2,-1
 160 1128 l 1,3,4
 356 1128 356 1128 356 1210 c 0,5,6
 356 1256 356 1256 288.5 1256 c 128,-1,7
 221 1256 221 1256 106 1222 c 1,8,-1
 68 1380 l 1,9,10
 198 1440 198 1440 309 1440 c 128,-1,11
 420 1440 420 1440 485 1385 c 128,-1,12
 550 1330 550 1330 550 1258 c 0,13,14
 550 1146 550 1146 444 1076 c 1,15,16
 584 1014.75 584 1014.75 584 872 c 0,17,18
 584 771 584 771 504.5 713.5 c 128,-1,19
 425 656 425 656 318.5 656 c 128,-1,20
 212 656 212 656 68 704 c 1,21,-1
 106 868 l 1,22,23
 211 832 211 832 264 832 c 0,24,25
 362 832 362 832 362 884 c 0,0,1
EndSplineSet
EndChar

StartChar: acute
Encoding: 180 180 116
Width: 818
Flags: MW
HStem: 1150 21G<130 130> 1770 20G<604 604>
LayerCount: 2
Fore
SplineSet
130 1150 m 1,0,-1
 4 1370 l 1,1,-1
 604 1790 l 1,2,-1
 812 1424 l 1,3,-1
 130 1150 l 1,0,-1
EndSplineSet
EndChar

StartChar: mu
Encoding: 181 181 117
AltUni2: 0003bc.ffffffff.0
Width: 1272
Flags: MW
HStem: -300 21G<116 116> -32 336<640.5 880.5> 1006 20G<116 538 538 538 790 1202 1202 1202>
VStem: 116 422<344 1026 344 1026 344 1026> 790 412<426 440 440 1026>
LayerCount: 2
Fore
SplineSet
116 -300 m 1,0,-1
 116 1026 l 1,1,-1
 538 1026 l 1,2,-1
 538 344 l 1,3,4
 600 304 600 304 656.5 304 c 0,5,6
 713 304 713 304 751.5 339 c 128,-1,7
 790 374 790 374 790 426 c 2,8,-1
 790 1026 l 1,9,-1
 1202 1026 l 1,10,-1
 1202 440 l 2,11,12
 1202 237 1202 237 1073 102.5 c 128,-1,13
 944 -32 944 -32 755 -32 c 0,14,15
 641 -32 641 -32 526 24 c 1,16,-1
 526 -270 l 1,17,-1
 116 -300 l 1,0,-1
EndSplineSet
EndChar

StartChar: paragraph
Encoding: 182 182 118
Width: 1138
Flags: MW
HStem: 0 21G<529 529 529 695 823 823 823 987> 1254 154<695 823 695 695>
VStem: 529 166<0 728 728 728 0 1408> 823 164<0 1254 1254 1254>
LayerCount: 2
Fore
SplineSet
529 0 m 1,0,-1
 529 728 l 1,1,-1
 443 728 l 2,2,3
 255 728 255 728 147.5 835.5 c 0,4,5
 47 936 47 936 47 1068 c 0,6,7
 47 1202.79824561 47 1202.79824561 163 1301.5 c 0,8,9
 288.164948454 1408 288.164948454 1408 529 1408 c 2,10,-1
 987 1408 l 1,11,-1
 987 0 l 1,12,-1
 823 0 l 1,13,-1
 823 1254 l 1,14,-1
 695 1254 l 1,15,-1
 695 0 l 1,16,-1
 529 0 l 1,0,-1
EndSplineSet
EndChar

StartChar: middot
Encoding: 65539 -1 119
Width: 572
Flags: MW
HStem: 614 414<224 347>
VStem: 56 460<762.5 875.5>
LayerCount: 2
Fore
SplineSet
124 674 m 128,-1,1
 56 734 56 734 56 818.5 c 128,-1,2
 56 903 56 903 124.5 965.5 c 128,-1,3
 193 1028 193 1028 285.5 1028 c 128,-1,4
 378 1028 378 1028 447 965.5 c 128,-1,5
 516 903 516 903 516 819 c 128,-1,6
 516 735 516 735 447.5 674.5 c 128,-1,7
 379 614 379 614 285.5 614 c 128,-1,0
 192 614 192 614 124 674 c 128,-1,1
EndSplineSet
EndChar

StartChar: cedilla
Encoding: 184 184 120
Width: 560
Flags: MW
HStem: -508 106<190 190.5 142 299> -20 20G<228 342 342 342>
VStem: 290 224<-326 -250>
LayerCount: 2
Fore
SplineSet
38 -464 m 1,0,-1
 66 -388 l 1,1,2
 115 -402 115 -402 158 -402 c 0,3,4
 290 -402 290 -402 290 -274 c 0,5,6
 290 -234 290 -234 261.5 -207 c 128,-1,7
 233 -180 233 -180 172 -180 c 2,8,-1
 168 -180 l 1,9,-1
 228 0 l 1,10,-1
 342 0 l 1,11,-1
 302 -116 l 1,12,13
 408 -127 408 -127 461 -170.5 c 128,-1,14
 514 -214 514 -214 514 -276 c 0,15,16
 514 -369 514 -369 426.5 -438.5 c 128,-1,17
 339 -508 339 -508 232.5 -508 c 0,18,19
 126 -508 126 -508 38 -464 c 1,0,-1
EndSplineSet
EndChar

StartChar: onesuperior
Encoding: 185 185 121
Width: 560
Flags: MW
HStem: 682 160<86 176 86 176 408 498> 1388 20G<294 408 408 408>
VStem: 86 322<682 1408 842 1408 1196 1338 1338 1338> 86 412<682 842 682 842 682 1338> 176 232<842 1204 1204 1204>
LayerCount: 2
Fore
SplineSet
86 682 m 1,0,-1
 86 842 l 1,1,-1
 176 842 l 1,2,-1
 176 1204 l 1,3,-1
 86 1196 l 1,4,-1
 86 1338 l 1,5,6
 200 1338 200 1338 294 1408 c 1,7,-1
 408 1408 l 1,8,-1
 408 842 l 1,9,-1
 498 842 l 1,10,-1
 498 682 l 1,11,-1
 86 682 l 1,0,-1
EndSplineSet
EndChar

StartChar: ordmasculine
Encoding: 186 186 122
Width: 1284
Flags: MW
HStem: -32 342<593 691.5 593 788.5> 718 338<591.5 691.5>
VStem: 52 410<459.5 514> 828 404<459.5 570>
LayerCount: 2
Fore
SplineSet
102 278.5 m 0,0,1
 52.495049505 382.955445545 52.495049505 382.955445545 52.495049505 510.44784825 c 0,2,3
 52.495049505 640.950102931 52.495049505 640.950102931 103.5 747 c 0,4,5
 154 852 154 852 237.5 918.5 c 0,6,7
 410.15037594 1056 410.15037594 1056 644 1056 c 0,8,9
 826.989010989 1056 826.989010989 1056 975.5 966.5 c 0,10,11
 1137.105096 869.10884943 1137.105096 869.10884943 1198.5 706 c 0,12,13
 1232 617 1232 617 1232 513.5 c 128,-1,14
 1232 410 1232 410 1199 320.5 c 128,-1,15
 1166 231 1166 231 1109 167.5 c 128,-1,16
 1052 104 1052 104 976.5 58 c 0,17,18
 828.782608696 -32 828.782608696 -32 642 -32 c 1,19,20
 407.485074627 -32 407.485074627 -32 235.5 106 c 0,21,22
 152 173 152 173 102 278.5 c 0,0,1
515 370.5 m 128,-1,24
 568 310 568 310 642 310 c 128,-1,25
 716 310 716 310 772 371.5 c 128,-1,26
 828 433 828 433 828 515 c 128,-1,27
 828 597 828 597 772 657.5 c 128,-1,28
 716 718 716 718 641 718 c 128,-1,29
 566 718 566 718 514 658 c 128,-1,30
 462 598 462 598 462 514.5 c 128,-1,23
 462 431 462 431 515 370.5 c 128,-1,24
EndSplineSet
EndChar

StartChar: guillemotright
Encoding: 187 187 123
Width: 1107
Flags: MW
HStem: 128 21G<94 94 624 624> 1096 20G<94 94 624 624>
VStem: 94 430<442 502 502 502 744 810 442 1116 442 1116> 624 430<442 502 502 502 744 810 442 1116 442 1116>
LayerCount: 2
Fore
SplineSet
94 128 m 1,0,-1
 94 502 l 1,1,-1
 290 626 l 1,2,-1
 94 744 l 1,3,-1
 94 1116 l 1,4,-1
 524 810 l 1,5,-1
 524 442 l 1,6,-1
 94 128 l 1,0,-1
624 128 m 1,7,-1
 624 502 l 1,8,-1
 820 626 l 1,9,-1
 624 744 l 1,10,-1
 624 1116 l 1,11,-1
 1054 810 l 1,12,-1
 1054 442 l 1,13,-1
 624 128 l 1,7,-1
EndSplineSet
EndChar

StartChar: onequarter
Encoding: 188 188 124
Width: 1553
Flags: MW
HStem: 0 21G<465 465 465 665 1163 1163 1163 1409> 172 156<851 851 1019 1163 1409 1503> 682 160<69 159 69 159 391 481> 706 20G<1153 1409 1409 1409> 1388 20G<277 391 391 391 801 1005 1005 1005>
VStem: 69 322<682 1408 842 1408 1196 1338 1338 1338> 69 412<682 842 682 842 682 1338> 159 232<842 1204 1204 1204> 1163 246<0 172 0 172 328 530 530 530>
LayerCount: 2
Fore
SplineSet
1019 328 m 1,0,-1
 1163 328 l 1,1,-1
 1163 530 l 1,2,-1
 1019 328 l 1,0,-1
851 172 m 1,3,-1
 851 328 l 1,4,-1
 1153 726 l 1,5,-1
 1409 726 l 1,6,-1
 1409 328 l 1,7,-1
 1503 328 l 1,8,-1
 1503 172 l 1,9,-1
 1409 172 l 1,10,-1
 1409 0 l 1,11,-1
 1163 0 l 1,12,-1
 1163 172 l 1,13,-1
 851 172 l 1,3,-1
465 0 m 1,14,-1
 801 1408 l 1,15,-1
 1005 1408 l 1,16,-1
 665 0 l 1,17,-1
 465 0 l 1,14,-1
69 682 m 1,18,-1
 69 842 l 1,19,-1
 159 842 l 1,20,-1
 159 1204 l 1,21,-1
 69 1196 l 1,22,-1
 69 1338 l 1,23,24
 183 1338 183 1338 277 1408 c 1,25,-1
 391 1408 l 1,26,-1
 391 842 l 1,27,-1
 481 842 l 1,28,-1
 481 682 l 1,29,-1
 69 682 l 1,18,-1
EndSplineSet
EndChar

StartChar: onehalf
Encoding: 189 189 125
Width: 1331
Flags: MW
HStem: 0 21G<389 389 389 589> 36 170<1015 1255 1015 1255> 596 194<931 1105.5> 682 160<63 153 63 153 385 475> 1388 20G<271 385 385 385 725 929 929 929>
VStem: 63 322<682 1408 842 1408 1196 1338 1338 1338> 63 412<682 842 682 842 682 1338> 153 232<842 1204 1204 1204> 771 506<36 618 198 618> 1037 240<512.5 561>
LayerCount: 2
Fore
SplineSet
1037 540 m 0,0,1
 1037 596 1037 596 955 596 c 0,2,3
 908 596 908 596 817 552 c 1,4,-1
 761.30075188 713.527819549 l 1,5,-1
 589 0 l 1,6,-1
 389 0 l 1,7,-1
 725 1408 l 1,8,-1
 929 1408 l 1,9,-1
 765.16593184 729.534211855 l 1,10,11
 906.696411498 790 906.696411498 790 1024.34820575 790 c 128,-1,12
 1142 790 1142 790 1209.5 722.5 c 128,-1,13
 1277 655 1277 655 1277 542 c 0,14,15
 1277 358 1277 358 1015 206 c 1,16,-1
 1255 206 l 1,17,-1
 1255 36 l 1,18,-1
 771 36 l 1,19,-1
 771 198 l 1,20,21
 1037 446 1037 446 1037 540 c 0,0,1
63 682 m 1,22,-1
 63 842 l 1,23,-1
 153 842 l 1,24,-1
 153 1204 l 1,25,-1
 63 1196 l 1,26,-1
 63 1338 l 1,27,28
 177 1338 177 1338 271 1408 c 1,29,-1
 385 1408 l 1,30,-1
 385 842 l 1,31,-1
 475 842 l 1,32,-1
 475 682 l 1,33,-1
 63 682 l 1,22,-1
EndSplineSet
EndChar

StartChar: threequarters
Encoding: 190 190 126
Width: 1588
Flags: MW
HStem: -2 21G<1198 1444 1198 1198> 0 21G<522 522 522 722> 170 156<886 886 1054 1198 1444 1538> 656 176<258 294 238.5 372> 656 472<150 372> 704 20G 1256 184<268 303.5> 1388 20G<858 1062 1062 1062>
VStem: 150 390<990 1304 1128 1304> 352 188 352 222<868 884 801.5 928> 1198 246<-2 170 -2 170 326 528 528 528>
LayerCount: 2
Fore
SplineSet
1054 326 m 1,0,-1
 1198 326 l 1,1,-1
 1198 528 l 1,2,-1
 1054 326 l 1,0,-1
886 170 m 1,3,-1
 886 326 l 1,4,-1
 1188 724 l 1,5,-1
 1444 724 l 1,6,-1
 1444 326 l 1,7,-1
 1538 326 l 1,8,-1
 1538 170 l 1,9,-1
 1444 170 l 1,10,-1
 1444 -2 l 1,11,-1
 1198 -2 l 1,12,-1
 1198 170 l 1,13,-1
 886 170 l 1,3,-1
522 0 m 1,14,-1
 858 1408 l 1,15,-1
 1062 1408 l 1,16,-1
 722 0 l 1,17,-1
 522 0 l 1,14,-1
352 884 m 0,18,19
 352 990 352 990 150 990 c 1,20,-1
 150 1128 l 1,21,22
 346 1128 346 1128 346 1210 c 0,23,24
 346 1256 346 1256 278.5 1256 c 128,-1,25
 211 1256 211 1256 96 1222 c 1,26,-1
 58 1380 l 1,27,28
 188 1440 188 1440 299 1440 c 128,-1,29
 410 1440 410 1440 475 1385 c 128,-1,30
 540 1330 540 1330 540 1258 c 0,31,32
 540 1146 540 1146 434 1076 c 1,33,34
 574 1014.75 574 1014.75 574 872 c 0,35,36
 574 771 574 771 494.5 713.5 c 128,-1,37
 415 656 415 656 308.5 656 c 128,-1,38
 202 656 202 656 58 704 c 1,39,-1
 96 868 l 1,40,41
 201 832 201 832 254 832 c 0,42,43
 352 832 352 832 352 884 c 0,18,19
EndSplineSet
EndChar

StartChar: questiondown
Encoding: 191 191 127
Width: 1036
Flags: MW
HStem: -32 348<414 711> 1026 414<594 717>
VStem: 49 452<354 425.5 354 522> 425 462<1177 1290> 507 324<752 754 603.5 826>
LayerCount: 2
Fore
SplineSet
818 1379 m 128,-1,1
 887 1318 887 1318 887 1233.5 c 128,-1,2
 887 1149 887 1149 817.5 1087.5 c 128,-1,3
 748 1026 748 1026 655.5 1026 c 128,-1,4
 563 1026 563 1026 494 1088 c 128,-1,5
 425 1150 425 1150 425 1234 c 128,-1,6
 425 1318 425 1318 493.5 1379 c 128,-1,7
 562 1440 562 1440 655.5 1440 c 128,-1,0
 749 1440 749 1440 818 1379 c 128,-1,1
501 382 m 0,8,9
 501 316 501 316 663 316 c 0,10,11
 729 316 729 316 810.5 334 c 128,-1,12
 892 352 892 352 929 370 c 1,13,-1
 957 58 l 1,14,15
 738 -32 738 -32 545 -32 c 0,16,17
 342.872340426 -32 342.872340426 -32 199 66 c 0,18,19
 130 113 130 113 89.5 186.5 c 128,-1,20
 49 260 49 260 49 340 c 128,-1,21
 49 420 49 420 74.5 477 c 128,-1,22
 100 534 100 534 140 570.5 c 128,-1,23
 180 607 180 607 229 636 c 128,-1,24
 278 665 278 665 327 686.5 c 128,-1,25
 376 708 376 708 416 727 c 0,26,27
 507 770.225 507 770.225 507 820 c 1,28,29
 509 862 l 1,30,-1
 509 888 l 1,31,-1
 795 888 l 1,32,33
 831 768 831 768 831 713.5 c 128,-1,34
 831 659 831 659 797 606 c 128,-1,35
 763 553 763 553 714.5 523 c 128,-1,36
 666 493 666 493 617.5 470.5 c 128,-1,37
 569 448 569 448 535 426.5 c 128,-1,38
 501 405 501 405 501 382 c 0,8,9
EndSplineSet
EndChar

StartChar: Agrave
Encoding: 192 192 128
Width: 1431
Flags: MW
HStem: 0 21G<10 10 10 472 948 948 948 1430> 270 252<574 846 574 894 530 846> 1388 20G<400 1022 1022 1022> 1500 21G<984 984> 2120 20G<510 510>
LayerCount: 2
Fore
SplineSet
302 1774 m 1,0,-1
 510 2140 l 1,1,-1
 1110 1720 l 1,2,-1
 984 1500 l 1,3,-1
 302 1774 l 1,0,-1
574 522 m 1,4,-1
 846 522 l 1,5,-1
 712 1138 l 1,6,-1
 574 522 l 1,4,-1
10 0 m 1,7,-1
 400 1408 l 1,8,-1
 1022 1408 l 1,9,-1
 1430 0 l 1,10,-1
 948 0 l 1,11,-1
 894 270 l 1,12,-1
 530 270 l 1,13,-1
 472 0 l 1,14,-1
 10 0 l 1,7,-1
EndSplineSet
EndChar

StartChar: Aacute
Encoding: 193 193 129
Width: 1431
Flags: MW
HStem: 0 21G<10 10 10 472 948 948 948 1430> 270 252<574 846 574 894 530 846> 1388 20G<400 1022 1022 1022> 1500 21G<402 402> 2120 20G<876 876>
LayerCount: 2
Fore
SplineSet
402 1500 m 1,0,-1
 276 1720 l 1,1,-1
 876 2140 l 1,2,-1
 1084 1774 l 1,3,-1
 402 1500 l 1,0,-1
574 522 m 1,4,-1
 846 522 l 1,5,-1
 712 1138 l 1,6,-1
 574 522 l 1,4,-1
10 0 m 1,7,-1
 400 1408 l 1,8,-1
 1022 1408 l 1,9,-1
 1430 0 l 1,10,-1
 948 0 l 1,11,-1
 894 270 l 1,12,-1
 530 270 l 1,13,-1
 472 0 l 1,14,-1
 10 0 l 1,7,-1
EndSplineSet
EndChar

StartChar: Acircumflex
Encoding: 194 194 130
Width: 1431
Flags: MW
HStem: 0 21G<10 10 10 472 948 948 948 1430> 270 252<574 846 574 894 530 846> 1388 20G<400 1022 1022 1022> 1480 510<269 899 521 609 811 811 811 899 521 1151>
LayerCount: 2
Fore
SplineSet
269 1480 m 1,0,-1
 521 1990 l 1,1,-1
 899 1990 l 1,2,-1
 1151 1480 l 1,3,-1
 811 1480 l 1,4,-1
 733 1698 l 1,5,-1
 709 1776 l 1,6,-1
 687 1698 l 1,7,-1
 609 1480 l 1,8,-1
 269 1480 l 1,0,-1
574 522 m 1,9,-1
 846 522 l 1,10,-1
 712 1138 l 1,11,-1
 574 522 l 1,9,-1
10 0 m 1,12,-1
 400 1408 l 1,13,-1
 1022 1408 l 1,14,-1
 1430 0 l 1,15,-1
 948 0 l 1,16,-1
 894 270 l 1,17,-1
 530 270 l 1,18,-1
 472 0 l 1,19,-1
 10 0 l 1,12,-1
EndSplineSet
EndChar

StartChar: Atilde
Encoding: 195 195 131
Width: 1431
Flags: MW
HStem: 0 21G<10 10 10 472 948 948 948 1430> 270 252<574 846 574 894 530 846> 1388 20G<400 1022 1022 1022> 1502 346<779 860 779 910> 1616 232<502.5 860> 1616 346<502.5 583>
LayerCount: 2
Fore
SplineSet
1174 1842 m 1,0,1
 1054.8045977 1502 1054.8045977 1502 840 1502 c 0,2,3
 742.857142857 1502 742.857142857 1502 665.5 1559 c 128,-1,4
 588.142857143 1616 588.142857143 1616 532 1616 c 0,5,6
 466 1616 466 1616 424 1508 c 1,7,-1
 182 1606 l 1,8,9
 250 1788 250 1788 343 1875 c 128,-1,10
 436 1962 436 1962 534 1962 c 0,11,12
 613.285714286 1962 613.285714286 1962 692 1905 c 0,13,14
 792.131252747 1852.41969231 792.131252747 1852.41969231 835.857142857 1848 c 1,15,16
 901 1848 901 1848 934 1940 c 1,17,-1
 1174 1842 l 1,0,1
574 522 m 1,18,-1
 846 522 l 1,19,-1
 712 1138 l 1,20,-1
 574 522 l 1,18,-1
10 0 m 1,21,-1
 400 1408 l 1,22,-1
 1022 1408 l 1,23,-1
 1430 0 l 1,24,-1
 948 0 l 1,25,-1
 894 270 l 1,26,-1
 530 270 l 1,27,-1
 472 0 l 1,28,-1
 10 0 l 1,21,-1
EndSplineSet
EndChar

StartChar: Adieresis
Encoding: 196 196 132
Width: 1431
Flags: MW
HStem: 0 21G<10 10 10 472 948 948 948 1430> 270 252<574 846 574 894 530 846> 1388 20G<400 1022 1022 1022> 1472 414<341 464 960 1084>
VStem: 173 460<1620.5 1733.5> 791 460<1620.5 1733.5>
LayerCount: 2
Fore
SplineSet
241 1532 m 128,-1,1
 173 1592 173 1592 173 1676.5 c 128,-1,2
 173 1761 173 1761 241.5 1823.5 c 128,-1,3
 310 1886 310 1886 402.5 1886 c 128,-1,4
 495 1886 495 1886 564 1823.5 c 128,-1,5
 633 1761 633 1761 633 1677 c 128,-1,6
 633 1593 633 1593 564.5 1532.5 c 128,-1,7
 496 1472 496 1472 402.5 1472 c 128,-1,0
 309 1472 309 1472 241 1532 c 128,-1,1
859.5 1532 m 128,-1,9
 791 1592 791 1592 791 1677 c 128,-1,10
 791 1762 791 1762 860 1824 c 128,-1,11
 929 1886 929 1886 1021.5 1886 c 128,-1,12
 1114 1886 1114 1886 1182.5 1823.5 c 128,-1,13
 1251 1761 1251 1761 1251 1677 c 128,-1,14
 1251 1593 1251 1593 1183 1532.5 c 128,-1,15
 1115 1472 1115 1472 1021.5 1472 c 128,-1,8
 928 1472 928 1472 859.5 1532 c 128,-1,9
574 522 m 1,16,-1
 846 522 l 1,17,-1
 712 1138 l 1,18,-1
 574 522 l 1,16,-1
10 0 m 1,19,-1
 400 1408 l 1,20,-1
 1022 1408 l 1,21,-1
 1430 0 l 1,22,-1
 948 0 l 1,23,-1
 894 270 l 1,24,-1
 530 270 l 1,25,-1
 472 0 l 1,26,-1
 10 0 l 1,19,-1
EndSplineSet
EndChar

StartChar: Aring
Encoding: 197 197 133
Width: 1431
Flags: MW
HStem: 0 21G<10 10 10 472 948 948 948 1430> 270 252<574 846 574 894 530 846> 1388 20G<400 1022 1022 1022> 1500 226<678.5 743 678.5 800> 1978 226<679 738>
VStem: 360 226<1812.5 1892.5 1812.5 1968> 830 232<1808 1892.5>
LayerCount: 2
Fore
SplineSet
412 1656.5 m 0,0,1
 360 1738 360 1738 360 1836.5 c 128,-1,2
 360 1935 360 1935 390 2004 c 128,-1,3
 420 2073 420 2073 470 2116 c 0,4,5
 572.325581395 2204 572.325581395 2204 712 2204 c 0,6,7
 850.674418605 2204 850.674418605 2204 953 2116 c 0,8,9
 1062 2022.26 1062 2022.26 1062 1850 c 0,10,11
 1062 1738 1062 1738 1010.5 1656.5 c 0,12,13
 911.607361963 1500 911.607361963 1500 712 1500 c 0,14,15
 511.852760736 1500 511.852760736 1500 412 1656.5 c 0,0,1
623 1944 m 128,-1,17
 586 1910 586 1910 586 1852.5 c 128,-1,18
 586 1795 586 1795 623 1760.5 c 128,-1,19
 660 1726 660 1726 711 1726 c 128,-1,20
 762 1726 762 1726 796 1758 c 128,-1,21
 830 1790 830 1790 830 1850 c 128,-1,22
 830 1910 830 1910 793.5 1944 c 128,-1,23
 757 1978 757 1978 708.5 1978 c 128,-1,16
 660 1978 660 1978 623 1944 c 128,-1,17
574 522 m 1,24,-1
 846 522 l 1,25,-1
 712 1138 l 1,26,-1
 574 522 l 1,24,-1
10 0 m 1,27,-1
 400 1408 l 1,28,-1
 1022 1408 l 1,29,-1
 1430 0 l 1,30,-1
 948 0 l 1,31,-1
 894 270 l 1,32,-1
 530 270 l 1,33,-1
 472 0 l 1,34,-1
 10 0 l 1,27,-1
EndSplineSet
EndChar

StartChar: AE
Encoding: 198 198 134
Width: 1914
Flags: MW
HStem: 0 308<1314 1842 1314 1898> 270 252<602 824 602 872 526 824> 584 258<1254 1702 1192 1752 1254 1254> 1098 310<1143 1652 476 1708 1143 1143>
LayerCount: 2
Fore
SplineSet
602 522 m 1,0,-1
 824 522 l 1,1,-1
 740 1036 l 1,2,-1
 602 522 l 1,0,-1
-6 0 m 1,3,-1
 476 1408 l 1,4,-1
 1652 1408 l 1,5,-1
 1708 1098 l 1,6,-1
 1143 1098 l 1,7,-1
 1192 842 l 1,8,-1
 1702 842 l 1,9,-1
 1752 584 l 1,10,-1
 1254 584 l 1,11,-1
 1314 308 l 1,12,-1
 1842 308 l 1,13,-1
 1898 0 l 1,14,-1
 918 0 l 1,15,-1
 872 270 l 1,16,-1
 526 270 l 1,17,-1
 442 0 l 1,18,-1
 -6 0 l 1,3,-1
EndSplineSet
EndChar

StartChar: Ccedilla
Encoding: 199 199 135
Width: 1239
Flags: MW
HStem: -508 106<670 670.5 622 779> -32 370<778 865.5> -20 20G<708 822 822 822> 1075 364<766.5 853.5 596 909>
VStem: 65 460<705 835 581 929.5> 770 224<-326 -250>
LayerCount: 2
Fore
SplineSet
518 -464 m 1,0,-1
 546 -388 l 1,1,2
 595 -402 595 -402 638 -402 c 0,3,4
 770 -402 770 -402 770 -274 c 0,5,6
 770 -234 770 -234 741.5 -207 c 128,-1,7
 713 -180 713 -180 652 -180 c 2,8,-1
 648 -180 l 1,9,-1
 699.485188289 -25.5444351333 l 1,10,11
 463.907682756 5.47958444316 463.907682756 5.47958444316 289.5 167 c 0,12,13
 188 261 188 261 127 401 c 128,-1,14
 66 541 66 541 65 705 c 0,15,16
 65 869 65 869 124 1008.5 c 128,-1,17
 183 1148 183 1148 282.5 1241 c 128,-1,18
 382 1334 382 1334 513 1386.5 c 128,-1,19
 644 1439 644 1439 787 1439 c 0,20,21
 1006 1439 1006 1439 1185 1337 c 1,22,-1
 1131 1019 l 1,23,24
 986 1075 986 1075 848 1075 c 128,-1,25
 710 1075 710 1075 617.5 983 c 128,-1,26
 525 891 525 891 525 708.5 c 128,-1,27
 525 526 525 526 622.5 432 c 128,-1,28
 720 338 720 338 877 338 c 0,29,30
 983 338 983 338 1131 396 c 1,31,-1
 1187 71 l 1,32,33
 1013.14718829 -29.0382100914 1013.14718829 -29.0382100914 810.994885167 -31.9148330149 c 1,34,-1
 782 -116 l 1,35,36
 888 -127 888 -127 941 -170.5 c 128,-1,37
 994 -214 994 -214 994 -276 c 0,38,39
 994 -369 994 -369 906.5 -438.5 c 128,-1,40
 819 -508 819 -508 712.5 -508 c 128,-1,41
 606 -508 606 -508 518 -464 c 1,0,-1
EndSplineSet
EndChar

StartChar: Egrave
Encoding: 200 200 136
Width: 1218
Flags: MW
HStem: 0 308<630 1122 630 1122> 584 258<630 1080 630 1080> 1098 310<630 1122 630 630> 1500 21G<948 948> 2120 20G<474 474>
VStem: 134 496<308 584 842 1098>
LayerCount: 2
Fore
SplineSet
266 1774 m 1,0,-1
 474 2140 l 1,1,-1
 1074 1720 l 1,2,-1
 948 1500 l 1,3,-1
 266 1774 l 1,0,-1
134 0 m 1,4,-1
 134 1408 l 1,5,-1
 1122 1408 l 1,6,-1
 1122 1098 l 1,7,-1
 630 1098 l 1,8,-1
 630 842 l 1,9,-1
 1080 842 l 1,10,-1
 1080 584 l 1,11,-1
 630 584 l 1,12,-1
 630 308 l 1,13,-1
 1122 308 l 1,14,-1
 1122 0 l 1,15,-1
 134 0 l 1,4,-1
EndSplineSet
EndChar

StartChar: Eacute
Encoding: 201 201 137
Width: 1218
Flags: MW
HStem: 0 308<630 1122 630 1122> 584 258<630 1080 630 1080> 1098 310<630 1122 630 630> 1500 21G<366 366> 2120 20G<840 840>
VStem: 134 496<308 584 842 1098>
LayerCount: 2
Fore
SplineSet
366 1500 m 1,0,-1
 240 1720 l 1,1,-1
 840 2140 l 1,2,-1
 1048 1774 l 1,3,-1
 366 1500 l 1,0,-1
134 0 m 1,4,-1
 134 1408 l 1,5,-1
 1122 1408 l 1,6,-1
 1122 1098 l 1,7,-1
 630 1098 l 1,8,-1
 630 842 l 1,9,-1
 1080 842 l 1,10,-1
 1080 584 l 1,11,-1
 630 584 l 1,12,-1
 630 308 l 1,13,-1
 1122 308 l 1,14,-1
 1122 0 l 1,15,-1
 134 0 l 1,4,-1
EndSplineSet
EndChar

StartChar: Ecircumflex
Encoding: 202 202 138
Width: 1218
Flags: MW
HStem: 0 308<630 1122 630 1122> 584 258<630 1080 630 1080> 1098 310<630 1122 630 630> 1480 510<204 834 456 544 746 746 746 834 456 1086>
VStem: 134 496<308 584 842 1098>
LayerCount: 2
Fore
SplineSet
204 1480 m 1,0,-1
 456 1990 l 1,1,-1
 834 1990 l 1,2,-1
 1086 1480 l 1,3,-1
 746 1480 l 1,4,-1
 668 1698 l 1,5,-1
 644 1776 l 1,6,-1
 622 1698 l 1,7,-1
 544 1480 l 1,8,-1
 204 1480 l 1,0,-1
134 0 m 1,9,-1
 134 1408 l 1,10,-1
 1122 1408 l 1,11,-1
 1122 1098 l 1,12,-1
 630 1098 l 1,13,-1
 630 842 l 1,14,-1
 1080 842 l 1,15,-1
 1080 584 l 1,16,-1
 630 584 l 1,17,-1
 630 308 l 1,18,-1
 1122 308 l 1,19,-1
 1122 0 l 1,20,-1
 134 0 l 1,9,-1
EndSplineSet
EndChar

StartChar: Edieresis
Encoding: 203 203 139
Width: 1218
Flags: MW
HStem: 0 308<630 1122 630 1122> 584 258<630 1080 630 1080> 1098 310<630 1122 630 630> 1472 414<272 395 891 1015>
VStem: 104 460<1620.5 1733.5> 134 496<308 584 842 1098> 722 460<1620.5 1733.5>
LayerCount: 2
Fore
SplineSet
172 1532 m 128,-1,1
 104 1592 104 1592 104 1676.5 c 128,-1,2
 104 1761 104 1761 172.5 1823.5 c 128,-1,3
 241 1886 241 1886 333.5 1886 c 128,-1,4
 426 1886 426 1886 495 1823.5 c 128,-1,5
 564 1761 564 1761 564 1677 c 128,-1,6
 564 1593 564 1593 495.5 1532.5 c 128,-1,7
 427 1472 427 1472 333.5 1472 c 128,-1,0
 240 1472 240 1472 172 1532 c 128,-1,1
790.5 1532 m 128,-1,9
 722 1592 722 1592 722 1677 c 128,-1,10
 722 1762 722 1762 791 1824 c 128,-1,11
 860 1886 860 1886 952.5 1886 c 128,-1,12
 1045 1886 1045 1886 1113.5 1823.5 c 128,-1,13
 1182 1761 1182 1761 1182 1677 c 128,-1,14
 1182 1593 1182 1593 1114 1532.5 c 128,-1,15
 1046 1472 1046 1472 952.5 1472 c 128,-1,8
 859 1472 859 1472 790.5 1532 c 128,-1,9
134 0 m 1,16,-1
 134 1408 l 1,17,-1
 1122 1408 l 1,18,-1
 1122 1098 l 1,19,-1
 630 1098 l 1,20,-1
 630 842 l 1,21,-1
 1080 842 l 1,22,-1
 1080 584 l 1,23,-1
 630 584 l 1,24,-1
 630 308 l 1,25,-1
 1122 308 l 1,26,-1
 1122 0 l 1,27,-1
 134 0 l 1,16,-1
EndSplineSet
EndChar

StartChar: Igrave
Encoding: 204 204 140
Width: 740
Flags: MW
HStem: 0 21G<134 134 134 606> 1388 20G<134 606 606 606> 1500 21G<670 670> 2120 20G<196 196>
VStem: 134 472<0 1408 0 1408>
LayerCount: 2
Fore
SplineSet
-12 1774 m 1,0,-1
 196 2140 l 1,1,-1
 796 1720 l 1,2,-1
 670 1500 l 1,3,-1
 -12 1774 l 1,0,-1
134 0 m 1,4,-1
 134 1408 l 1,5,-1
 606 1408 l 1,6,-1
 606 0 l 1,7,-1
 134 0 l 1,4,-1
EndSplineSet
EndChar

StartChar: Iacute
Encoding: 205 205 141
Width: 740
Flags: MW
HStem: 0 21G<134 134 134 606> 1388 20G<134 606 606 606> 1500 21G<88 88> 2120 20G<562 562>
VStem: 134 472<0 1408 0 1408>
LayerCount: 2
Fore
SplineSet
88 1500 m 1,0,-1
 -38 1720 l 1,1,-1
 562 2140 l 1,2,-1
 770 1774 l 1,3,-1
 88 1500 l 1,0,-1
134 0 m 1,4,-1
 134 1408 l 1,5,-1
 606 1408 l 1,6,-1
 606 0 l 1,7,-1
 134 0 l 1,4,-1
EndSplineSet
EndChar

StartChar: Icircumflex
Encoding: 206 206 142
Width: 740
Flags: MW
HStem: 0 21G<134 134 134 606> 1388 20G<134 606 606 606> 1480 510<-74 556 178 266 468 468 468 556 178 808>
VStem: 134 472<0 1408 0 1408>
LayerCount: 2
Fore
SplineSet
-74 1480 m 1,0,-1
 178 1990 l 1,1,-1
 556 1990 l 1,2,-1
 808 1480 l 1,3,-1
 468 1480 l 1,4,-1
 390 1698 l 1,5,-1
 366 1776 l 1,6,-1
 344 1698 l 1,7,-1
 266 1480 l 1,8,-1
 -74 1480 l 1,0,-1
134 0 m 1,9,-1
 134 1408 l 1,10,-1
 606 1408 l 1,11,-1
 606 0 l 1,12,-1
 134 0 l 1,9,-1
EndSplineSet
EndChar

StartChar: Idieresis
Encoding: 207 207 143
Width: 740
Flags: MW
HStem: 0 21G<134 134 134 606> 1388 20G<134 606 606 606> 1472 414<-4 119 615 739>
VStem: -172 460<1620.5 1733.5> 134 472<0 1408 0 1408> 446 460<1620.5 1733.5>
LayerCount: 2
Fore
SplineSet
-104 1532 m 128,-1,1
 -172 1592 -172 1592 -172 1676.5 c 128,-1,2
 -172 1761 -172 1761 -103.5 1823.5 c 128,-1,3
 -35 1886 -35 1886 57.5 1886 c 128,-1,4
 150 1886 150 1886 219 1823.5 c 128,-1,5
 288 1761 288 1761 288 1677 c 128,-1,6
 288 1593 288 1593 219.5 1532.5 c 128,-1,7
 151 1472 151 1472 57.5 1472 c 128,-1,0
 -36 1472 -36 1472 -104 1532 c 128,-1,1
514.5 1532 m 128,-1,9
 446 1592 446 1592 446 1677 c 128,-1,10
 446 1762 446 1762 515 1824 c 128,-1,11
 584 1886 584 1886 676.5 1886 c 128,-1,12
 769 1886 769 1886 837.5 1823.5 c 128,-1,13
 906 1761 906 1761 906 1677 c 128,-1,14
 906 1593 906 1593 838 1532.5 c 128,-1,15
 770 1472 770 1472 676.5 1472 c 128,-1,8
 583 1472 583 1472 514.5 1532 c 128,-1,9
134 0 m 1,16,-1
 134 1408 l 1,17,-1
 606 1408 l 1,18,-1
 606 0 l 1,19,-1
 134 0 l 1,16,-1
EndSplineSet
EndChar

StartChar: Eth
Encoding: 208 208 144
Width: 1618
Flags: MW
HStem: 0 368<639 799 639 799> 618 174<3 187 3 187 639 801> 1008 368<639 799 639 639>
VStem: 187 452<368 368 368 618 368 618 792 1008> 1093 460<617 775>
LayerCount: 2
Fore
SplineSet
639 368 m 1,0,-1
 799 368 l 2,1,2
 936 368 936 368 1014.5 467 c 128,-1,3
 1093 566 1093 566 1093 702 c 0,4,5
 1093 816.685714286 1093 816.685714286 1020 909.5 c 0,6,7
 942.528089888 1008 942.528089888 1008 799 1008 c 2,8,-1
 639 1008 l 1,9,-1
 639 792 l 1,10,-1
 801 792 l 1,11,-1
 801 618 l 1,12,-1
 639 618 l 1,13,-1
 639 368 l 1,0,-1
187 618 m 1,14,-1
 3 618 l 1,15,-1
 3 792 l 1,16,-1
 187 792 l 1,17,-1
 187 1376 l 1,18,-1
 799 1376 l 2,19,20
 1218.43352601 1376 1218.43352601 1376 1430.5 1082.5 c 0,21,22
 1553 912.96 1553 912.96 1553 698 c 0,23,24
 1553 474.129032258 1553 474.129032258 1431 299 c 0,25,26
 1299.35125448 110.020349173 1299.35125448 110.020349173 1069 38.5 c 0,27,28
 945 0 945 0 799 0 c 2,29,-1
 187 0 l 1,30,-1
 187 618 l 1,14,-1
EndSplineSet
EndChar

StartChar: Ntilde
Encoding: 209 209 145
Width: 1606
Flags: MW
HStem: 0 21G<134 134 134 498 1062 1062 1062 1472> 1388 20G<134 544 544 544 1106 1472 1472 1472> 1502 346<921 1002 921 1052> 1616 232<644.5 1002> 1616 346<644.5 725>
VStem: 134 364<0 734 0 1408> 1106 366<650 1408 0 1408>
LayerCount: 2
Fore
SplineSet
1316 1842 m 1,0,1
 1196.8045977 1502 1196.8045977 1502 982 1502 c 0,2,3
 884.857142857 1502 884.857142857 1502 807.5 1559 c 128,-1,4
 730.142857143 1616 730.142857143 1616 674 1616 c 0,5,6
 608 1616 608 1616 566 1508 c 1,7,-1
 324 1606 l 1,8,9
 392 1788 392 1788 485 1875 c 128,-1,10
 578 1962 578 1962 676 1962 c 0,11,12
 755.285714286 1962 755.285714286 1962 834 1905 c 128,-1,13
 912.714285714 1848 912.714285714 1848 977.857142857 1848 c 128,-1,14
 1043 1848 1043 1848 1076 1940 c 1,15,-1
 1316 1842 l 1,0,1
134 0 m 1,16,-1
 134 1408 l 1,17,-1
 544 1408 l 1,18,-1
 1106 650 l 1,19,-1
 1106 1408 l 1,20,-1
 1472 1408 l 1,21,-1
 1472 0 l 1,22,-1
 1062 0 l 1,23,-1
 498 734 l 1,24,-1
 498 0 l 1,25,-1
 134 0 l 1,16,-1
EndSplineSet
EndChar

StartChar: Ograve
Encoding: 210 210 146
Width: 1634
Flags: MW
HStem: -32 372<719.5 916 719.5 1069> 1080 359<818 818> 1500 21G<1108 1108> 2120 20G<634 634>
VStem: 64 458<612 798 612 896.5> 1112 458<612 798.5>
LayerCount: 2
Fore
SplineSet
426 1774 m 1,0,-1
 634 2140 l 1,1,-1
 1234 1720 l 1,2,-1
 1108 1500 l 1,3,-1
 426 1774 l 1,0,-1
818 340 m 128,-1,5
 912 340 912 340 980.5 393.5 c 0,6,7
 1112 496.204379562 1112 496.204379562 1112 704 c 0,8,9
 1112 856 1112 856 1035.5 965 c 128,-1,10
 959 1074 959 1074 818 1080 c 1,11,12
 672.857294009 1077.98412908 672.857294009 1077.98412908 594.5 961 c 0,13,14
 522 852.76056338 522 852.76056338 522 704 c 0,15,16
 522 496.623188406 522 496.623188406 655 393.5 c 0,17,4
 724 340 724 340 818 340 c 128,-1,5
93.5 486.5 m 128,-1,19
 64 592 64 592 64 705.5 c 128,-1,20
 64 819 64 819 95 928 c 128,-1,21
 126 1037 126 1037 189.5 1130 c 128,-1,22
 253 1223 253 1223 342 1292 c 0,23,24
 531.608695652 1439 531.608695652 1439 818 1439 c 0,25,26
 1236.49462366 1439 1236.49462366 1439 1445.5 1128 c 0,27,28
 1570 942.744 1570 942.744 1570 702 c 0,29,30
 1570 470.451612903 1570 470.451612903 1449 287 c 0,31,32
 1315.98181818 85.3272727273 1315.98181818 85.3272727273 1088.5 9.5 c 0,33,34
 964 -32 964 -32 818 -32 c 128,-1,35
 672 -32 672 -32 547.5 9.5 c 128,-1,36
 423 51 423 51 335.5 122 c 128,-1,37
 248 193 248 193 185.5 287 c 128,-1,18
 123 381 123 381 93.5 486.5 c 128,-1,19
EndSplineSet
EndChar

StartChar: Oacute
Encoding: 211 211 147
Width: 1634
Flags: MW
HStem: -32 372<719.5 916 719.5 1069> 1080 359<818 818> 1500 21G<526 526> 2120 20G<1000 1000>
VStem: 64 458<612 798 612 896.5> 1112 458<612 798.5>
LayerCount: 2
Fore
SplineSet
526 1500 m 1,0,-1
 400 1720 l 1,1,-1
 1000 2140 l 1,2,-1
 1208 1774 l 1,3,-1
 526 1500 l 1,0,-1
818 340 m 128,-1,5
 912 340 912 340 980.5 393.5 c 0,6,7
 1112 496.204379562 1112 496.204379562 1112 704 c 0,8,9
 1112 856 1112 856 1035.5 965 c 128,-1,10
 959 1074 959 1074 818 1080 c 1,11,12
 672.857294009 1077.98412908 672.857294009 1077.98412908 594.5 961 c 0,13,14
 522 852.76056338 522 852.76056338 522 704 c 0,15,16
 522 496.623188406 522 496.623188406 655 393.5 c 0,17,4
 724 340 724 340 818 340 c 128,-1,5
93.5 486.5 m 128,-1,19
 64 592 64 592 64 705.5 c 128,-1,20
 64 819 64 819 95 928 c 128,-1,21
 126 1037 126 1037 189.5 1130 c 128,-1,22
 253 1223 253 1223 342 1292 c 0,23,24
 531.608695652 1439 531.608695652 1439 818 1439 c 0,25,26
 1236.49462366 1439 1236.49462366 1439 1445.5 1128 c 0,27,28
 1570 942.744 1570 942.744 1570 702 c 0,29,30
 1570 470.451612903 1570 470.451612903 1449 287 c 0,31,32
 1315.98181818 85.3272727273 1315.98181818 85.3272727273 1088.5 9.5 c 0,33,34
 964 -32 964 -32 818 -32 c 128,-1,35
 672 -32 672 -32 547.5 9.5 c 128,-1,36
 423 51 423 51 335.5 122 c 128,-1,37
 248 193 248 193 185.5 287 c 128,-1,18
 123 381 123 381 93.5 486.5 c 128,-1,19
EndSplineSet
EndChar

StartChar: Ocircumflex
Encoding: 212 212 148
Width: 1634
Flags: MW
HStem: -32 372<719.5 916 719.5 1069> 1080 359<818 818> 1480 510<362 992 614 702 904 904 904 992 614 1244>
VStem: 64 458<612 798 612 896.5> 1112 458<612 798.5>
LayerCount: 2
Fore
SplineSet
362 1480 m 1,0,-1
 614 1990 l 1,1,-1
 992 1990 l 1,2,-1
 1244 1480 l 1,3,-1
 904 1480 l 1,4,-1
 826 1698 l 1,5,-1
 802 1776 l 1,6,-1
 780 1698 l 1,7,-1
 702 1480 l 1,8,-1
 362 1480 l 1,0,-1
818 340 m 128,-1,10
 912 340 912 340 980.5 393.5 c 0,11,12
 1112 496.204379562 1112 496.204379562 1112 704 c 0,13,14
 1112 856 1112 856 1035.5 965 c 128,-1,15
 959 1074 959 1074 818 1080 c 1,16,17
 672.857294009 1077.98412908 672.857294009 1077.98412908 594.5 961 c 0,18,19
 522 852.76056338 522 852.76056338 522 704 c 0,20,21
 522 496.623188406 522 496.623188406 655 393.5 c 0,22,9
 724 340 724 340 818 340 c 128,-1,10
93.5 486.5 m 128,-1,24
 64 592 64 592 64 705.5 c 128,-1,25
 64 819 64 819 95 928 c 128,-1,26
 126 1037 126 1037 189.5 1130 c 128,-1,27
 253 1223 253 1223 342 1292 c 0,28,29
 531.608695652 1439 531.608695652 1439 818 1439 c 0,30,31
 1236.49462366 1439 1236.49462366 1439 1445.5 1128 c 0,32,33
 1570 942.744 1570 942.744 1570 702 c 0,34,35
 1570 470.451612903 1570 470.451612903 1449 287 c 0,36,37
 1315.98181818 85.3272727273 1315.98181818 85.3272727273 1088.5 9.5 c 0,38,39
 964 -32 964 -32 818 -32 c 128,-1,40
 672 -32 672 -32 547.5 9.5 c 128,-1,41
 423 51 423 51 335.5 122 c 128,-1,42
 248 193 248 193 185.5 287 c 128,-1,23
 123 381 123 381 93.5 486.5 c 128,-1,24
EndSplineSet
EndChar

StartChar: Otilde
Encoding: 213 213 149
Width: 1634
Flags: MW
HStem: -32 372<719.5 916 719.5 1069> 1080 359<818 818> 1502 346<903 984 903 1034> 1616 232<626.5 984> 1616 346<626.5 707>
VStem: 64 458<612 798 612 896.5> 1112 458<612 798.5>
LayerCount: 2
Fore
SplineSet
1298 1842 m 1,0,1
 1178.8045977 1502 1178.8045977 1502 964 1502 c 0,2,3
 866.857142857 1502 866.857142857 1502 789.5 1559 c 128,-1,4
 712.142857143 1616 712.142857143 1616 656 1616 c 0,5,6
 590 1616 590 1616 548 1508 c 1,7,-1
 306 1606 l 1,8,9
 374 1788 374 1788 467 1875 c 128,-1,10
 560 1962 560 1962 658 1962 c 0,11,12
 737.285714286 1962 737.285714286 1962 816 1905 c 128,-1,13
 894.714285714 1848 894.714285714 1848 959.857142857 1848 c 128,-1,14
 1025 1848 1025 1848 1058 1940 c 1,15,-1
 1298 1842 l 1,0,1
818 340 m 128,-1,17
 912 340 912 340 980.5 393.5 c 0,18,19
 1112 496.204379562 1112 496.204379562 1112 704 c 0,20,21
 1112 856 1112 856 1035.5 965 c 128,-1,22
 959 1074 959 1074 818 1080 c 1,23,24
 672.857294009 1077.98412908 672.857294009 1077.98412908 594.5 961 c 0,25,26
 522 852.76056338 522 852.76056338 522 704 c 0,27,28
 522 496.623188406 522 496.623188406 655 393.5 c 0,29,16
 724 340 724 340 818 340 c 128,-1,17
93.5 486.5 m 128,-1,31
 64 592 64 592 64 705.5 c 128,-1,32
 64 819 64 819 95 928 c 128,-1,33
 126 1037 126 1037 189.5 1130 c 128,-1,34
 253 1223 253 1223 342 1292 c 0,35,36
 531.608695652 1439 531.608695652 1439 818 1439 c 0,37,38
 1236.49462366 1439 1236.49462366 1439 1445.5 1128 c 0,39,40
 1570 942.744 1570 942.744 1570 702 c 0,41,42
 1570 470.451612903 1570 470.451612903 1449 287 c 0,43,44
 1315.98181818 85.3272727273 1315.98181818 85.3272727273 1088.5 9.5 c 0,45,46
 964 -32 964 -32 818 -32 c 128,-1,47
 672 -32 672 -32 547.5 9.5 c 128,-1,48
 423 51 423 51 335.5 122 c 128,-1,49
 248 193 248 193 185.5 287 c 128,-1,30
 123 381 123 381 93.5 486.5 c 128,-1,31
EndSplineSet
EndChar

StartChar: Odieresis
Encoding: 214 214 150
Width: 1634
Flags: MW
HStem: -32 372<719.5 916 719.5 1069> 1080 359<818 818> 1472 414<432 555 1051 1175>
VStem: 64 458<612 798 612 896.5> 264 460<1620.5 1733.5> 882 460<1620.5 1733.5> 1112 458<612 798.5>
LayerCount: 2
Fore
SplineSet
332 1532 m 128,-1,1
 264 1592 264 1592 264 1676.5 c 128,-1,2
 264 1761 264 1761 332.5 1823.5 c 128,-1,3
 401 1886 401 1886 493.5 1886 c 128,-1,4
 586 1886 586 1886 655 1823.5 c 128,-1,5
 724 1761 724 1761 724 1677 c 128,-1,6
 724 1593 724 1593 655.5 1532.5 c 128,-1,7
 587 1472 587 1472 493.5 1472 c 128,-1,0
 400 1472 400 1472 332 1532 c 128,-1,1
950.5 1532 m 128,-1,9
 882 1592 882 1592 882 1677 c 128,-1,10
 882 1762 882 1762 951 1824 c 128,-1,11
 1020 1886 1020 1886 1112.5 1886 c 128,-1,12
 1205 1886 1205 1886 1273.5 1823.5 c 128,-1,13
 1342 1761 1342 1761 1342 1677 c 128,-1,14
 1342 1593 1342 1593 1274 1532.5 c 128,-1,15
 1206 1472 1206 1472 1112.5 1472 c 128,-1,8
 1019 1472 1019 1472 950.5 1532 c 128,-1,9
818 340 m 128,-1,17
 912 340 912 340 980.5 393.5 c 0,18,19
 1112 496.204379562 1112 496.204379562 1112 704 c 0,20,21
 1112 856 1112 856 1035.5 965 c 128,-1,22
 959 1074 959 1074 818 1080 c 1,23,24
 672.857294009 1077.98412908 672.857294009 1077.98412908 594.5 961 c 0,25,26
 522 852.76056338 522 852.76056338 522 704 c 0,27,28
 522 496.623188406 522 496.623188406 655 393.5 c 0,29,16
 724 340 724 340 818 340 c 128,-1,17
93.5 486.5 m 128,-1,31
 64 592 64 592 64 705.5 c 128,-1,32
 64 819 64 819 95 928 c 128,-1,33
 126 1037 126 1037 189.5 1130 c 128,-1,34
 253 1223 253 1223 342 1292 c 0,35,36
 531.608695652 1439 531.608695652 1439 818 1439 c 0,37,38
 1236.49462366 1439 1236.49462366 1439 1445.5 1128 c 0,39,40
 1570 942.744 1570 942.744 1570 702 c 0,41,42
 1570 470.451612903 1570 470.451612903 1449 287 c 0,43,44
 1315.98181818 85.3272727273 1315.98181818 85.3272727273 1088.5 9.5 c 0,45,46
 964 -32 964 -32 818 -32 c 128,-1,47
 672 -32 672 -32 547.5 9.5 c 128,-1,48
 423 51 423 51 335.5 122 c 128,-1,49
 248 193 248 193 185.5 287 c 128,-1,30
 123 381 123 381 93.5 486.5 c 128,-1,31
EndSplineSet
EndChar

StartChar: multiply
Encoding: 215 215 151
Width: 941
Flags: MW
HStem: 122 21G<156 156 786 786> 900 20G<150 150 792 792>
LayerCount: 2
Fore
SplineSet
74 202 m 1,0,-1
 386 514 l 1,1,-1
 66 836 l 1,2,-1
 150 920 l 1,3,-1
 472 600 l 1,4,-1
 792 920 l 1,5,-1
 876 836 l 1,6,-1
 558 514 l 1,7,-1
 868 202 l 1,8,-1
 786 122 l 1,9,-1
 472 434 l 1,10,-1
 156 122 l 1,11,-1
 74 202 l 1,0,-1
EndSplineSet
EndChar

StartChar: Oslash
Encoding: 216 216 152
Width: 1636
Flags: MW
HStem: -340 21G<492 628 492 492> -32 372<803 819 819 917 803 1070> 1080 359<819 819> 1657 20G<1007 1147 1147 1147>
VStem: 65 458<637.5 798 637.5 896.5> 1113 458<612 768>
LayerCount: 2
Fore
SplineSet
803 340 m 1,0,-1
 819 340 l 2,1,2
 913 340 913 340 981.5 393.5 c 0,3,4
 1113 496.204379562 1113 496.204379562 1113 704 c 0,5,6
 1113 803 1113 803 1079 888.5 c 128,-1,7
 1045 974 1045 974 979 1024 c 1,8,-1
 803 340 l 1,0,-1
853 1076 m 1,9,10
 847 1078 847 1078 797 1078.5 c 0,11,12
 796.242424242 1078.50757576 796.242424242 1078.50757576 795.483011938 1078.50757576 c 0,13,14
 746.121212121 1078.50757576 746.121212121 1078.50757576 689 1046.5 c 0,15,16
 631 1014 631 1014 595.5 961 c 0,17,18
 523 852.76056338 523 852.76056338 523 726.88028169 c 0,19,20
 523 475.540540541 523 475.540540541 675 379 c 1,21,-1
 853 1076 l 1,9,10
98 478.5 m 128,-1,23
 65 588 65 588 65 703.5 c 128,-1,24
 65 819 65 819 96 928 c 128,-1,25
 127 1037 127 1037 190.5 1130 c 128,-1,26
 254 1223 254 1223 343 1292 c 0,27,28
 532.608695652 1439 532.608695652 1439 819 1439 c 0,29,30
 880 1439 880 1439 944 1431 c 1,31,-1
 1007 1677 l 1,32,-1
 1147 1677 l 1,33,-1
 1076 1402 l 1,34,35
 1311 1328 1311 1328 1441 1136 c 128,-1,36
 1571 944 1571 944 1571 702 c 0,37,38
 1571 470.451612903 1571 470.451612903 1450 287 c 0,39,40
 1316.98181818 85.3272727273 1316.98181818 85.3272727273 1089.5 9.5 c 0,41,42
 965 -32 965 -32 819 -32 c 0,43,44
 762 -32 762 -32 709 -26 c 1,45,-1
 628 -340 l 1,46,-1
 492 -340 l 1,47,-1
 579 0 l 1,48,49
 454 35 454 35 355 107.5 c 128,-1,50
 256 180 256 180 193.5 274.5 c 128,-1,22
 131 369 131 369 98 478.5 c 128,-1,23
EndSplineSet
EndChar

StartChar: Ugrave
Encoding: 217 217 153
Width: 1636
Flags: MW
HStem: -32 370<754 878 754 997> 1388 20G<122 584 584 584 1052 1514 1514 1514> 1500 21G<1126 1126> 2120 20G<652 652>
VStem: 122 462<584 1408> 1052 462<584 1408>
LayerCount: 2
Fore
SplineSet
444 1774 m 1,0,-1
 652 2140 l 1,1,-1
 1252 1720 l 1,2,-1
 1126 1500 l 1,3,-1
 444 1774 l 1,0,-1
122 584 m 2,4,-1
 122 1408 l 1,5,-1
 584 1408 l 1,6,-1
 584 584 l 2,7,8
 584 338 584 338 818 338 c 0,9,10
 914.333333333 338 914.333333333 338 979.5 389 c 0,11,12
 1052 445.739130435 1052 445.739130435 1052 584 c 2,13,-1
 1052 1408 l 1,14,-1
 1514 1408 l 1,15,-1
 1514 584 l 2,16,17
 1514 437 1514 437 1456 318 c 128,-1,18
 1398 199 1398 199 1300 124 c 128,-1,19
 1202 49 1202 49 1078 8.5 c 128,-1,20
 954 -32 954 -32 818 -32 c 128,-1,21
 682 -32 682 -32 558 8.5 c 128,-1,22
 434 49 434 49 336 124 c 128,-1,23
 238 199 238 199 180 318 c 128,-1,24
 122 437 122 437 122 584 c 2,4,-1
EndSplineSet
EndChar

StartChar: Uacute
Encoding: 218 218 154
Width: 1636
Flags: MW
HStem: -32 370<754 878 754 997> 1388 20G<122 584 584 584 1052 1514 1514 1514> 1500 21G<544 544> 2120 20G<1018 1018>
VStem: 122 462<584 1408> 1052 462<584 1408>
LayerCount: 2
Fore
SplineSet
544 1500 m 1,0,-1
 418 1720 l 1,1,-1
 1018 2140 l 1,2,-1
 1226 1774 l 1,3,-1
 544 1500 l 1,0,-1
122 584 m 2,4,-1
 122 1408 l 1,5,-1
 584 1408 l 1,6,-1
 584 584 l 2,7,8
 584 338 584 338 818 338 c 0,9,10
 914.333333333 338 914.333333333 338 979.5 389 c 0,11,12
 1052 445.739130435 1052 445.739130435 1052 584 c 2,13,-1
 1052 1408 l 1,14,-1
 1514 1408 l 1,15,-1
 1514 584 l 2,16,17
 1514 437 1514 437 1456 318 c 128,-1,18
 1398 199 1398 199 1300 124 c 128,-1,19
 1202 49 1202 49 1078 8.5 c 128,-1,20
 954 -32 954 -32 818 -32 c 128,-1,21
 682 -32 682 -32 558 8.5 c 128,-1,22
 434 49 434 49 336 124 c 128,-1,23
 238 199 238 199 180 318 c 128,-1,24
 122 437 122 437 122 584 c 2,4,-1
EndSplineSet
EndChar

StartChar: Ucircumflex
Encoding: 219 219 155
Width: 1636
Flags: MW
HStem: -32 370<754 878 754 997> 1388 20G<122 584 584 584 1052 1514 1514 1514> 1480 510<380 1010 632 720 922 922 922 1010 632 1262>
VStem: 122 462<584 1408> 1052 462<584 1408>
LayerCount: 2
Fore
SplineSet
380 1480 m 1,0,-1
 632 1990 l 1,1,-1
 1010 1990 l 1,2,-1
 1262 1480 l 1,3,-1
 922 1480 l 1,4,-1
 844 1698 l 1,5,-1
 820 1776 l 1,6,-1
 798 1698 l 1,7,-1
 720 1480 l 1,8,-1
 380 1480 l 1,0,-1
122 584 m 2,9,-1
 122 1408 l 1,10,-1
 584 1408 l 1,11,-1
 584 584 l 2,12,13
 584 338 584 338 818 338 c 0,14,15
 914.333333333 338 914.333333333 338 979.5 389 c 0,16,17
 1052 445.739130435 1052 445.739130435 1052 584 c 2,18,-1
 1052 1408 l 1,19,-1
 1514 1408 l 1,20,-1
 1514 584 l 2,21,22
 1514 437 1514 437 1456 318 c 128,-1,23
 1398 199 1398 199 1300 124 c 128,-1,24
 1202 49 1202 49 1078 8.5 c 128,-1,25
 954 -32 954 -32 818 -32 c 128,-1,26
 682 -32 682 -32 558 8.5 c 128,-1,27
 434 49 434 49 336 124 c 128,-1,28
 238 199 238 199 180 318 c 128,-1,29
 122 437 122 437 122 584 c 2,9,-1
EndSplineSet
EndChar

StartChar: Udieresis
Encoding: 220 220 156
Width: 1636
Flags: MW
HStem: -32 370<754 878 754 997> 1388 20G<122 584 584 584 1052 1514 1514 1514> 1472 414<450 573 1069 1193>
VStem: 122 462<584 1408> 282 460<1620.5 1733.5> 900 460<1620.5 1733.5> 1052 462<584 1408>
LayerCount: 2
Fore
SplineSet
350 1532 m 128,-1,1
 282 1592 282 1592 282 1676.5 c 128,-1,2
 282 1761 282 1761 350.5 1823.5 c 128,-1,3
 419 1886 419 1886 511.5 1886 c 128,-1,4
 604 1886 604 1886 673 1823.5 c 128,-1,5
 742 1761 742 1761 742 1677 c 128,-1,6
 742 1593 742 1593 673.5 1532.5 c 128,-1,7
 605 1472 605 1472 511.5 1472 c 128,-1,0
 418 1472 418 1472 350 1532 c 128,-1,1
968.5 1532 m 128,-1,9
 900 1592 900 1592 900 1677 c 128,-1,10
 900 1762 900 1762 969 1824 c 128,-1,11
 1038 1886 1038 1886 1130.5 1886 c 128,-1,12
 1223 1886 1223 1886 1291.5 1823.5 c 128,-1,13
 1360 1761 1360 1761 1360 1677 c 128,-1,14
 1360 1593 1360 1593 1292 1532.5 c 128,-1,15
 1224 1472 1224 1472 1130.5 1472 c 128,-1,8
 1037 1472 1037 1472 968.5 1532 c 128,-1,9
122 584 m 2,16,-1
 122 1408 l 1,17,-1
 584 1408 l 1,18,-1
 584 584 l 2,19,20
 584 338 584 338 818 338 c 0,21,22
 914.333333333 338 914.333333333 338 979.5 389 c 0,23,24
 1052 445.739130435 1052 445.739130435 1052 584 c 2,25,-1
 1052 1408 l 1,26,-1
 1514 1408 l 1,27,-1
 1514 584 l 2,28,29
 1514 437 1514 437 1456 318 c 128,-1,30
 1398 199 1398 199 1300 124 c 128,-1,31
 1202 49 1202 49 1078 8.5 c 128,-1,32
 954 -32 954 -32 818 -32 c 128,-1,33
 682 -32 682 -32 558 8.5 c 128,-1,34
 434 49 434 49 336 124 c 128,-1,35
 238 199 238 199 180 318 c 128,-1,36
 122 437 122 437 122 584 c 2,16,-1
EndSplineSet
EndChar

StartChar: Yacute
Encoding: 221 221 157
Width: 1253
Flags: MW
HStem: 0 21G<400 400 400 840> 1388 20G<-6 422 422 422 816 1266 1266 1266> 1500 21G<374 374> 2120 20G<848 848>
VStem: 400 440<0 392 0 392>
LayerCount: 2
Fore
SplineSet
374 1500 m 1,0,-1
 248 1720 l 1,1,-1
 848 2140 l 1,2,-1
 1056 1774 l 1,3,-1
 374 1500 l 1,0,-1
400 0 m 1,4,-1
 400 392 l 1,5,-1
 -6 1408 l 1,6,-1
 422 1408 l 1,7,-1
 620 776 l 1,8,-1
 816 1408 l 1,9,-1
 1266 1408 l 1,10,-1
 840 392 l 1,11,-1
 840 0 l 1,12,-1
 400 0 l 1,4,-1
EndSplineSet
EndChar

StartChar: Thorn
Encoding: 222 222 158
Width: 1334
Flags: MW
HStem: 0 21G<134 134 134 574> 340 284<648 660 574 736.5> 972 294<574 642 574 642 642 662> 1388 20G<134 574 574 574>
VStem: 134 440<0 340 0 628 628 972 1266 1408> 890 412<746 844>
LayerCount: 2
Fore
SplineSet
574 972 m 1,0,-1
 574 628 l 1,1,2
 605 624 605 624 662 624 c 0,3,4
 772 624 772 624 831 671 c 128,-1,5
 890 718 890 718 890 794.5 c 128,-1,6
 890 871 890 871 829.5 921.5 c 128,-1,7
 769 972 769 972 662 972 c 2,8,-1
 574 972 l 1,0,-1
134 0 m 1,9,-1
 134 1408 l 1,10,-1
 574 1408 l 1,11,-1
 574 1266 l 1,12,-1
 642 1266 l 2,13,14
 1049.09090909 1266 1049.09090909 1266 1211.5 1067.5 c 0,15,16
 1302 956.888888889 1302 956.888888889 1302 800 c 0,17,18
 1302 619.832258065 1302 619.832258065 1142.5 484 c 0,19,20
 1065 418 1065 418 940 379 c 128,-1,21
 815 340 815 340 660 340 c 2,22,-1
 574 340 l 1,23,-1
 574 0 l 1,24,-1
 134 0 l 1,9,-1
EndSplineSet
EndChar

StartChar: germandbls
Encoding: 223 223 159
Width: 1448
Flags: MW
HStem: -92 328<776 834 752 1016> 1168 272<640 755>
VStem: 106 440<0 1030 0 1104 0 1189.5> 704 510<718 1177 908 1177> 874 340<1035.5 1080> 970 440<410 487 277.5 519.5>
LayerCount: 2
Fore
SplineSet
800 -92 m 1,0,-1
 664 -90 l 1,1,-1
 664 240 l 1,2,3
 715 236 715 236 764 236 c 0,4,5
 863 236 863 236 916.5 304.5 c 128,-1,6
 970 373 970 373 970 462 c 128,-1,7
 970 551 970 551 903 620.5 c 128,-1,8
 836 690 836 690 704 718 c 1,9,-1
 704 908 l 1,10,11
 782 922 782 922 828 962.5 c 128,-1,12
 874 1003 874 1003 874 1051 c 128,-1,13
 874 1099 874 1099 827 1133.5 c 128,-1,14
 780 1168 780 1168 700 1168 c 128,-1,15
 620 1168 620 1168 583 1125.5 c 128,-1,16
 546 1083 546 1083 546 1030 c 2,17,-1
 546 0 l 1,18,-1
 106 -32 l 1,19,-1
 106 1104 l 2,20,21
 106 1237.84353741 106 1237.84353741 259.5 1336 c 0,22,23
 422.138297872 1440 422.138297872 1440 698 1440 c 0,24,25
 946.75 1440 946.75 1440 1085.5 1329 c 0,26,27
 1214 1226.2 1214 1226.2 1214 1094 c 0,28,29
 1214 1005 1214 1005 1174 932 c 128,-1,30
 1134 859 1134 859 1060 814 c 1,31,32
 1219 767 1219 767 1314.5 650.5 c 128,-1,33
 1410 534 1410 534 1410 400 c 0,34,35
 1410 205 1410 205 1268 63 c 0,36,37
 1197 -8 1197 -8 1076.5 -50 c 128,-1,38
 956 -92 956 -92 800 -92 c 1,0,-1
EndSplineSet
EndChar

StartChar: agrave
Encoding: 224 224 160
Width: 1425
Flags: MW
HStem: -32 340<429.5 740.5 632 890> 716 325 1036 20G<436 622 890 890> 1150 21G<1058 1058> 1770 20G<584 584>
VStem: 52 430<457.5 568 457.5 681.5> 890 430<0 190 190 190 504 520 520 520 802 1026 0 1056 0 1056>
LayerCount: 2
Fore
SplineSet
376 1424 m 1,0,-1
 584 1790 l 1,1,-1
 1184 1370 l 1,2,-1
 1058 1150 l 1,3,-1
 376 1424 l 1,0,-1
890 504 m 1,4,-1
 890 520 l 1,5,6
 886 598 886 598 826 657 c 128,-1,7
 766 716 766 716 685 716 c 128,-1,8
 604 716 604 716 543 656 c 128,-1,9
 482 596 482 596 482 513 c 128,-1,10
 482 430 482 430 543 369 c 128,-1,11
 604 308 604 308 685.5 308 c 128,-1,12
 767 308 767 308 826.5 365.5 c 128,-1,13
 886 423 886 423 890 504 c 1,4,-1
890 -32 m 1,14,-1
 890 190 l 1,15,16
 838 80 838 80 748 24 c 128,-1,17
 658 -32 658 -32 559 -32 c 128,-1,18
 460 -32 460 -32 370.5 8 c 128,-1,19
 281 48 281 48 210 118 c 128,-1,20
 139 188 139 188 95.5 293.5 c 128,-1,21
 52 399 52 399 52 517.5 c 128,-1,22
 52 636 52 636 97 739 c 128,-1,23
 142 842 142 842 214.5 910 c 0,24,25
 370.161764706 1056 370.161764706 1056 554 1056 c 0,26,27
 658 1056 658 1056 752 986 c 128,-1,28
 846 916 846 916 890 802 c 1,29,-1
 890 1056 l 1,30,-1
 1320 1026 l 1,31,-1
 1320 0 l 1,32,-1
 890 -32 l 1,14,-1
EndSplineSet
EndChar

StartChar: aacute
Encoding: 225 225 161
Width: 1425
Flags: MW
HStem: -32 340<429.5 740.5 632 890> 716 325 1036 20G<436 622 890 890> 1150 21G<476 476> 1770 20G<950 950>
VStem: 52 430<457.5 568 457.5 681.5> 890 430<0 190 190 190 504 520 520 520 802 1026 0 1056 0 1056>
LayerCount: 2
Fore
SplineSet
476 1150 m 1,0,-1
 350 1370 l 1,1,-1
 950 1790 l 1,2,-1
 1158 1424 l 1,3,-1
 476 1150 l 1,0,-1
890 504 m 1,4,-1
 890 520 l 1,5,6
 886 598 886 598 826 657 c 128,-1,7
 766 716 766 716 685 716 c 128,-1,8
 604 716 604 716 543 656 c 128,-1,9
 482 596 482 596 482 513 c 128,-1,10
 482 430 482 430 543 369 c 128,-1,11
 604 308 604 308 685.5 308 c 128,-1,12
 767 308 767 308 826.5 365.5 c 128,-1,13
 886 423 886 423 890 504 c 1,4,-1
890 -32 m 1,14,-1
 890 190 l 1,15,16
 838 80 838 80 748 24 c 128,-1,17
 658 -32 658 -32 559 -32 c 128,-1,18
 460 -32 460 -32 370.5 8 c 128,-1,19
 281 48 281 48 210 118 c 128,-1,20
 139 188 139 188 95.5 293.5 c 128,-1,21
 52 399 52 399 52 517.5 c 128,-1,22
 52 636 52 636 97 739 c 128,-1,23
 142 842 142 842 214.5 910 c 0,24,25
 370.161764706 1056 370.161764706 1056 554 1056 c 0,26,27
 658 1056 658 1056 752 986 c 128,-1,28
 846 916 846 916 890 802 c 1,29,-1
 890 1056 l 1,30,-1
 1320 1026 l 1,31,-1
 1320 0 l 1,32,-1
 890 -32 l 1,14,-1
EndSplineSet
EndChar

StartChar: acircumflex
Encoding: 226 226 162
Width: 1425
Flags: MW
HStem: -32 340<429.5 740.5 632 890> 716 325 1036 20G<436 622 890 890> 1130 510<312 942 564 652 854 854 854 942 564 1194>
VStem: 52 430<457.5 568 457.5 681.5> 890 430<0 190 190 190 504 520 520 520 802 1026 0 1056 0 1056>
LayerCount: 2
Fore
SplineSet
312 1130 m 1,0,-1
 564 1640 l 1,1,-1
 942 1640 l 1,2,-1
 1194 1130 l 1,3,-1
 854 1130 l 1,4,-1
 776 1348 l 1,5,-1
 752 1426 l 1,6,-1
 730 1348 l 1,7,-1
 652 1130 l 1,8,-1
 312 1130 l 1,0,-1
890 504 m 1,9,-1
 890 520 l 1,10,11
 886 598 886 598 826 657 c 128,-1,12
 766 716 766 716 685 716 c 128,-1,13
 604 716 604 716 543 656 c 128,-1,14
 482 596 482 596 482 513 c 128,-1,15
 482 430 482 430 543 369 c 128,-1,16
 604 308 604 308 685.5 308 c 128,-1,17
 767 308 767 308 826.5 365.5 c 128,-1,18
 886 423 886 423 890 504 c 1,9,-1
890 -32 m 1,19,-1
 890 190 l 1,20,21
 838 80 838 80 748 24 c 128,-1,22
 658 -32 658 -32 559 -32 c 128,-1,23
 460 -32 460 -32 370.5 8 c 128,-1,24
 281 48 281 48 210 118 c 128,-1,25
 139 188 139 188 95.5 293.5 c 128,-1,26
 52 399 52 399 52 517.5 c 128,-1,27
 52 636 52 636 97 739 c 128,-1,28
 142 842 142 842 214.5 910 c 0,29,30
 370.161764706 1056 370.161764706 1056 554 1056 c 0,31,32
 658 1056 658 1056 752 986 c 128,-1,33
 846 916 846 916 890 802 c 1,34,-1
 890 1056 l 1,35,-1
 1320 1026 l 1,36,-1
 1320 0 l 1,37,-1
 890 -32 l 1,19,-1
EndSplineSet
EndChar

StartChar: atilde
Encoding: 227 227 163
Width: 1425
Flags: MW
HStem: -32 340<429.5 740.5 632 890> 716 325 1036 20G<436 622 890 890> 1152 346<853 934 853 984> 1266 232<576.5 934> 1266 346<576.5 657>
VStem: 52 430<457.5 568 457.5 681.5> 890 430<0 190 190 190 504 520 520 520 802 1026 0 1056 0 1056>
LayerCount: 2
Fore
SplineSet
1248 1492 m 1,0,1
 1128.8045977 1152 1128.8045977 1152 914 1152 c 0,2,3
 816.857142857 1152 816.857142857 1152 739.5 1209 c 128,-1,4
 662.142857143 1266 662.142857143 1266 606 1266 c 0,5,6
 540 1266 540 1266 498 1158 c 1,7,-1
 256 1256 l 1,8,9
 324 1438 324 1438 417 1525 c 128,-1,10
 510 1612 510 1612 608 1612 c 0,11,12
 687.285714286 1612 687.285714286 1612 766 1555 c 0,13,14
 866.131252747 1502.41969231 866.131252747 1502.41969231 909.857142857 1498 c 1,15,16
 975 1498 975 1498 1008 1590 c 1,17,-1
 1248 1492 l 1,0,1
890 504 m 1,18,-1
 890 520 l 1,19,20
 886 598 886 598 826 657 c 128,-1,21
 766 716 766 716 685 716 c 128,-1,22
 604 716 604 716 543 656 c 128,-1,23
 482 596 482 596 482 513 c 128,-1,24
 482 430 482 430 543 369 c 128,-1,25
 604 308 604 308 685.5 308 c 128,-1,26
 767 308 767 308 826.5 365.5 c 128,-1,27
 886 423 886 423 890 504 c 1,18,-1
890 -32 m 1,28,-1
 890 190 l 1,29,30
 838 80 838 80 748 24 c 128,-1,31
 658 -32 658 -32 559 -32 c 128,-1,32
 460 -32 460 -32 370.5 8 c 128,-1,33
 281 48 281 48 210 118 c 128,-1,34
 139 188 139 188 95.5 293.5 c 128,-1,35
 52 399 52 399 52 517.5 c 128,-1,36
 52 636 52 636 97 739 c 128,-1,37
 142 842 142 842 214.5 910 c 0,38,39
 370.161764706 1056 370.161764706 1056 554 1056 c 0,40,41
 658 1056 658 1056 752 986 c 128,-1,42
 846 916 846 916 890 802 c 1,43,-1
 890 1056 l 1,44,-1
 1320 1026 l 1,45,-1
 1320 0 l 1,46,-1
 890 -32 l 1,28,-1
EndSplineSet
EndChar

StartChar: adieresis
Encoding: 228 228 164
Width: 1425
Flags: MW
HStem: -32 340<429.5 740.5 632 890> 716 325 1036 20G<436 622 890 890> 1122 414<384 507 1003 1127>
VStem: 52 430<457.5 568 457.5 681.5> 216 460<1270.5 1383.5> 834 460<1270.5 1383.5> 890 430<0 190 190 190 504 520 520 520 802 1026 0 1056 0 1056>
LayerCount: 2
Fore
SplineSet
284 1182 m 128,-1,1
 216 1242 216 1242 216 1326.5 c 128,-1,2
 216 1411 216 1411 284.5 1473.5 c 128,-1,3
 353 1536 353 1536 445.5 1536 c 128,-1,4
 538 1536 538 1536 607 1473.5 c 128,-1,5
 676 1411 676 1411 676 1327 c 128,-1,6
 676 1243 676 1243 607.5 1182.5 c 128,-1,7
 539 1122 539 1122 445.5 1122 c 128,-1,0
 352 1122 352 1122 284 1182 c 128,-1,1
902.5 1182 m 128,-1,9
 834 1242 834 1242 834 1327 c 128,-1,10
 834 1412 834 1412 903 1474 c 128,-1,11
 972 1536 972 1536 1064.5 1536 c 128,-1,12
 1157 1536 1157 1536 1225.5 1473.5 c 128,-1,13
 1294 1411 1294 1411 1294 1327 c 128,-1,14
 1294 1243 1294 1243 1226 1182.5 c 128,-1,15
 1158 1122 1158 1122 1064.5 1122 c 128,-1,8
 971 1122 971 1122 902.5 1182 c 128,-1,9
890 504 m 1,16,-1
 890 520 l 1,17,18
 886 598 886 598 826 657 c 128,-1,19
 766 716 766 716 685 716 c 128,-1,20
 604 716 604 716 543 656 c 128,-1,21
 482 596 482 596 482 513 c 128,-1,22
 482 430 482 430 543 369 c 128,-1,23
 604 308 604 308 685.5 308 c 128,-1,24
 767 308 767 308 826.5 365.5 c 128,-1,25
 886 423 886 423 890 504 c 1,16,-1
890 -32 m 1,26,-1
 890 190 l 1,27,28
 838 80 838 80 748 24 c 128,-1,29
 658 -32 658 -32 559 -32 c 128,-1,30
 460 -32 460 -32 370.5 8 c 128,-1,31
 281 48 281 48 210 118 c 128,-1,32
 139 188 139 188 95.5 293.5 c 128,-1,33
 52 399 52 399 52 517.5 c 128,-1,34
 52 636 52 636 97 739 c 128,-1,35
 142 842 142 842 214.5 910 c 0,36,37
 370.161764706 1056 370.161764706 1056 554 1056 c 0,38,39
 658 1056 658 1056 752 986 c 128,-1,40
 846 916 846 916 890 802 c 1,41,-1
 890 1056 l 1,42,-1
 1320 1026 l 1,43,-1
 1320 0 l 1,44,-1
 890 -32 l 1,26,-1
EndSplineSet
EndChar

StartChar: aring
Encoding: 229 229 165
Width: 1425
Flags: MW
HStem: -32 340<429.5 740.5 632 890> 716 325 1036 20G<436 622 890 890> 1150 226<722.5 787 722.5 844> 1628 226<723 782>
VStem: 52 430<457.5 568 457.5 681.5> 404 226<1462.5 1542.5 1462.5 1618> 874 232<1458 1542.5> 890 430<0 190 190 190 504 520 520 520 802 1026 0 1056 0 1056>
LayerCount: 2
Fore
SplineSet
456 1306.5 m 0,0,1
 404 1388 404 1388 404 1486.5 c 128,-1,2
 404 1585 404 1585 434 1654 c 128,-1,3
 464 1723 464 1723 514 1766 c 0,4,5
 616.325581395 1854 616.325581395 1854 756 1854 c 0,6,7
 894.674418605 1854 894.674418605 1854 997 1766 c 0,8,9
 1106 1672.26 1106 1672.26 1106 1500 c 0,10,11
 1106 1388 1106 1388 1054.5 1306.5 c 0,12,13
 955.607361963 1150 955.607361963 1150 756 1150 c 0,14,15
 555.852760736 1150 555.852760736 1150 456 1306.5 c 0,0,1
667 1594 m 128,-1,17
 630 1560 630 1560 630 1502.5 c 128,-1,18
 630 1445 630 1445 667 1410.5 c 128,-1,19
 704 1376 704 1376 755 1376 c 128,-1,20
 806 1376 806 1376 840 1408 c 128,-1,21
 874 1440 874 1440 874 1500 c 128,-1,22
 874 1560 874 1560 837.5 1594 c 128,-1,23
 801 1628 801 1628 752.5 1628 c 128,-1,16
 704 1628 704 1628 667 1594 c 128,-1,17
890 504 m 1,24,-1
 890 520 l 1,25,26
 886 598 886 598 826 657 c 128,-1,27
 766 716 766 716 685 716 c 128,-1,28
 604 716 604 716 543 656 c 128,-1,29
 482 596 482 596 482 513 c 128,-1,30
 482 430 482 430 543 369 c 128,-1,31
 604 308 604 308 685.5 308 c 128,-1,32
 767 308 767 308 826.5 365.5 c 128,-1,33
 886 423 886 423 890 504 c 1,24,-1
890 -32 m 1,34,-1
 890 190 l 1,35,36
 838 80 838 80 748 24 c 128,-1,37
 658 -32 658 -32 559 -32 c 128,-1,38
 460 -32 460 -32 370.5 8 c 128,-1,39
 281 48 281 48 210 118 c 128,-1,40
 139 188 139 188 95.5 293.5 c 128,-1,41
 52 399 52 399 52 517.5 c 128,-1,42
 52 636 52 636 97 739 c 128,-1,43
 142 842 142 842 214.5 910 c 0,44,45
 370.161764706 1056 370.161764706 1056 554 1056 c 0,46,47
 658 1056 658 1056 752 986 c 128,-1,48
 846 916 846 916 890 802 c 1,49,-1
 890 1056 l 1,50,-1
 1320 1026 l 1,51,-1
 1320 0 l 1,52,-1
 890 -32 l 1,34,-1
EndSplineSet
EndChar

StartChar: ae
Encoding: 230 230 166
Width: 2162
Flags: MW
HStem: -32 21G<429.5 620 890 890 1553 1687> -16 278 -16 324 716 340<436 740.5> 792 264<1569 1653>
VStem: 52 430<457.5 568 457.5 681.5> 890 400<0 90 0 190 0 190 936 1026>
LayerCount: 2
Fore
SplineSet
1421 594 m 1,0,-1
 1799 664 l 1,1,2
 1777 729 1777 729 1727 760.5 c 128,-1,3
 1677 792 1677 792 1608 792 c 128,-1,4
 1539 792 1539 792 1481.5 742 c 128,-1,5
 1424 692 1424 692 1421 594 c 1,0,-1
890 504 m 1,6,-1
 890 520 l 1,7,8
 886 598 886 598 826 657 c 128,-1,9
 766 716 766 716 685 716 c 128,-1,10
 604 716 604 716 543 656 c 128,-1,11
 482 596 482 596 482 513 c 128,-1,12
 482 430 482 430 543 369 c 128,-1,13
 604 308 604 308 685.5 308 c 128,-1,14
 767 308 767 308 826.5 365.5 c 128,-1,15
 886 423 886 423 890 504 c 1,6,-1
1693 262 m 0,16,17
 1850.14285714 262 1850.14285714 262 2025 334 c 1,18,-1
 2075 52 l 1,19,20
 1860 -32 1860 -32 1597 -32 c 0,21,22
 1487 -32 1487 -32 1377 29 c 0,23,24
 1332 53 1332 53 1290 90 c 1,25,-1
 1290 0 l 1,26,-1
 890 -32 l 1,27,-1
 890 190 l 1,28,29
 838 80 838 80 748 24 c 128,-1,30
 658 -32 658 -32 559 -32 c 128,-1,31
 460 -32 460 -32 370.5 8 c 128,-1,32
 281 48 281 48 210 118 c 128,-1,33
 139 188 139 188 95.5 293.5 c 128,-1,34
 52 399 52 399 52 517.5 c 128,-1,35
 52 636 52 636 97 739 c 128,-1,36
 142 842 142 842 214.5 910 c 0,37,38
 370.161764706 1056 370.161764706 1056 554 1056 c 0,39,40
 658 1056 658 1056 752 986 c 128,-1,41
 846 916 846 916 890 802 c 1,42,-1
 890 1056 l 1,43,-1
 1290 1026 l 1,44,-1
 1290 936 l 1,45,46
 1329 972 1329 972 1376 996 c 1,47,48
 1484 1056 1484 1056 1588 1056 c 128,-1,49
 1692 1056 1692 1056 1764.5 1036.5 c 128,-1,50
 1837 1017 1837 1017 1901.5 975 c 128,-1,51
 1966 933 1966 933 2014 873 c 0,52,53
 2117 744.25 2117 744.25 2117 538 c 0,54,55
 2117 507 2117 507 2113 486 c 1,56,-1
 1439 406 l 1,57,58
 1469 326 1469 326 1533 294 c 128,-1,59
 1597 262 1597 262 1693 262 c 0,16,17
EndSplineSet
EndChar

StartChar: ccedilla
Encoding: 231 231 167
Width: 968
Flags: MW
HStem: -508 106<485 485.5 437 594> -32 334<625.5 666> -20 20G<523 637 637 637> 720 336<622.5 666 460 714>
VStem: 54 426<452 572.5 452 673.5> 585 224<-326 -250>
LayerCount: 2
Fore
SplineSet
333 -464 m 1,0,-1
 361 -388 l 1,1,2
 410 -402 410 -402 453 -402 c 0,3,4
 585 -402 585 -402 585 -274 c 0,5,6
 585 -234 585 -234 556.5 -207 c 128,-1,7
 528 -180 528 -180 467 -180 c 2,8,-1
 463 -180 l 1,9,-1
 514.772313933 -24.6830582019 l 1,10,11
 346.385922757 1.734601184 346.385922757 1.734601184 223 111.5 c 0,12,13
 146 180 146 180 100 284 c 128,-1,14
 54 388 54 388 54 509 c 128,-1,15
 54 630 54 630 99 732.5 c 128,-1,16
 144 835 144 835 219.5 905.5 c 0,17,18
 380.673758865 1056 380.673758865 1056 610 1056 c 0,19,20
 763.807692308 1056 763.807692308 1056 924 958 c 1,21,-1
 884 686 l 1,22,23
 771 720 771 720 682 720 c 128,-1,24
 593 720 593 720 536.5 662 c 128,-1,25
 480 604 480 604 480 512.5 c 128,-1,26
 480 421 480 421 537.5 361.5 c 128,-1,27
 595 302 595 302 686 302 c 128,-1,28
 777 302 777 302 880 336 c 1,29,-1
 920 50 l 1,30,31
 764.984254652 -27.5078726742 764.984254652 -27.5078726742 626.050375138 -31.7539120986 c 1,32,-1
 597 -116 l 1,33,34
 703 -127 703 -127 756 -170.5 c 128,-1,35
 809 -214 809 -214 809 -276 c 0,36,37
 809 -369 809 -369 721.5 -438.5 c 128,-1,38
 634 -508 634 -508 527.5 -508 c 128,-1,39
 421 -508 421 -508 333 -464 c 1,0,-1
EndSplineSet
EndChar

StartChar: egrave
Encoding: 232 232 168
Width: 1138
Flags: MW
HStem: -32 294<647 709.5> 792 264<581.5 651.5> 1150 21G<908 908> 1770 20G<434 434>
VStem: 52 404<594 594 594 684.5>
LayerCount: 2
Fore
SplineSet
226 1424 m 1,0,-1
 434 1790 l 1,1,-1
 1034 1370 l 1,2,-1
 908 1150 l 1,3,-1
 226 1424 l 1,0,-1
456 594 m 1,4,-1
 774 664 l 1,5,6
 757 729 757 729 714.5 760.5 c 128,-1,7
 672 792 672 792 614 792 c 128,-1,8
 556 792 556 792 507.5 742 c 128,-1,9
 459 692 459 692 456 594 c 1,4,-1
1000 334 m 1,10,-1
 1050 52 l 1,11,12
 864 -32 864 -32 632 -32 c 0,13,14
 447.290322581 -32 447.290322581 -32 299.5 61.5 c 0,15,16
 52 218.081632653 52 218.081632653 52 512 c 0,17,18
 52 637 52 637 101 742 c 128,-1,19
 150 847 150 847 230.5 914.5 c 0,20,21
 399.251851852 1056 399.251851852 1056 618 1056 c 0,22,23
 809.838709677 1056 809.838709677 1056 946 930 c 0,24,25
 1013 868 1013 868 1052.5 766.5 c 128,-1,26
 1092 665 1092 665 1092 538 c 0,27,28
 1092 507 1092 507 1088 486 c 1,29,-1
 474 406 l 1,30,31
 501 326 501 326 557.5 294 c 128,-1,32
 614 262 614 262 698 262 c 0,33,34
 836 262 836 262 1000 334 c 1,10,-1
EndSplineSet
EndChar

StartChar: eacute
Encoding: 233 233 169
Width: 1138
Flags: MW
HStem: -32 294<647 709.5> 792 264<581.5 651.5> 1150 21G<337 337> 1770 20G<811 811>
VStem: 14 406 52 404<594 594 594 684.5>
LayerCount: 2
Fore
SplineSet
337 1150 m 1,0,-1
 211 1370 l 1,1,-1
 811 1790 l 1,2,-1
 1019 1424 l 1,3,-1
 337 1150 l 1,0,-1
456 594 m 1,4,-1
 774 664 l 1,5,6
 757 729 757 729 714.5 760.5 c 128,-1,7
 672 792 672 792 614 792 c 128,-1,8
 556 792 556 792 507.5 742 c 128,-1,9
 459 692 459 692 456 594 c 1,4,-1
1000 334 m 1,10,-1
 1050 52 l 1,11,12
 864 -32 864 -32 632 -32 c 0,13,14
 447.290322581 -32 447.290322581 -32 299.5 61.5 c 0,15,16
 52 218.081632653 52 218.081632653 52 512 c 0,17,18
 52 637 52 637 101 742 c 128,-1,19
 150 847 150 847 230.5 914.5 c 0,20,21
 399.251851852 1056 399.251851852 1056 618 1056 c 0,22,23
 809.838709677 1056 809.838709677 1056 946 930 c 0,24,25
 1013 868 1013 868 1052.5 766.5 c 128,-1,26
 1092 665 1092 665 1092 538 c 0,27,28
 1092 507 1092 507 1088 486 c 1,29,-1
 474 406 l 1,30,31
 501 326 501 326 557.5 294 c 128,-1,32
 614 262 614 262 698 262 c 0,33,34
 836 262 836 262 1000 334 c 1,10,-1
EndSplineSet
EndChar

StartChar: ecircumflex
Encoding: 234 234 170
Width: 1138
Flags: MW
HStem: -32 294<647 709.5> 792 264<581.5 651.5> 1130 510<164 794 416 504 706 706 706 794 416 1046>
VStem: 52 404<594 594 594 684.5>
LayerCount: 2
Fore
SplineSet
164 1130 m 1,0,-1
 416 1640 l 1,1,-1
 794 1640 l 1,2,-1
 1046 1130 l 1,3,-1
 706 1130 l 1,4,-1
 628 1348 l 1,5,-1
 604 1426 l 1,6,-1
 582 1348 l 1,7,-1
 504 1130 l 1,8,-1
 164 1130 l 1,0,-1
456 594 m 1,9,-1
 774 664 l 1,10,11
 757 729 757 729 714.5 760.5 c 128,-1,12
 672 792 672 792 614 792 c 128,-1,13
 556 792 556 792 507.5 742 c 128,-1,14
 459 692 459 692 456 594 c 1,9,-1
1000 334 m 1,15,-1
 1050 52 l 1,16,17
 864 -32 864 -32 632 -32 c 0,18,19
 447.290322581 -32 447.290322581 -32 299.5 61.5 c 0,20,21
 52 218.081632653 52 218.081632653 52 512 c 0,22,23
 52 637 52 637 101 742 c 128,-1,24
 150 847 150 847 230.5 914.5 c 0,25,26
 399.251851852 1056 399.251851852 1056 618 1056 c 0,27,28
 809.838709677 1056 809.838709677 1056 946 930 c 0,29,30
 1013 868 1013 868 1052.5 766.5 c 128,-1,31
 1092 665 1092 665 1092 538 c 0,32,33
 1092 507 1092 507 1088 486 c 1,34,-1
 474 406 l 1,35,36
 501 326 501 326 557.5 294 c 128,-1,37
 614 262 614 262 698 262 c 0,38,39
 836 262 836 262 1000 334 c 1,15,-1
EndSplineSet
EndChar

StartChar: edieresis
Encoding: 235 235 171
Width: 1138
Flags: MW
HStem: -32 294<647 709.5> 792 264<581.5 651.5> 1122 414<238 361 857 981>
VStem: 52 404<594 594 594 684.5> 70 460<1270.5 1383.5> 688 460<1270.5 1383.5>
LayerCount: 2
Fore
SplineSet
138 1182 m 128,-1,1
 70 1242 70 1242 70 1326.5 c 128,-1,2
 70 1411 70 1411 138.5 1473.5 c 128,-1,3
 207 1536 207 1536 299.5 1536 c 128,-1,4
 392 1536 392 1536 461 1473.5 c 128,-1,5
 530 1411 530 1411 530 1327 c 128,-1,6
 530 1243 530 1243 461.5 1182.5 c 128,-1,7
 393 1122 393 1122 299.5 1122 c 128,-1,0
 206 1122 206 1122 138 1182 c 128,-1,1
756.5 1182 m 128,-1,9
 688 1242 688 1242 688 1327 c 128,-1,10
 688 1412 688 1412 757 1474 c 128,-1,11
 826 1536 826 1536 918.5 1536 c 128,-1,12
 1011 1536 1011 1536 1079.5 1473.5 c 128,-1,13
 1148 1411 1148 1411 1148 1327 c 128,-1,14
 1148 1243 1148 1243 1080 1182.5 c 128,-1,15
 1012 1122 1012 1122 918.5 1122 c 128,-1,8
 825 1122 825 1122 756.5 1182 c 128,-1,9
456 594 m 1,16,-1
 774 664 l 1,17,18
 757 729 757 729 714.5 760.5 c 128,-1,19
 672 792 672 792 614 792 c 128,-1,20
 556 792 556 792 507.5 742 c 128,-1,21
 459 692 459 692 456 594 c 1,16,-1
1000 334 m 1,22,-1
 1050 52 l 1,23,24
 864 -32 864 -32 632 -32 c 0,25,26
 447.290322581 -32 447.290322581 -32 299.5 61.5 c 0,27,28
 52 218.081632653 52 218.081632653 52 512 c 0,29,30
 52 637 52 637 101 742 c 128,-1,31
 150 847 150 847 230.5 914.5 c 0,32,33
 399.251851852 1056 399.251851852 1056 618 1056 c 0,34,35
 809.838709677 1056 809.838709677 1056 946 930 c 0,36,37
 1013 868 1013 868 1052.5 766.5 c 128,-1,38
 1092 665 1092 665 1092 538 c 0,39,40
 1092 507 1092 507 1088 486 c 1,41,-1
 474 406 l 1,42,43
 501 326 501 326 557.5 294 c 128,-1,44
 614 262 614 262 698 262 c 0,45,46
 836 262 836 262 1000 334 c 1,22,-1
EndSplineSet
EndChar

StartChar: igrave
Encoding: 236 236 172
Width: 748
Flags: MW
HStem: -32 332<367 635.5> 1006 20G<99 533 533 533> 1150 21G<601 601> 1770 20G<127 127>
VStem: 99 434<378 408 408 1026>
LayerCount: 2
Fore
SplineSet
-81 1424 m 1,0,-1
 127 1790 l 1,1,-1
 727 1370 l 1,2,-1
 601 1150 l 1,3,-1
 -81 1424 l 1,0,-1
99 378 m 2,4,-1
 99 1026 l 1,5,-1
 533 1026 l 1,6,-1
 533 408 l 2,7,8
 533 352 533 352 557.5 326 c 128,-1,9
 582 300 582 300 623 300 c 128,-1,10
 664 300 664 300 709 324 c 1,11,-1
 731 38 l 1,12,13
 608 -32 608 -32 463 -32 c 0,14,15
 312.5 -32 312.5 -32 209.5 64 c 0,16,17
 99 166.990291262 99 166.990291262 99 378 c 2,4,-1
EndSplineSet
EndChar

StartChar: iacute
Encoding: 237 237 173
Width: 748
Flags: MW
HStem: -32 332<367 635.5> 1006 20G<99 533 533 533> 1150 21G<83 83> 1770 20G<557 557>
VStem: 99 434<378 408 408 1026>
LayerCount: 2
Fore
SplineSet
83 1150 m 1,0,-1
 -43 1370 l 1,1,-1
 557 1790 l 1,2,-1
 765 1424 l 1,3,-1
 83 1150 l 1,0,-1
99 378 m 2,4,-1
 99 1026 l 1,5,-1
 533 1026 l 1,6,-1
 533 408 l 2,7,8
 533 352 533 352 557.5 326 c 128,-1,9
 582 300 582 300 623 300 c 128,-1,10
 664 300 664 300 709 324 c 1,11,-1
 731 38 l 1,12,13
 608 -32 608 -32 463 -32 c 0,14,15
 312.5 -32 312.5 -32 209.5 64 c 0,16,17
 99 166.990291262 99 166.990291262 99 378 c 2,4,-1
EndSplineSet
EndChar

StartChar: icircumflex
Encoding: 238 238 174
Width: 747
Flags: MW
HStem: -32 332<366 634.5> 1006 20G<98 532 532 532> 1130 510<-119 511 133 221 423 423 423 511 133 763>
VStem: 98 434<378 408 408 1026>
LayerCount: 2
Fore
SplineSet
-119 1130 m 1,0,-1
 133 1640 l 1,1,-1
 511 1640 l 1,2,-1
 763 1130 l 1,3,-1
 423 1130 l 1,4,-1
 345 1348 l 1,5,-1
 321 1426 l 1,6,-1
 299 1348 l 1,7,-1
 221 1130 l 1,8,-1
 -119 1130 l 1,0,-1
98 378 m 2,9,-1
 98 1026 l 1,10,-1
 532 1026 l 1,11,-1
 532 408 l 2,12,13
 532 352 532 352 556.5 326 c 128,-1,14
 581 300 581 300 622 300 c 128,-1,15
 663 300 663 300 708 324 c 1,16,-1
 730 38 l 1,17,18
 608 -32 608 -32 462 -32 c 0,19,20
 311.5 -32 311.5 -32 208.5 64 c 0,21,22
 98 166.990291262 98 166.990291262 98 378 c 2,9,-1
EndSplineSet
EndChar

StartChar: idieresis
Encoding: 239 239 175
Width: 749
Flags: MW
HStem: -32 332<367 635.5> 1006 20G<99 533 533 533> 1122 414<-56 67 563 687>
VStem: -224 460<1270.5 1383.5> 99 434<378 408 408 1026> 394 460<1270.5 1383.5>
LayerCount: 2
Fore
SplineSet
-156 1182 m 128,-1,1
 -224 1242 -224 1242 -224 1326.5 c 128,-1,2
 -224 1411 -224 1411 -155.5 1473.5 c 128,-1,3
 -87 1536 -87 1536 5.5 1536 c 128,-1,4
 98 1536 98 1536 167 1473.5 c 128,-1,5
 236 1411 236 1411 236 1327 c 128,-1,6
 236 1243 236 1243 167.5 1182.5 c 128,-1,7
 99 1122 99 1122 5.5 1122 c 128,-1,0
 -88 1122 -88 1122 -156 1182 c 128,-1,1
462.5 1182 m 128,-1,9
 394 1242 394 1242 394 1327 c 128,-1,10
 394 1412 394 1412 463 1474 c 128,-1,11
 532 1536 532 1536 624.5 1536 c 128,-1,12
 717 1536 717 1536 785.5 1473.5 c 128,-1,13
 854 1411 854 1411 854 1327 c 128,-1,14
 854 1243 854 1243 786 1182.5 c 128,-1,15
 718 1122 718 1122 624.5 1122 c 128,-1,8
 531 1122 531 1122 462.5 1182 c 128,-1,9
99 378 m 2,16,-1
 99 1026 l 1,17,-1
 533 1026 l 1,18,-1
 533 408 l 2,19,20
 533 352 533 352 557.5 326 c 128,-1,21
 582 300 582 300 623 300 c 128,-1,22
 664 300 664 300 709 324 c 1,23,-1
 731 38 l 1,24,25
 608 -32 608 -32 463 -32 c 0,26,27
 312.5 -32 312.5 -32 209.5 64 c 0,28,29
 99 166.990291262 99 166.990291262 99 378 c 2,16,-1
EndSplineSet
EndChar

StartChar: eth
Encoding: 240 240 176
Width: 1324
Flags: MW
HStem: -32 334<573.5 681.5 573.5 840> 594 286<568.5 598.5 356 660> 1080 360<551.5 597>
VStem: 33 427<409.5 480 409.5 554.5>
LayerCount: 2
Fore
SplineSet
806 564 m 1,0,1
 725 594 725 594 636 594 c 128,-1,2
 547 594 547 594 503.5 548.5 c 128,-1,3
 460 503 460 503 460 445 c 128,-1,4
 460 387 460 387 505 344.5 c 128,-1,5
 550 302 550 302 627.5 302 c 128,-1,6
 705 302 705 302 747.5 367 c 128,-1,7
 790 432 790 432 806 564 c 1,0,1
615 906 m 1,8,-1
 569 1021 l 1,9,-1
 674 1058 l 1,10,11
 631 1080 631 1080 580 1080 c 0,12,13
 451 1080 451 1080 240 1026 c 1,14,-1
 132 1330 l 1,15,16
 387 1440 387 1440 632 1440 c 0,17,18
 774 1440 774 1440 895 1381 c 128,-1,19
 1016 1322 1016 1322 1102 1210 c 1,20,-1
 1247 1262 l 1,21,-1
 1293 1147 l 1,22,-1
 1170 1103 l 1,23,24
 1262 927 1262 927 1262 690 c 0,25,26
 1262 389.194805195 1262 389.194805195 1104 184 c 0,27,28
 1027 84 1027 84 905 26 c 128,-1,29
 783 -32 783 -32 634.5 -32 c 128,-1,30
 486 -32 486 -32 369 8.5 c 128,-1,31
 252 49 252 49 180 116.5 c 0,32,33
 33 254.3125 33 254.3125 33 444 c 0,34,35
 33 669.139130435 33 669.139130435 202.5 790 c 0,36,37
 328.719512195 880 328.719512195 880 540 880 c 0,38,39
 696 880 696 880 808 788 c 1,40,41
 793 895 793 895 762 958 c 1,42,-1
 615 906 l 1,8,-1
EndSplineSet
EndChar

StartChar: ntilde
Encoding: 241 241 177
Width: 1406
Flags: MW
HStem: 0 21G<102 102 102 534 880 880 880 1310> 716 340<534 775.5> 1152 346<827 908 827 958> 1266 232<550.5 908> 1266 346<550.5 631>
VStem: 102 432<0 520 802 990 990 990> 880 430<0 512 0 566.5>
LayerCount: 2
Fore
SplineSet
1222 1492 m 1,0,1
 1102.8045977 1152 1102.8045977 1152 888 1152 c 1,2,3
 790.857142857 1152 790.857142857 1152 713.5 1209 c 128,-1,4
 636.142857143 1266 636.142857143 1266 580 1266 c 0,5,6
 514 1266 514 1266 472 1158 c 1,7,-1
 230 1256 l 1,8,9
 298 1438 298 1438 391 1525 c 128,-1,10
 484 1612 484 1612 582 1612 c 0,11,12
 661.285714286 1612 661.285714286 1612 740 1555 c 128,-1,13
 818.714285714 1498 818.714285714 1498 883.857142857 1498 c 128,-1,14
 949 1498 949 1498 982 1590 c 1,15,-1
 1222 1492 l 1,0,1
102 0 m 1,16,-1
 102 990 l 1,17,-1
 534 1056 l 1,18,-1
 534 802 l 1,19,20
 592 928 592 928 687 992 c 128,-1,21
 782 1056 782 1056 874.5 1056 c 128,-1,22
 967 1056 967 1056 1041.5 1018.5 c 128,-1,23
 1116 981 1116 981 1176 913.5 c 128,-1,24
 1236 846 1236 846 1273 741 c 128,-1,25
 1310 636 1310 636 1310 512 c 2,26,-1
 1310 0 l 1,27,-1
 880 0 l 1,28,-1
 880 512 l 2,29,30
 880 594 880 594 837.5 655 c 128,-1,31
 795 716 795 716 725.5 716 c 128,-1,32
 656 716 656 716 596 657.5 c 128,-1,33
 536 599 536 599 534 520 c 1,34,-1
 534 0 l 1,35,-1
 102 0 l 1,16,-1
EndSplineSet
EndChar

StartChar: ograve
Encoding: 242 242 178
Width: 1284
Flags: MW
HStem: -32 342<593 691.5 593 788.5> 718 338<591.5 691.5> 1150 21G<906 906> 1770 20G<432 432>
VStem: 52 410<459.5 514> 828 404<459.5 570>
LayerCount: 2
Fore
SplineSet
224 1424 m 1,0,-1
 432 1790 l 1,1,-1
 1032 1370 l 1,2,-1
 906 1150 l 1,3,-1
 224 1424 l 1,0,-1
102 278.5 m 0,4,5
 52.495049505 382.955445545 52.495049505 382.955445545 52.495049505 510.44784825 c 0,6,7
 52.495049505 640.950102931 52.495049505 640.950102931 103.5 747 c 0,8,9
 154 852 154 852 237.5 918.5 c 0,10,11
 410.15037594 1056 410.15037594 1056 644 1056 c 0,12,13
 826.989010989 1056 826.989010989 1056 975.5 966.5 c 0,14,15
 1137.105096 869.10884943 1137.105096 869.10884943 1198.5 706 c 0,16,17
 1232 617 1232 617 1232 513.5 c 128,-1,18
 1232 410 1232 410 1199 320.5 c 128,-1,19
 1166 231 1166 231 1109 167.5 c 128,-1,20
 1052 104 1052 104 976.5 58 c 0,21,22
 828.782608696 -32 828.782608696 -32 642 -32 c 1,23,24
 407.485074627 -32 407.485074627 -32 235.5 106 c 0,25,26
 152 173 152 173 102 278.5 c 0,4,5
515 370.5 m 128,-1,28
 568 310 568 310 642 310 c 128,-1,29
 716 310 716 310 772 371.5 c 128,-1,30
 828 433 828 433 828 515 c 128,-1,31
 828 597 828 597 772 657.5 c 128,-1,32
 716 718 716 718 641 718 c 128,-1,33
 566 718 566 718 514 658 c 128,-1,34
 462 598 462 598 462 514.5 c 128,-1,27
 462 431 462 431 515 370.5 c 128,-1,28
EndSplineSet
EndChar

StartChar: oacute
Encoding: 243 243 179
Width: 1284
Flags: MW
HStem: -32 342<593 691.5 593 788.5> 718 338<591.5 691.5> 1150 21G<392 392> 1770 20G<866 866>
VStem: 52 410<459.5 514> 828 404<459.5 570>
LayerCount: 2
Fore
SplineSet
392 1150 m 1,0,-1
 266 1370 l 1,1,-1
 866 1790 l 1,2,-1
 1074 1424 l 1,3,-1
 392 1150 l 1,0,-1
102 278.5 m 0,4,5
 52.495049505 382.955445545 52.495049505 382.955445545 52.495049505 510.44784825 c 0,6,7
 52.495049505 640.950102931 52.495049505 640.950102931 103.5 747 c 0,8,9
 154 852 154 852 237.5 918.5 c 0,10,11
 410.15037594 1056 410.15037594 1056 644 1056 c 0,12,13
 826.989010989 1056 826.989010989 1056 975.5 966.5 c 0,14,15
 1137.105096 869.10884943 1137.105096 869.10884943 1198.5 706 c 0,16,17
 1232 617 1232 617 1232 513.5 c 128,-1,18
 1232 410 1232 410 1199 320.5 c 128,-1,19
 1166 231 1166 231 1109 167.5 c 128,-1,20
 1052 104 1052 104 976.5 58 c 0,21,22
 828.782608696 -32 828.782608696 -32 642 -32 c 1,23,24
 407.485074627 -32 407.485074627 -32 235.5 106 c 0,25,26
 152 173 152 173 102 278.5 c 0,4,5
515 370.5 m 128,-1,28
 568 310 568 310 642 310 c 128,-1,29
 716 310 716 310 772 371.5 c 128,-1,30
 828 433 828 433 828 515 c 128,-1,31
 828 597 828 597 772 657.5 c 128,-1,32
 716 718 716 718 641 718 c 128,-1,33
 566 718 566 718 514 658 c 128,-1,34
 462 598 462 598 462 514.5 c 128,-1,27
 462 431 462 431 515 370.5 c 128,-1,28
EndSplineSet
EndChar

StartChar: ocircumflex
Encoding: 244 244 180
Width: 1284
Flags: MW
HStem: -32 342<593 691.5 593 788.5> 718 338<591.5 691.5> 1130 510<203 833 455 543 745 745 745 833 455 1085>
VStem: 52 410<459.5 514> 828 404<459.5 570>
LayerCount: 2
Fore
SplineSet
203 1130 m 1,0,-1
 455 1640 l 1,1,-1
 833 1640 l 1,2,-1
 1085 1130 l 1,3,-1
 745 1130 l 1,4,-1
 667 1348 l 1,5,-1
 643 1426 l 1,6,-1
 621 1348 l 1,7,-1
 543 1130 l 1,8,-1
 203 1130 l 1,0,-1
102 278.5 m 0,9,10
 52.495049505 382.955445545 52.495049505 382.955445545 52.495049505 510.44784825 c 0,11,12
 52.495049505 640.950102931 52.495049505 640.950102931 103.5 747 c 0,13,14
 154 852 154 852 237.5 918.5 c 0,15,16
 410.15037594 1056 410.15037594 1056 644 1056 c 0,17,18
 826.989010989 1056 826.989010989 1056 975.5 966.5 c 0,19,20
 1137.105096 869.10884943 1137.105096 869.10884943 1198.5 706 c 0,21,22
 1232 617 1232 617 1232 513.5 c 128,-1,23
 1232 410 1232 410 1199 320.5 c 128,-1,24
 1166 231 1166 231 1109 167.5 c 128,-1,25
 1052 104 1052 104 976.5 58 c 0,26,27
 828.782608696 -32 828.782608696 -32 642 -32 c 1,28,29
 407.485074627 -32 407.485074627 -32 235.5 106 c 0,30,31
 152 173 152 173 102 278.5 c 0,9,10
515 370.5 m 128,-1,33
 568 310 568 310 642 310 c 128,-1,34
 716 310 716 310 772 371.5 c 128,-1,35
 828 433 828 433 828 515 c 128,-1,36
 828 597 828 597 772 657.5 c 128,-1,37
 716 718 716 718 641 718 c 128,-1,38
 566 718 566 718 514 658 c 128,-1,39
 462 598 462 598 462 514.5 c 128,-1,32
 462 431 462 431 515 370.5 c 128,-1,33
EndSplineSet
EndChar

StartChar: otilde
Encoding: 245 245 181
Width: 1284
Flags: MW
HStem: -32 342<593 691.5 593 788.5> 718 338<591.5 691.5> 1152 346<738 819 738 869> 1266 232<461.5 819> 1266 346<461.5 542>
VStem: 52 410<459.5 514> 828 404<459.5 570>
LayerCount: 2
Fore
SplineSet
1133 1492 m 1,0,1
 1013.8045977 1152 1013.8045977 1152 799 1152 c 0,2,3
 701.857142857 1152 701.857142857 1152 624.5 1209 c 128,-1,4
 547.142857143 1266 547.142857143 1266 491 1266 c 0,5,6
 425 1266 425 1266 383 1158 c 1,7,-1
 141 1256 l 1,8,9
 209 1438 209 1438 302 1525 c 128,-1,10
 395 1612 395 1612 493 1612 c 0,11,12
 572.285714286 1612 572.285714286 1612 651 1555 c 0,13,14
 751.131252747 1502.41969231 751.131252747 1502.41969231 794.857142857 1498 c 1,15,16
 860 1498 860 1498 893 1590 c 1,17,-1
 1133 1492 l 1,0,1
102 278.5 m 0,18,19
 52.495049505 382.955445545 52.495049505 382.955445545 52.495049505 510.44784825 c 0,20,21
 52.495049505 640.950102931 52.495049505 640.950102931 103.5 747 c 0,22,23
 154 852 154 852 237.5 918.5 c 0,24,25
 410.15037594 1056 410.15037594 1056 644 1056 c 0,26,27
 826.989010989 1056 826.989010989 1056 975.5 966.5 c 0,28,29
 1137.105096 869.10884943 1137.105096 869.10884943 1198.5 706 c 0,30,31
 1232 617 1232 617 1232 513.5 c 128,-1,32
 1232 410 1232 410 1199 320.5 c 128,-1,33
 1166 231 1166 231 1109 167.5 c 128,-1,34
 1052 104 1052 104 976.5 58 c 0,35,36
 828.782608696 -32 828.782608696 -32 642 -32 c 1,37,38
 407.485074627 -32 407.485074627 -32 235.5 106 c 0,39,40
 152 173 152 173 102 278.5 c 0,18,19
515 370.5 m 128,-1,42
 568 310 568 310 642 310 c 128,-1,43
 716 310 716 310 772 371.5 c 128,-1,44
 828 433 828 433 828 515 c 128,-1,45
 828 597 828 597 772 657.5 c 128,-1,46
 716 718 716 718 641 718 c 128,-1,47
 566 718 566 718 514 658 c 128,-1,48
 462 598 462 598 462 514.5 c 128,-1,41
 462 431 462 431 515 370.5 c 128,-1,42
EndSplineSet
EndChar

StartChar: odieresis
Encoding: 246 246 182
Width: 1284
Flags: MW
HStem: -32 342<593 691.5 593 788.5> 718 338<591.5 691.5> 1122 414<269 392 888 1012>
VStem: 52 410<459.5 514> 101 460<1270.5 1383.5> 719 460<1270.5 1383.5> 828 404<459.5 570>
LayerCount: 2
Fore
SplineSet
169 1182 m 128,-1,1
 101 1242 101 1242 101 1326.5 c 128,-1,2
 101 1411 101 1411 169.5 1473.5 c 128,-1,3
 238 1536 238 1536 330.5 1536 c 128,-1,4
 423 1536 423 1536 492 1473.5 c 128,-1,5
 561 1411 561 1411 561 1327 c 128,-1,6
 561 1243 561 1243 492.5 1182.5 c 128,-1,7
 424 1122 424 1122 330.5 1122 c 128,-1,0
 237 1122 237 1122 169 1182 c 128,-1,1
787.5 1182 m 128,-1,9
 719 1242 719 1242 719 1327 c 128,-1,10
 719 1412 719 1412 788 1474 c 128,-1,11
 857 1536 857 1536 949.5 1536 c 128,-1,12
 1042 1536 1042 1536 1110.5 1473.5 c 128,-1,13
 1179 1411 1179 1411 1179 1327 c 128,-1,14
 1179 1243 1179 1243 1111 1182.5 c 128,-1,15
 1043 1122 1043 1122 949.5 1122 c 128,-1,8
 856 1122 856 1122 787.5 1182 c 128,-1,9
102 278.5 m 0,16,17
 52.495049505 382.955445545 52.495049505 382.955445545 52.495049505 510.44784825 c 0,18,19
 52.495049505 640.950102931 52.495049505 640.950102931 103.5 747 c 0,20,21
 154 852 154 852 237.5 918.5 c 0,22,23
 410.15037594 1056 410.15037594 1056 644 1056 c 0,24,25
 826.989010989 1056 826.989010989 1056 975.5 966.5 c 0,26,27
 1137.105096 869.10884943 1137.105096 869.10884943 1198.5 706 c 0,28,29
 1232 617 1232 617 1232 513.5 c 128,-1,30
 1232 410 1232 410 1199 320.5 c 128,-1,31
 1166 231 1166 231 1109 167.5 c 128,-1,32
 1052 104 1052 104 976.5 58 c 0,33,34
 828.782608696 -32 828.782608696 -32 642 -32 c 1,35,36
 407.485074627 -32 407.485074627 -32 235.5 106 c 0,37,38
 152 173 152 173 102 278.5 c 0,16,17
515 370.5 m 128,-1,40
 568 310 568 310 642 310 c 128,-1,41
 716 310 716 310 772 371.5 c 128,-1,42
 828 433 828 433 828 515 c 128,-1,43
 828 597 828 597 772 657.5 c 128,-1,44
 716 718 716 718 641 718 c 128,-1,45
 566 718 566 718 514 658 c 128,-1,46
 462 598 462 598 462 514.5 c 128,-1,39
 462 431 462 431 515 370.5 c 128,-1,40
EndSplineSet
EndChar

StartChar: divide
Encoding: 247 247 183
Width: 926
Flags: MW
HStem: 20 362<407 516> 466 114<50 876 50 876> 666 362<407 516>
VStem: 259 403<150 249.5 795.5 894>
LayerCount: 2
Fore
SplineSet
319 718.5 m 128,-1,1
 259 771 259 771 259 844.5 c 128,-1,2
 259 918 259 918 319.5 973 c 128,-1,3
 380 1028 380 1028 461.5 1028 c 128,-1,4
 543 1028 543 1028 602.5 973 c 128,-1,5
 662 918 662 918 662 844.5 c 128,-1,6
 662 771 662 771 603 718.5 c 128,-1,7
 544 666 544 666 461.5 666 c 128,-1,0
 379 666 379 666 319 718.5 c 128,-1,1
319 72.5 m 128,-1,9
 259 125 259 125 259 199.5 c 128,-1,10
 259 274 259 274 319 328 c 128,-1,11
 379 382 379 382 461 382 c 128,-1,12
 543 382 543 382 602.5 328 c 128,-1,13
 662 274 662 274 662 199.5 c 128,-1,14
 662 125 662 125 603 72.5 c 128,-1,15
 544 20 544 20 461.5 20 c 128,-1,8
 379 20 379 20 319 72.5 c 128,-1,9
50 466 m 1,16,-1
 50 580 l 1,17,-1
 876 580 l 1,18,-1
 876 466 l 1,19,-1
 50 466 l 1,16,-1
EndSplineSet
EndChar

StartChar: oslash
Encoding: 248 248 184
Width: 1244
Flags: MW
HStem: -174 21G<390 390 390 506> -32 21G<569.5 724> 738 318<614 614> 1034 20G<688 690 690 690> 1182 20G<726 844 844 844>
VStem: 54 376<476 573 476 702> 810 380<456.5 552>
LayerCount: 2
Fore
SplineSet
514 328 m 1,0,-1
 614 738 l 1,1,2
 537 734 537 734 483.5 668.5 c 128,-1,3
 430 603 430 603 430 530 c 0,4,5
 430 392.615384615 430 392.615384615 514 328 c 1,0,-1
720 700 m 1,6,-1
 620 288 l 1,7,8
 698 300 698 300 754 365 c 128,-1,9
 810 430 810 430 810 500.5 c 0,10,11
 810 635.714285714 810 635.714285714 720 700 c 1,6,-1
390 -174 m 1,12,-1
 432 -2 l 1,13,14
 265 52 265 52 159.5 184.5 c 128,-1,15
 54 317 54 317 54 514 c 0,16,17
 54 827.909677419 54 827.909677419 315.5 973 c 0,18,19
 465.093023256 1056 465.093023256 1056 656 1056 c 0,20,21
 680 1056 680 1056 688 1054 c 1,22,-1
 690 1054 l 1,23,-1
 726 1202 l 1,24,-1
 844 1202 l 1,25,-1
 802 1032 l 1,26,27
 971 981 971 981 1080.5 846.5 c 128,-1,28
 1190 712 1190 712 1190 514 c 0,29,30
 1190 202.157232704 1190 202.157232704 920.5 53 c 0,31,32
 766.920454545 -32 766.920454545 -32 575 -32 c 0,33,34
 550 -32 550 -32 540 -30 c 1,35,-1
 506 -174 l 1,36,-1
 390 -174 l 1,12,-1
EndSplineSet
EndChar

StartChar: ugrave
Encoding: 249 249 185
Width: 1286
Flags: MW
HStem: -32 336<618.5 677.5 618.5 785.5> 1006 20G<94 516 516 516 776 1190 1190 1190> 1150 21G<940 940> 1770 20G<466 466>
VStem: 94 422<440 1026> 776 414<426 440 440 1026>
LayerCount: 2
Fore
SplineSet
258 1424 m 1,0,-1
 466 1790 l 1,1,-1
 1066 1370 l 1,2,-1
 940 1150 l 1,3,-1
 258 1424 l 1,0,-1
94 440 m 2,4,-1
 94 1026 l 1,5,-1
 516 1026 l 1,6,-1
 516 426 l 2,7,8
 516 372 516 372 557.5 338 c 128,-1,9
 599 304 599 304 647.5 304 c 128,-1,10
 696 304 696 304 736 338.5 c 128,-1,11
 776 373 776 373 776 426 c 2,12,-1
 776 1026 l 1,13,-1
 1190 1026 l 1,14,-1
 1190 440 l 2,15,16
 1190 174.467625899 1190 174.467625899 957.5 44 c 0,17,18
 822.064102564 -32 822.064102564 -32 648 -32 c 0,19,20
 474.179487179 -32 474.179487179 -32 334 45 c 0,21,22
 182.772563177 128.068592058 182.772563177 128.068592058 125 272.5 c 0,23,24
 94 350 94 350 94 440 c 2,4,-1
EndSplineSet
EndChar

StartChar: uacute
Encoding: 250 250 186
Width: 1286
Flags: MW
HStem: -32 336<618.5 677.5 618.5 785.5> 1006 20G<94 516 516 516 776 1190 1190 1190> 1150 21G<358 358> 1770 20G<832 832>
VStem: 94 422<440 1026> 776 414<426 440 440 1026>
LayerCount: 2
Fore
SplineSet
358 1150 m 1,0,-1
 232 1370 l 1,1,-1
 832 1790 l 1,2,-1
 1040 1424 l 1,3,-1
 358 1150 l 1,0,-1
94 440 m 2,4,-1
 94 1026 l 1,5,-1
 516 1026 l 1,6,-1
 516 426 l 2,7,8
 516 372 516 372 557.5 338 c 128,-1,9
 599 304 599 304 647.5 304 c 128,-1,10
 696 304 696 304 736 338.5 c 128,-1,11
 776 373 776 373 776 426 c 2,12,-1
 776 1026 l 1,13,-1
 1190 1026 l 1,14,-1
 1190 440 l 2,15,16
 1190 174.467625899 1190 174.467625899 957.5 44 c 0,17,18
 822.064102564 -32 822.064102564 -32 648 -32 c 0,19,20
 474.179487179 -32 474.179487179 -32 334 45 c 0,21,22
 182.772563177 128.068592058 182.772563177 128.068592058 125 272.5 c 0,23,24
 94 350 94 350 94 440 c 2,4,-1
EndSplineSet
EndChar

StartChar: ucircumflex
Encoding: 251 251 187
Width: 1286
Flags: MW
HStem: -32 336<618.5 677.5 618.5 785.5> 1006 20G<94 516 516 516 776 1190 1190 1190> 1130 510<205 835 457 545 747 747 747 835 457 1087>
VStem: 94 422<440 1026> 776 414<426 440 440 1026>
LayerCount: 2
Fore
SplineSet
205 1130 m 1,0,-1
 457 1640 l 1,1,-1
 835 1640 l 1,2,-1
 1087 1130 l 1,3,-1
 747 1130 l 1,4,-1
 669 1348 l 1,5,-1
 645 1426 l 1,6,-1
 623 1348 l 1,7,-1
 545 1130 l 1,8,-1
 205 1130 l 1,0,-1
94 440 m 2,9,-1
 94 1026 l 1,10,-1
 516 1026 l 1,11,-1
 516 426 l 2,12,13
 516 372 516 372 557.5 338 c 128,-1,14
 599 304 599 304 647.5 304 c 128,-1,15
 696 304 696 304 736 338.5 c 128,-1,16
 776 373 776 373 776 426 c 2,17,-1
 776 1026 l 1,18,-1
 1190 1026 l 1,19,-1
 1190 440 l 2,20,21
 1190 174.467625899 1190 174.467625899 957.5 44 c 0,22,23
 822.064102564 -32 822.064102564 -32 648 -32 c 0,24,25
 474.179487179 -32 474.179487179 -32 334 45 c 0,26,27
 182.772563177 128.068592058 182.772563177 128.068592058 125 272.5 c 0,28,29
 94 350 94 350 94 440 c 2,9,-1
EndSplineSet
EndChar

StartChar: udieresis
Encoding: 252 252 188
Width: 1286
Flags: MW
HStem: -32 336<618.5 677.5 618.5 785.5> 1006 20G<94 516 516 516 776 1190 1190 1190> 1122 414<266 389 885 1009>
VStem: 94 422<440 1026> 98 460<1270.5 1383.5> 716 460<1270.5 1383.5> 776 414<426 440 440 1026>
LayerCount: 2
Fore
SplineSet
166 1182 m 128,-1,1
 98 1242 98 1242 98 1326.5 c 128,-1,2
 98 1411 98 1411 166.5 1473.5 c 128,-1,3
 235 1536 235 1536 327.5 1536 c 128,-1,4
 420 1536 420 1536 489 1473.5 c 128,-1,5
 558 1411 558 1411 558 1327 c 128,-1,6
 558 1243 558 1243 489.5 1182.5 c 128,-1,7
 421 1122 421 1122 327.5 1122 c 128,-1,0
 234 1122 234 1122 166 1182 c 128,-1,1
784.5 1182 m 128,-1,9
 716 1242 716 1242 716 1327 c 128,-1,10
 716 1412 716 1412 785 1474 c 128,-1,11
 854 1536 854 1536 946.5 1536 c 128,-1,12
 1039 1536 1039 1536 1107.5 1473.5 c 128,-1,13
 1176 1411 1176 1411 1176 1327 c 128,-1,14
 1176 1243 1176 1243 1108 1182.5 c 128,-1,15
 1040 1122 1040 1122 946.5 1122 c 128,-1,8
 853 1122 853 1122 784.5 1182 c 128,-1,9
94 440 m 2,16,-1
 94 1026 l 1,17,-1
 516 1026 l 1,18,-1
 516 426 l 2,19,20
 516 372 516 372 557.5 338 c 128,-1,21
 599 304 599 304 647.5 304 c 128,-1,22
 696 304 696 304 736 338.5 c 128,-1,23
 776 373 776 373 776 426 c 2,24,-1
 776 1026 l 1,25,-1
 1190 1026 l 1,26,-1
 1190 440 l 2,27,28
 1190 174.467625899 1190 174.467625899 957.5 44 c 0,29,30
 822.064102564 -32 822.064102564 -32 648 -32 c 0,31,32
 474.179487179 -32 474.179487179 -32 334 45 c 0,33,34
 182.772563177 128.068592058 182.772563177 128.068592058 125 272.5 c 0,35,36
 94 350 94 350 94 440 c 2,16,-1
EndSplineSet
EndChar

StartChar: yacute
Encoding: 253 253 189
Width: 1369
Flags: MW
HStem: -480 344<660 720.5 632 852.5> 0 308<447 716> 1006 20G<98 528 528 528 832 1264 1264 1264> 1150 21G<448 448> 1770 20G<922 922>
VStem: 98 430<434 454 454 1026> 832 432<482 1026>
LayerCount: 2
Fore
SplineSet
448 1150 m 1,0,-1
 322 1370 l 1,1,-1
 922 1790 l 1,2,-1
 1130 1424 l 1,3,-1
 448 1150 l 1,0,-1
852 170 m 1,4,5
 757.340909091 5.68434188608e-14 757.340909091 5.68434188608e-14 556 0 c 0,6,7
 384.311926606 0 384.311926606 0 245.5 115.5 c 0,8,9
 180 170 180 170 139 253.5 c 128,-1,10
 98 337 98 337 98 434 c 2,11,-1
 98 1026 l 1,12,-1
 528 1026 l 1,13,-1
 528 454 l 2,14,15
 528 397 528 397 572 352.5 c 128,-1,16
 616 308 616 308 677.5 308 c 128,-1,17
 739 308 739 308 785.5 359.5 c 128,-1,18
 832 411 832 411 832 482 c 2,19,-1
 832 1026 l 1,20,-1
 1264 1026 l 1,21,-1
 1264 260 l 2,22,23
 1264 -192.089655172 1264 -192.089655172 1032.5 -372.5 c 0,24,25
 894.557522124 -480 894.557522124 -480 690 -480 c 0,26,27
 621 -480 621 -480 512 -460 c 1,28,-1
 556 -124 l 1,29,30
 604 -136 604 -136 652 -136 c 128,-1,31
 700 -136 700 -136 737.5 -115.5 c 128,-1,32
 775 -95 775 -95 797.5 -51.5 c 0,33,34
 834.463087248 19.9619686801 834.463087248 19.9619686801 852 170 c 1,4,5
EndSplineSet
EndChar

StartChar: thorn
Encoding: 254 254 190
Width: 1427
Flags: MW
HStem: -510 21G<107 107 107 539> -32 340<687 875> 716 340<687 994> 1394 20G<539 539>
VStem: 107 432<-510 190 457.5 512 512 520 834 1350 1350 1350> 947 428<512 568>
LayerCount: 2
Fore
SplineSet
539 520 m 1,0,-1
 539 512 l 2,1,2
 539 430 539 430 599.5 369 c 128,-1,3
 660 308 660 308 742.5 308 c 128,-1,4
 825 308 825 308 886 369 c 128,-1,5
 947 430 947 430 947 513 c 128,-1,6
 947 596 947 596 886 656 c 128,-1,7
 825 716 825 716 743 716 c 128,-1,8
 661 716 661 716 601 657.5 c 128,-1,9
 541 599 541 599 539 520 c 1,0,-1
107 -510 m 1,10,-1
 107 1350 l 1,11,-1
 539 1414 l 1,12,-1
 539 834 l 1,13,14
 591 945 591 945 678 1000.5 c 128,-1,15
 765 1056 765 1056 864.5 1056 c 128,-1,16
 964 1056 964 1056 1053.5 1017 c 128,-1,17
 1143 978 1143 978 1214.5 909 c 128,-1,18
 1286 840 1286 840 1330.5 736 c 0,19,20
 1374.50555556 633.155555556 1374.50555556 633.155555556 1374.50555556 514.664691358 c 0,21,22
 1374.50555556 393.189204545 1374.50555556 393.189204545 1330 288.5 c 0,23,24
 1286 185 1286 185 1215 116.5 c 0,25,26
 1063.20060985 -29.9543411972 1063.20060985 -29.9543411972 875 -32 c 1,27,28
 767 -32 767 -32 679.5 23.5 c 128,-1,29
 592 79 592 79 539 190 c 1,30,-1
 539 -510 l 1,31,-1
 107 -510 l 1,10,-1
EndSplineSet
EndChar

StartChar: ydieresis
Encoding: 255 255 191
Width: 1369
Flags: MW
HStem: -480 344<660 720.5 632 852.5> 0 308<447 716> 1006 20G<98 528 528 528 832 1264 1264 1264> 1122 414<324 447 943 1067>
VStem: 98 430<434 454 454 1026> 156 460<1270.5 1383.5> 774 460<1270.5 1383.5> 832 432<482 1026>
LayerCount: 2
Fore
SplineSet
224 1182 m 128,-1,1
 156 1242 156 1242 156 1326.5 c 128,-1,2
 156 1411 156 1411 224.5 1473.5 c 128,-1,3
 293 1536 293 1536 385.5 1536 c 128,-1,4
 478 1536 478 1536 547 1473.5 c 128,-1,5
 616 1411 616 1411 616 1327 c 128,-1,6
 616 1243 616 1243 547.5 1182.5 c 128,-1,7
 479 1122 479 1122 385.5 1122 c 128,-1,0
 292 1122 292 1122 224 1182 c 128,-1,1
842.5 1182 m 128,-1,9
 774 1242 774 1242 774 1327 c 128,-1,10
 774 1412 774 1412 843 1474 c 128,-1,11
 912 1536 912 1536 1004.5 1536 c 128,-1,12
 1097 1536 1097 1536 1165.5 1473.5 c 128,-1,13
 1234 1411 1234 1411 1234 1327 c 128,-1,14
 1234 1243 1234 1243 1166 1182.5 c 128,-1,15
 1098 1122 1098 1122 1004.5 1122 c 128,-1,8
 911 1122 911 1122 842.5 1182 c 128,-1,9
852 170 m 1,16,17
 757.340909091 5.68434188608e-14 757.340909091 5.68434188608e-14 556 0 c 0,18,19
 384.311926606 0 384.311926606 0 245.5 115.5 c 0,20,21
 180 170 180 170 139 253.5 c 128,-1,22
 98 337 98 337 98 434 c 2,23,-1
 98 1026 l 1,24,-1
 528 1026 l 1,25,-1
 528 454 l 2,26,27
 528 397 528 397 572 352.5 c 128,-1,28
 616 308 616 308 677.5 308 c 128,-1,29
 739 308 739 308 785.5 359.5 c 128,-1,30
 832 411 832 411 832 482 c 2,31,-1
 832 1026 l 1,32,-1
 1264 1026 l 1,33,-1
 1264 260 l 2,34,35
 1264 -192.089655172 1264 -192.089655172 1032.5 -372.5 c 0,36,37
 894.557522124 -480 894.557522124 -480 690 -480 c 0,38,39
 621 -480 621 -480 512 -460 c 1,40,-1
 556 -124 l 1,41,42
 604 -136 604 -136 652 -136 c 128,-1,43
 700 -136 700 -136 737.5 -115.5 c 128,-1,44
 775 -95 775 -95 797.5 -51.5 c 0,45,46
 834.463087248 19.9619686801 834.463087248 19.9619686801 852 170 c 1,16,17
EndSplineSet
EndChar

StartChar: Amacron
Encoding: 256 256 192
Width: 1431
Flags: MW
HStem: 0 21G<10 10 10 472 948 948 948 1430> 270 252<574 846 574 894 530 846> 1388 20G<400 1022 1022 1022> 1520 242<435 985 435 985>
LayerCount: 2
Fore
SplineSet
435 1520 m 1,0,-1
 435 1762 l 1,1,-1
 985 1762 l 1,2,-1
 985 1520 l 1,3,-1
 435 1520 l 1,0,-1
574 522 m 1,4,-1
 846 522 l 1,5,-1
 712 1138 l 1,6,-1
 574 522 l 1,4,-1
10 0 m 1,7,-1
 400 1408 l 1,8,-1
 1022 1408 l 1,9,-1
 1430 0 l 1,10,-1
 948 0 l 1,11,-1
 894 270 l 1,12,-1
 530 270 l 1,13,-1
 472 0 l 1,14,-1
 10 0 l 1,7,-1
EndSplineSet
EndChar

StartChar: amacron
Encoding: 257 257 193
Width: 1425
Flags: MW
HStem: -32 340<429.5 740.5 632 890> 716 325 1036 20G<436 622 890 890> 1170 242<498 1048 498 1048>
VStem: 52 430<457.5 568 457.5 681.5> 890 430<0 190 190 190 504 520 520 520 802 1026 0 1056 0 1056>
LayerCount: 2
Fore
SplineSet
498 1170 m 1,0,-1
 498 1412 l 1,1,-1
 1048 1412 l 1,2,-1
 1048 1170 l 1,3,-1
 498 1170 l 1,0,-1
890 504 m 1,4,-1
 890 520 l 1,5,6
 886 598 886 598 826 657 c 128,-1,7
 766 716 766 716 685 716 c 128,-1,8
 604 716 604 716 543 656 c 128,-1,9
 482 596 482 596 482 513 c 128,-1,10
 482 430 482 430 543 369 c 128,-1,11
 604 308 604 308 685.5 308 c 128,-1,12
 767 308 767 308 826.5 365.5 c 128,-1,13
 886 423 886 423 890 504 c 1,4,-1
890 -32 m 1,14,-1
 890 190 l 1,15,16
 838 80 838 80 748 24 c 128,-1,17
 658 -32 658 -32 559 -32 c 128,-1,18
 460 -32 460 -32 370.5 8 c 128,-1,19
 281 48 281 48 210 118 c 128,-1,20
 139 188 139 188 95.5 293.5 c 128,-1,21
 52 399 52 399 52 517.5 c 128,-1,22
 52 636 52 636 97 739 c 128,-1,23
 142 842 142 842 214.5 910 c 0,24,25
 370.161764706 1056 370.161764706 1056 554 1056 c 0,26,27
 658 1056 658 1056 752 986 c 128,-1,28
 846 916 846 916 890 802 c 1,29,-1
 890 1056 l 1,30,-1
 1320 1026 l 1,31,-1
 1320 0 l 1,32,-1
 890 -32 l 1,14,-1
EndSplineSet
EndChar

StartChar: Abreve
Encoding: 258 258 194
Width: 1431
Flags: MW
HStem: 0 21G<10 10 10 472 948 948 948 1430> 270 252<574 846 574 894 530 846> 1388 20G<400 1022 1022 1022> 1500 226<679.5 744 679.5 801> 1500 350<361 801>
VStem: 361 226<1812.5 1850 1812.5 1850>
LayerCount: 2
Fore
SplineSet
361 1850 m 1,0,-1
 587 1850 l 1,1,2
 587 1795 587 1795 624 1760.5 c 128,-1,3
 661 1726 661 1726 712 1726 c 128,-1,4
 763 1726 763 1726 797 1758 c 128,-1,5
 831 1790 831 1790 831 1850 c 1,6,-1
 1063 1850 l 1,7,8
 1063 1738 1063 1738 1011.5 1656.5 c 0,9,10
 912.607361963 1500 912.607361963 1500 713 1500 c 1,11,12
 512.852760736 1500 512.852760736 1500 413 1656.5 c 0,13,14
 361 1738 361 1738 361 1850 c 1,0,-1
574 522 m 1,15,-1
 846 522 l 1,16,-1
 712 1138 l 1,17,-1
 574 522 l 1,15,-1
10 0 m 1,18,-1
 400 1408 l 1,19,-1
 1022 1408 l 1,20,-1
 1430 0 l 1,21,-1
 948 0 l 1,22,-1
 894 270 l 1,23,-1
 530 270 l 1,24,-1
 472 0 l 1,25,-1
 10 0 l 1,18,-1
EndSplineSet
EndChar

StartChar: abreve
Encoding: 259 259 195
Width: 1425
Flags: MW
HStem: -32 340<429.5 740.5 632 890> 716 325 1036 20G<436 622 890 890> 1150 226<740.5 805 740.5 862> 1150 350<422 862>
VStem: 52 430<457.5 568 457.5 681.5> 422 226<1462.5 1500 1462.5 1500> 890 430<0 190 190 190 504 520 520 520 802 1026 0 1056 0 1056>
LayerCount: 2
Fore
SplineSet
422 1500 m 1,0,-1
 648 1500 l 1,1,2
 648 1445 648 1445 685 1410.5 c 128,-1,3
 722 1376 722 1376 773 1376 c 128,-1,4
 824 1376 824 1376 858 1408 c 128,-1,5
 892 1440 892 1440 892 1500 c 1,6,-1
 1124 1500 l 1,7,8
 1124 1388 1124 1388 1072.5 1306.5 c 0,9,10
 973.607361963 1150 973.607361963 1150 774 1150 c 0,11,12
 573.852760736 1150 573.852760736 1150 474 1306.5 c 0,13,14
 422 1388 422 1388 422 1500 c 1,0,-1
890 504 m 1,15,-1
 890 520 l 1,16,17
 886 598 886 598 826 657 c 128,-1,18
 766 716 766 716 685 716 c 128,-1,19
 604 716 604 716 543 656 c 128,-1,20
 482 596 482 596 482 513 c 128,-1,21
 482 430 482 430 543 369 c 128,-1,22
 604 308 604 308 685.5 308 c 128,-1,23
 767 308 767 308 826.5 365.5 c 128,-1,24
 886 423 886 423 890 504 c 1,15,-1
890 -32 m 1,25,-1
 890 190 l 1,26,27
 838 80 838 80 748 24 c 128,-1,28
 658 -32 658 -32 559 -32 c 128,-1,29
 460 -32 460 -32 370.5 8 c 128,-1,30
 281 48 281 48 210 118 c 128,-1,31
 139 188 139 188 95.5 293.5 c 128,-1,32
 52 399 52 399 52 517.5 c 128,-1,33
 52 636 52 636 97 739 c 128,-1,34
 142 842 142 842 214.5 910 c 0,35,36
 370.161764706 1056 370.161764706 1056 554 1056 c 0,37,38
 658 1056 658 1056 752 986 c 128,-1,39
 846 916 846 916 890 802 c 1,40,-1
 890 1056 l 1,41,-1
 1320 1026 l 1,42,-1
 1320 0 l 1,43,-1
 890 -32 l 1,25,-1
EndSplineSet
EndChar

StartChar: Aogonek
Encoding: 260 260 196
Width: 1431
Flags: MW
HStem: -508 106<1175.5 1358> -20 20G<10 10 10 472 948 948 948 1430 1296 1408 1408 1408> 0 21G<10 10 10 472 948 948 948 1430 1296 1408 1408 1408> 270 252<574 846 574 894 530 846> 1388 20G<400 1022 1022 1022>
VStem: 1020 222<-356 -288 -356 -277.5>
LayerCount: 2
Fore
SplineSet
1440 -388 m 1,0,-1
 1442 -464 l 1,1,2
 1338 -508 1338 -508 1240.5 -508 c 128,-1,3
 1143 -508 1143 -508 1081.5 -459 c 128,-1,4
 1020 -410 1020 -410 1020 -332 c 0,5,6
 1020 -259.536231884 1020 -259.536231884 1079.5 -194 c 0,7,8
 1125.53114606 -143.299027523 1125.53114606 -143.299027523 1193.76557303 -86.1495137614 c 128,-1,9
 1262 -29 1262 -29 1267 -24.5 c 128,-1,10
 1272 -20 1272 -20 1280.5 -13 c 128,-1,11
 1289 -6 1289 -6 1296 0 c 1,12,-1
 948 0 l 1,13,-1
 894 270 l 1,14,-1
 530 270 l 1,15,-1
 472 0 l 1,16,-1
 10 0 l 1,17,-1
 400 1408 l 1,18,-1
 1022 1408 l 1,19,-1
 1430 0 l 1,20,-1
 1408 0 l 1,21,22
 1341.62025316 -136.253164557 1341.62025316 -136.253164557 1301.81012658 -193.626582278 c 128,-1,23
 1262 -251 1262 -251 1252 -275.5 c 128,-1,24
 1242 -300 1242 -300 1242 -328 c 0,25,26
 1242 -402 1242 -402 1344 -402 c 0,27,28
 1379 -402 1379 -402 1440 -388 c 1,0,-1
574 522 m 1,29,-1
 846 522 l 1,30,-1
 712 1138 l 1,31,-1
 574 522 l 1,29,-1
EndSplineSet
EndChar

StartChar: aogonek
Encoding: 261 261 197
Width: 1426
Flags: MW
HStem: -508 106<1083.5 1266> -32 340<429.5 740.5 632 890> -20 20G<1204 1316 1316 1316 1320 1320> 716 325 1036 20G<436 622 890 890>
VStem: 52 430<457.5 568 457.5 681.5> 890 430<0 190 190 190 504 520 520 520 802 1026 0 1056 0 1056> 928 222<-356 -288 -356 -277.5>
LayerCount: 2
Fore
SplineSet
1348 -388 m 1,0,-1
 1350 -464 l 1,1,2
 1246 -508 1246 -508 1148.5 -508 c 128,-1,3
 1051 -508 1051 -508 989.5 -459 c 128,-1,4
 928 -410 928 -410 928 -332 c 0,5,6
 928 -259.536231884 928 -259.536231884 987.5 -194 c 0,7,8
 1033.53114606 -143.299027523 1033.53114606 -143.299027523 1101.76557303 -86.1495137614 c 128,-1,9
 1170 -29 1170 -29 1175 -24.5 c 128,-1,10
 1180 -20 1180 -20 1185.34216847 -15.600567142 c 128,-1,11
 1190.68433694 -11.201134284 1190.68433694 -11.201134284 1192.76961517 -9.46830770817 c 1,12,-1
 890 -32 l 1,13,-1
 890 190 l 1,14,15
 838 80 838 80 748 24 c 128,-1,16
 658 -32 658 -32 559 -32 c 128,-1,17
 460 -32 460 -32 370.5 8 c 128,-1,18
 281 48 281 48 210 118 c 128,-1,19
 139 188 139 188 95.5 293.5 c 128,-1,20
 52 399 52 399 52 517.5 c 128,-1,21
 52 636 52 636 97 739 c 128,-1,22
 142 842 142 842 214.5 910 c 0,23,24
 370.161764706 1056 370.161764706 1056 554 1056 c 0,25,26
 658 1056 658 1056 752 986 c 128,-1,27
 846 916 846 916 890 802 c 1,28,-1
 890 1056 l 1,29,-1
 1320 1026 l 1,30,-1
 1320 0 l 1,31,-1
 1315.84949592 -0.308874722025 l 1,32,33
 1249.54133585 -136.366898329 1249.54133585 -136.366898329 1209.77066793 -193.683449165 c 128,-1,34
 1170 -251 1170 -251 1160 -275.5 c 128,-1,35
 1150 -300 1150 -300 1150 -328 c 0,36,37
 1150 -402 1150 -402 1252 -402 c 0,38,39
 1287 -402 1287 -402 1348 -388 c 1,0,-1
890 504 m 1,40,-1
 890 520 l 1,41,42
 886 598 886 598 826 657 c 128,-1,43
 766 716 766 716 685 716 c 128,-1,44
 604 716 604 716 543 656 c 128,-1,45
 482 596 482 596 482 513 c 128,-1,46
 482 430 482 430 543 369 c 128,-1,47
 604 308 604 308 685.5 308 c 128,-1,48
 767 308 767 308 826.5 365.5 c 128,-1,49
 886 423 886 423 890 504 c 1,40,-1
EndSplineSet
EndChar

StartChar: Cacute
Encoding: 262 262 198
Width: 1237
Flags: MW
HStem: -32 370<776 863.5> 1075 364<764.5 851.5 594 907> 1500 21G<456 456> 2120 20G<930 930>
VStem: 63 460<705 835 581 929.5>
LayerCount: 2
Fore
SplineSet
456 1500 m 1,0,-1
 330 1720 l 1,1,-1
 930 2140 l 1,2,-1
 1138 1774 l 1,3,-1
 456 1500 l 1,0,-1
1129 396 m 1,4,-1
 1185 71 l 1,5,6
 1006 -32 1006 -32 797 -32 c 0,7,8
 653 -32 653 -32 521 20.5 c 128,-1,9
 389 73 389 73 287.5 167 c 128,-1,10
 186 261 186 261 125 401 c 128,-1,11
 64 541 64 541 63 705 c 0,12,13
 63 869 63 869 122 1008.5 c 128,-1,14
 181 1148 181 1148 280.5 1241 c 128,-1,15
 380 1334 380 1334 511 1386.5 c 128,-1,16
 642 1439 642 1439 785 1439 c 0,17,18
 1004 1439 1004 1439 1183 1337 c 1,19,-1
 1129 1019 l 1,20,21
 984 1075 984 1075 846 1075 c 0,22,23
 708 1075 708 1075 615.5 983 c 128,-1,24
 523 891 523 891 523 708.5 c 0,25,26
 523 526 523 526 620.5 432 c 128,-1,27
 718 338 718 338 875 338 c 0,28,29
 981 338 981 338 1129 396 c 1,4,-1
EndSplineSet
EndChar

StartChar: cacute
Encoding: 263 263 199
Width: 966
Flags: MW
HStem: -32 334<623.5 664> 720 336<620.5 664 458 712> 1150 21G<252 252> 1770 20G<726 726>
VStem: 52 426<452 572.5 452 673.5>
LayerCount: 2
Fore
SplineSet
252 1150 m 1,0,-1
 126 1370 l 1,1,-1
 726 1790 l 1,2,-1
 934 1424 l 1,3,-1
 252 1150 l 1,0,-1
878 336 m 1,4,-1
 918 50 l 1,5,6
 754 -32 754 -32 626 -32 c 128,-1,7
 498 -32 498 -32 398 5.5 c 128,-1,8
 298 43 298 43 221 111.5 c 128,-1,9
 144 180 144 180 98 284 c 128,-1,10
 52 388 52 388 52 509 c 128,-1,11
 52 630 52 630 97 732.5 c 128,-1,12
 142 835 142 835 217.5 905.5 c 0,13,14
 378.673758865 1056 378.673758865 1056 608 1056 c 0,15,16
 761.807692308 1056 761.807692308 1056 922 958 c 1,17,-1
 882 686 l 1,18,19
 769 720 769 720 680 720 c 128,-1,20
 591 720 591 720 534.5 662 c 128,-1,21
 478 604 478 604 478 512.5 c 128,-1,22
 478 421 478 421 535.5 361.5 c 128,-1,23
 593 302 593 302 684 302 c 128,-1,24
 775 302 775 302 878 336 c 1,4,-1
EndSplineSet
EndChar

StartChar: Ccircumflex
Encoding: 264 264 200
Width: 1237
Flags: MW
HStem: -32 370<776 863.5> 1075 364<764.5 851.5 594 907> 1480 510<298 928 550 638 840 840 840 928 550 1180>
VStem: 63 460<705 835 581 929.5>
LayerCount: 2
Fore
SplineSet
298 1480 m 1,0,-1
 550 1990 l 1,1,-1
 928 1990 l 1,2,-1
 1180 1480 l 1,3,-1
 840 1480 l 1,4,-1
 762 1698 l 1,5,-1
 738 1776 l 1,6,-1
 716 1698 l 1,7,-1
 638 1480 l 1,8,-1
 298 1480 l 1,0,-1
1129 396 m 1,9,-1
 1185 71 l 1,10,11
 1006 -32 1006 -32 797 -32 c 0,12,13
 653 -32 653 -32 521 20.5 c 128,-1,14
 389 73 389 73 287.5 167 c 128,-1,15
 186 261 186 261 125 401 c 128,-1,16
 64 541 64 541 63 705 c 0,17,18
 63 869 63 869 122 1008.5 c 128,-1,19
 181 1148 181 1148 280.5 1241 c 128,-1,20
 380 1334 380 1334 511 1386.5 c 128,-1,21
 642 1439 642 1439 785 1439 c 0,22,23
 1004 1439 1004 1439 1183 1337 c 1,24,-1
 1129 1019 l 1,25,26
 984 1075 984 1075 846 1075 c 0,27,28
 708 1075 708 1075 615.5 983 c 128,-1,29
 523 891 523 891 523 708.5 c 0,30,31
 523 526 523 526 620.5 432 c 128,-1,32
 718 338 718 338 875 338 c 0,33,34
 981 338 981 338 1129 396 c 1,9,-1
EndSplineSet
EndChar

StartChar: ccircumflex
Encoding: 265 265 201
Width: 966
Flags: MW
HStem: -32 334<623.5 664> 720 336<620.5 664 458 712> 1130 510<90 720 342 430 632 632 632 720 342 972>
VStem: 52 426<452 572.5 452 673.5>
LayerCount: 2
Fore
SplineSet
90 1130 m 1,0,-1
 342 1640 l 1,1,-1
 720 1640 l 1,2,-1
 972 1130 l 1,3,-1
 632 1130 l 1,4,-1
 554 1348 l 1,5,-1
 530 1426 l 1,6,-1
 508 1348 l 1,7,-1
 430 1130 l 1,8,-1
 90 1130 l 1,0,-1
878 336 m 1,9,-1
 918 50 l 1,10,11
 754 -32 754 -32 626 -32 c 128,-1,12
 498 -32 498 -32 398 5.5 c 128,-1,13
 298 43 298 43 221 111.5 c 128,-1,14
 144 180 144 180 98 284 c 128,-1,15
 52 388 52 388 52 509 c 128,-1,16
 52 630 52 630 97 732.5 c 128,-1,17
 142 835 142 835 217.5 905.5 c 0,18,19
 378.673758865 1056 378.673758865 1056 608 1056 c 0,20,21
 761.807692308 1056 761.807692308 1056 922 958 c 1,22,-1
 882 686 l 1,23,24
 769 720 769 720 680 720 c 128,-1,25
 591 720 591 720 534.5 662 c 128,-1,26
 478 604 478 604 478 512.5 c 128,-1,27
 478 421 478 421 535.5 361.5 c 128,-1,28
 593 302 593 302 684 302 c 128,-1,29
 775 302 775 302 878 336 c 1,9,-1
EndSplineSet
EndChar

StartChar: Cdotaccent
Encoding: 266 266 202
Width: 1237
Flags: MW
HStem: -32 370<776 863.5> 1075 364<764.5 851.5 594 907> 1514 414<735 858>
VStem: 63 460<705 835 581 929.5> 567 460<1664 1777>
LayerCount: 2
Fore
SplineSet
635 1575 m 128,-1,1
 567 1636 567 1636 567 1720.5 c 128,-1,2
 567 1805 567 1805 635.5 1866.5 c 128,-1,3
 704 1928 704 1928 796.5 1928 c 128,-1,4
 889 1928 889 1928 958 1866 c 128,-1,5
 1027 1804 1027 1804 1027 1720 c 128,-1,6
 1027 1636 1027 1636 958.5 1575 c 128,-1,7
 890 1514 890 1514 796.5 1514 c 128,-1,0
 703 1514 703 1514 635 1575 c 128,-1,1
1129 396 m 1,8,-1
 1185 71 l 1,9,10
 1006 -32 1006 -32 797 -32 c 0,11,12
 653 -32 653 -32 521 20.5 c 128,-1,13
 389 73 389 73 287.5 167 c 128,-1,14
 186 261 186 261 125 401 c 128,-1,15
 64 541 64 541 63 705 c 0,16,17
 63 869 63 869 122 1008.5 c 128,-1,18
 181 1148 181 1148 280.5 1241 c 128,-1,19
 380 1334 380 1334 511 1386.5 c 128,-1,20
 642 1439 642 1439 785 1439 c 0,21,22
 1004 1439 1004 1439 1183 1337 c 1,23,-1
 1129 1019 l 1,24,25
 984 1075 984 1075 846 1075 c 128,-1,26
 708 1075 708 1075 615.5 983 c 128,-1,27
 523 891 523 891 523 708.5 c 128,-1,28
 523 526 523 526 620.5 432 c 128,-1,29
 718 338 718 338 875 338 c 0,30,31
 981 338 981 338 1129 396 c 1,8,-1
EndSplineSet
EndChar

StartChar: cdotaccent
Encoding: 267 267 203
Width: 966
Flags: MW
HStem: -32 334<623.5 664> 720 336<620.5 664 458 712> 1164 414<515 638>
VStem: 52 426<452 572.5 452 673.5> 347 460<1314 1427>
LayerCount: 2
Fore
SplineSet
415 1225 m 128,-1,1
 347 1286 347 1286 347 1370.5 c 128,-1,2
 347 1455 347 1455 415.5 1516.5 c 128,-1,3
 484 1578 484 1578 576.5 1578 c 128,-1,4
 669 1578 669 1578 738 1516 c 128,-1,5
 807 1454 807 1454 807 1370 c 128,-1,6
 807 1286 807 1286 738.5 1225 c 128,-1,7
 670 1164 670 1164 576.5 1164 c 128,-1,0
 483 1164 483 1164 415 1225 c 128,-1,1
878 336 m 1,8,-1
 918 50 l 1,9,10
 754 -32 754 -32 626 -32 c 128,-1,11
 498 -32 498 -32 398 5.5 c 128,-1,12
 298 43 298 43 221 111.5 c 128,-1,13
 144 180 144 180 98 284 c 128,-1,14
 52 388 52 388 52 509 c 128,-1,15
 52 630 52 630 97 732.5 c 128,-1,16
 142 835 142 835 217.5 905.5 c 0,17,18
 378.673758865 1056 378.673758865 1056 608 1056 c 0,19,20
 761.807692308 1056 761.807692308 1056 922 958 c 1,21,-1
 882 686 l 1,22,23
 769 720 769 720 680 720 c 128,-1,24
 591 720 591 720 534.5 662 c 128,-1,25
 478 604 478 604 478 512.5 c 128,-1,26
 478 421 478 421 535.5 361.5 c 128,-1,27
 593 302 593 302 684 302 c 128,-1,28
 775 302 775 302 878 336 c 1,8,-1
EndSplineSet
EndChar

StartChar: Ccaron
Encoding: 268 268 204
Width: 1237
Flags: MW
HStem: -32 370<776 863.5> 1075 364<764.5 851.5 594 907> 1480 510<565 565 565 653 855 943>
VStem: 63 460<705 835 581 929.5>
LayerCount: 2
Fore
SplineSet
565 1480 m 1,0,-1
 313 1990 l 1,1,-1
 653 1990 l 1,2,-1
 731 1772 l 1,3,-1
 753 1692 l 1,4,-1
 777 1772 l 1,5,-1
 855 1990 l 1,6,-1
 1195 1990 l 1,7,-1
 943 1480 l 1,8,-1
 565 1480 l 1,0,-1
1129 396 m 1,9,-1
 1185 71 l 1,10,11
 1006 -32 1006 -32 797 -32 c 0,12,13
 653 -32 653 -32 521 20.5 c 128,-1,14
 389 73 389 73 287.5 167 c 128,-1,15
 186 261 186 261 125 401 c 128,-1,16
 64 541 64 541 63 705 c 0,17,18
 63 869 63 869 122 1008.5 c 128,-1,19
 181 1148 181 1148 280.5 1241 c 128,-1,20
 380 1334 380 1334 511 1386.5 c 128,-1,21
 642 1439 642 1439 785 1439 c 0,22,23
 1004 1439 1004 1439 1183 1337 c 1,24,-1
 1129 1019 l 1,25,26
 984 1075 984 1075 846 1075 c 0,27,28
 708 1075 708 1075 615.5 983 c 128,-1,29
 523 891 523 891 523 708.5 c 0,30,31
 523 526 523 526 620.5 432 c 128,-1,32
 718 338 718 338 875 338 c 0,33,34
 981 338 981 338 1129 396 c 1,9,-1
EndSplineSet
EndChar

StartChar: ccaron
Encoding: 269 269 205
Width: 966
Flags: MW
HStem: -32 334<623.5 664> 720 336<620.5 664 458 712> 1130 510<392 392 392 480 682 770>
VStem: 52 426<452 572.5 452 673.5>
LayerCount: 2
Fore
SplineSet
392 1130 m 1,0,-1
 140 1640 l 1,1,-1
 480 1640 l 1,2,-1
 558 1422 l 1,3,-1
 580 1342 l 1,4,-1
 604 1422 l 1,5,-1
 682 1640 l 1,6,-1
 1022 1640 l 1,7,-1
 770 1130 l 1,8,-1
 392 1130 l 1,0,-1
878 336 m 1,9,-1
 918 50 l 1,10,11
 754 -32 754 -32 626 -32 c 128,-1,12
 498 -32 498 -32 398 5.5 c 128,-1,13
 298 43 298 43 221 111.5 c 128,-1,14
 144 180 144 180 98 284 c 128,-1,15
 52 388 52 388 52 509 c 128,-1,16
 52 630 52 630 97 732.5 c 128,-1,17
 142 835 142 835 217.5 905.5 c 0,18,19
 378.673758865 1056 378.673758865 1056 608 1056 c 0,20,21
 761.807692308 1056 761.807692308 1056 922 958 c 1,22,-1
 882 686 l 1,23,24
 769 720 769 720 680 720 c 128,-1,25
 591 720 591 720 534.5 662 c 128,-1,26
 478 604 478 604 478 512.5 c 128,-1,27
 478 421 478 421 535.5 361.5 c 128,-1,28
 593 302 593 302 684 302 c 128,-1,29
 775 302 775 302 878 336 c 1,9,-1
EndSplineSet
EndChar

StartChar: Dcaron
Encoding: 270 270 206
Width: 1565
Flags: MW
HStem: 0 368<586 746 586 746> 1040 368<586 746 586 586> 1480 510<560 560 560 648 850 938>
VStem: 134 452<368 368 368 1040> 1040 460<636.5 797>
LayerCount: 2
Fore
SplineSet
560 1480 m 1,0,-1
 308 1990 l 1,1,-1
 648 1990 l 1,2,-1
 726 1772 l 1,3,-1
 748 1692 l 1,4,-1
 772 1772 l 1,5,-1
 850 1990 l 1,6,-1
 1190 1990 l 1,7,-1
 938 1480 l 1,8,-1
 560 1480 l 1,0,-1
586 368 m 1,9,-1
 746 368 l 2,10,11
 839 368 839 368 908 422.5 c 0,12,13
 1040 526.760869565 1040 526.760869565 1040 718 c 0,14,15
 1040 899.102189781 1040 899.102189781 909.5 991.5 c 0,16,17
 841 1040 841 1040 746 1040 c 2,18,-1
 586 1040 l 1,19,-1
 586 368 l 1,9,-1
134 0 m 1,20,-1
 134 1408 l 1,21,-1
 746 1408 l 2,22,23
 1171.28248588 1408 1171.28248588 1408 1379 1111.5 c 0,24,25
 1500 938.782258065 1500 938.782258065 1500 714 c 0,26,27
 1500 414.322580645 1500 414.322580645 1308 212 c 0,28,29
 1215 114 1215 114 1070 57 c 128,-1,30
 925 0 925 0 746 0 c 2,31,-1
 134 0 l 1,20,-1
EndSplineSet
EndChar

StartChar: dcaron
Encoding: 271 271 207
Width: 1763
Flags: MW
HStem: -32 340<431 742> 0 308<631 889 631 1321> 678 240<1424 1520 1424 1633> 716 340<431.5 739.5> 1024 384<1424 1616 1424 1844> 1394 20G<1321 1321>
VStem: 53 430<457.5 568 457.5 677.5> 889 432<0 190 190 190 512 520 520 520 834 1350 1350 1350> 1424 420<1024 1408 1408 1408> 1616 228
LayerCount: 2
Fore
SplineSet
1424 678 m 1,0,-1
 1424 918 l 1,1,2
 1560.625 918 1560.625 918 1580.8125 927.5 c 128,-1,3
 1601 937 1601 937 1608 952.5 c 0,4,5
 1616 970.214285714 1616 970.214285714 1616 1024 c 1,6,-1
 1424 1024 l 1,7,-1
 1424 1408 l 1,8,-1
 1844 1408 l 1,9,10
 1835.4348088 1056.82716086 1835.4348088 1056.82716086 1826.02415183 968.328186501 c 0,11,12
 1809.26468865 810.720135672 1809.26468865 810.720135672 1754.14181637 752.446931746 c 128,-1,13
 1699.01894409 694.173727819 1699.01894409 694.173727819 1562.98245393 682.594029139 c 0,14,15
 1509.01251766 678 1509.01251766 678 1424 678 c 1,0,-1
889 512 m 2,16,-1
 889 520 l 1,17,18
 885 598 885 598 825 657 c 128,-1,19
 765 716 765 716 684 716 c 128,-1,20
 603 716 603 716 543 656 c 128,-1,21
 483 596 483 596 483 513 c 128,-1,22
 483 430 483 430 543.5 369 c 128,-1,23
 604 308 604 308 686.5 308 c 128,-1,24
 769 308 769 308 829 369 c 128,-1,25
 889 430 889 430 889 512 c 2,16,-1
889 0 m 1,26,-1
 889 190 l 1,27,28
 837 80 837 80 748 24 c 128,-1,29
 659 -32 659 -32 560 -32 c 128,-1,30
 461 -32 461 -32 372 7.5 c 128,-1,31
 283 47 283 47 212 116 c 128,-1,32
 141 185 141 185 97 289 c 128,-1,33
 53 393 53 393 53 512.5 c 128,-1,34
 53 632 53 632 97 736 c 128,-1,35
 141 840 141 840 212 909 c 0,36,37
 363.260869565 1056 363.260869565 1056 553 1056 c 0,38,39
 661 1056 661 1056 749 1001 c 128,-1,40
 837 946 837 946 889 834 c 1,41,-1
 889 1350 l 1,42,-1
 1321 1414 l 1,43,-1
 1321 0 l 1,44,-1
 889 0 l 1,26,-1
EndSplineSet
EndChar

StartChar: Dcroat
Encoding: 272 272 208
Width: 1565
Flags: MW
HStem: 0 368<586 746 586 746> 592 174<78 134 78 134 586 718> 1008 368<586 746 586 586>
VStem: 134 452<368 368 368 592 368 592 766 1008> 1040 460<617 775>
LayerCount: 2
Fore
SplineSet
586 368 m 1,0,-1
 746 368 l 2,1,2
 883 368 883 368 961.5 467 c 128,-1,3
 1040 566 1040 566 1040 702 c 0,4,5
 1040 816.685714286 1040 816.685714286 967 909.5 c 0,6,7
 889.528089888 1008 889.528089888 1008 746 1008 c 2,8,-1
 586 1008 l 1,9,-1
 586 766 l 1,10,-1
 718 766 l 1,11,-1
 718 592 l 1,12,-1
 586 592 l 1,13,-1
 586 368 l 1,0,-1
78 592 m 1,14,-1
 78 766 l 1,15,-1
 134 766 l 1,16,-1
 134 1376 l 1,17,-1
 746 1376 l 2,18,19
 1165.43352601 1376 1165.43352601 1376 1377.5 1082.5 c 0,20,21
 1500 912.96 1500 912.96 1500 698 c 0,22,23
 1500 474.129032258 1500 474.129032258 1378 299 c 0,24,25
 1246.35125448 110.020349173 1246.35125448 110.020349173 1016 38.5 c 0,26,27
 892 0 892 0 746 0 c 2,28,-1
 134 0 l 1,29,-1
 134 592 l 1,30,-1
 78 592 l 1,14,-1
EndSplineSet
EndChar

StartChar: dcroat
Encoding: 273 273 209
Width: 1428
Flags: MW
HStem: -32 340<431 742> 0 308<631 889 631 1321> 716 340<431.5 739.5> 1106 174<747 889 747 889 1321 1387> 1394 20G<1321 1321>
VStem: 53 430<457.5 568 457.5 677.5> 889 432<0 190 190 190 512 520 520 520 834 1106 0 1106 1280 1350 1350 1350>
LayerCount: 2
Fore
SplineSet
889 512 m 2,0,-1
 889 520 l 1,1,2
 885 598 885 598 825 657 c 128,-1,3
 765 716 765 716 684 716 c 128,-1,4
 603 716 603 716 543 656 c 128,-1,5
 483 596 483 596 483 513 c 128,-1,6
 483 430 483 430 543.5 369 c 128,-1,7
 604 308 604 308 686.5 308 c 128,-1,8
 769 308 769 308 829 369 c 128,-1,9
 889 430 889 430 889 512 c 2,0,-1
889 0 m 1,10,-1
 889 190 l 1,11,12
 837 80 837 80 748 24 c 128,-1,13
 659 -32 659 -32 560 -32 c 128,-1,14
 461 -32 461 -32 372 7.5 c 128,-1,15
 283 47 283 47 212 116 c 128,-1,16
 141 185 141 185 97 289 c 128,-1,17
 53 393 53 393 53 512.5 c 128,-1,18
 53 632 53 632 97 736 c 128,-1,19
 141 840 141 840 212 909 c 0,20,21
 363.260869565 1056 363.260869565 1056 553 1056 c 0,22,23
 661 1056 661 1056 749 1001 c 128,-1,24
 837 946 837 946 889 834 c 1,25,-1
 889 1106 l 1,26,-1
 747 1106 l 1,27,-1
 747 1280 l 1,28,-1
 889 1280 l 1,29,-1
 889 1350 l 1,30,-1
 1321 1414 l 1,31,-1
 1321 1280 l 1,32,-1
 1387 1280 l 1,33,-1
 1387 1106 l 1,34,-1
 1321 1106 l 1,35,-1
 1321 0 l 1,36,-1
 889 0 l 1,10,-1
EndSplineSet
EndChar

